solid OpenSCAD_Model
  facet normal 0 0 -1
    outer loop
      vertex 15 -13 0
      vertex 15 13 0
      vertex 18.9289 -13 0
    endloop
  endfacet
  facet normal 0 0 -1
    outer loop
      vertex 18.9289 -13 0
      vertex 15 13 0
      vertex 18.9289 13 0
    endloop
  endfacet
  facet normal 0 0 -1
    outer loop
      vertex 18.9289 -13 0
      vertex 18.9289 13 0
      vertex 22 9.92893 0
    endloop
  endfacet
  facet normal 0 0 -1
    outer loop
      vertex 18.9289 -13 0
      vertex 22 9.92893 0
      vertex 22.0711 10 0
    endloop
  endfacet
  facet normal 0 0 -1
    outer loop
      vertex 26.3594 2.64503 0
      vertex 22.0711 10 0
      vertex 30 10 0
    endloop
  endfacet
  facet normal 0 0 -1
    outer loop
      vertex 27.75 3.89711 0
      vertex 30 9.94522 0
      vertex 31.0453 9.94522 0
    endloop
  endfacet
  facet normal 0 0 -1
    outer loop
      vertex 29.5296 4.47535 0
      vertex 31.0453 9.94522 0
      vertex 33.0902 9.51056 0
    endloop
  endfacet
  facet normal 0 0 -1
    outer loop
      vertex 30 4.5 0
      vertex 33.0902 9.51056 0
      vertex 35 8.66025 0
    endloop
  endfacet
  facet normal 0 0 -1
    outer loop
      vertex 32.3579 4.5 0
      vertex 35 8.66025 0
      vertex 35.8793 8.02142 0
    endloop
  endfacet
  facet normal 0 0 -1
    outer loop
      vertex 26.3594 -2.64503 0
      vertex 18.9289 -13 0
      vertex 25.5983 -0.935603 0
    endloop
  endfacet
  facet normal 0 0 -1
    outer loop
      vertex 29.5296 4.47535 0
      vertex 33.0902 9.51056 0
      vertex 30 4.5 0
    endloop
  endfacet
  facet normal 0 0 -1
    outer loop
      vertex 29.5296 4.47535 0
      vertex 30 4.5 0
      vertex 30 4.42591 0
    endloop
  endfacet
  facet normal 0 0 -1
    outer loop
      vertex 27.75 3.89711 0
      vertex 31.0453 9.94522 0
      vertex 29.5296 4.47535 0
    endloop
  endfacet
  facet normal 0 0 -1
    outer loop
      vertex 22.0711 -10 0
      vertex 32.3579 -4.5 0
      vertex 35.8793 -8.02142 0
    endloop
  endfacet
  facet normal 0 0 -1
    outer loop
      vertex 26.3594 2.64503 0
      vertex 30 10 0
      vertex 30 9.94522 0
    endloop
  endfacet
  facet normal 0 0 -1
    outer loop
      vertex 18.9289 -13 0
      vertex 22.0711 10 0
      vertex 26.3594 2.64503 0
    endloop
  endfacet
  facet normal 0 0 -1
    outer loop
      vertex 25.5983 -0.935603 0
      vertex 18.9289 -13 0
      vertex 25.5983 0.935603 0
    endloop
  endfacet
  facet normal 0 0 -1
    outer loop
      vertex 18.9289 -13 0
      vertex 26.3594 2.64503 0
      vertex 25.5983 0.935603 0
    endloop
  endfacet
  facet normal 0 0 -1
    outer loop
      vertex 26.3594 2.64503 0
      vertex 30 9.94522 0
      vertex 27.75 3.89711 0
    endloop
  endfacet
  facet normal 0 0 -1
    outer loop
      vertex 27.75 -3.89711 0
      vertex 18.9289 -13 0
      vertex 26.3594 -2.64503 0
    endloop
  endfacet
  facet normal 0 0 -1
    outer loop
      vertex 30 -9.94522 0
      vertex 35 -8.66025 0
      vertex 31.0453 -9.94522 0
    endloop
  endfacet
  facet normal 0 0 -1
    outer loop
      vertex 22.0711 -10 0
      vertex 27.75 -3.89711 0
      vertex 29.5296 -4.47535 0
    endloop
  endfacet
  facet normal 0 0 -1
    outer loop
      vertex 30 -9.94522 0
      vertex 35.8793 -8.02142 0
      vertex 35 -8.66025 0
    endloop
  endfacet
  facet normal 0 0 -1
    outer loop
      vertex 31.0453 -9.94522 0
      vertex 35 -8.66025 0
      vertex 33.0902 -9.51056 0
    endloop
  endfacet
  facet normal 0 0 -1
    outer loop
      vertex 22.0711 -10 0
      vertex 30 -4.5 0
      vertex 32.3579 -4.5 0
    endloop
  endfacet
  facet normal 0 0 -1
    outer loop
      vertex 22.0711 -10 0
      vertex 29.5296 -4.47535 0
      vertex 30 -4.42591 0
    endloop
  endfacet
  facet normal 0 0 -1
    outer loop
      vertex 22.0711 -10 0
      vertex 30 -4.42591 0
      vertex 30 -4.5 0
    endloop
  endfacet
  facet normal 0 0 -1
    outer loop
      vertex 22 -9.92893 0
      vertex 27.75 -3.89711 0
      vertex 22.0711 -10 0
    endloop
  endfacet
  facet normal 0 0 -1
    outer loop
      vertex 18.9289 -13 0
      vertex 27.75 -3.89711 0
      vertex 22 -9.92893 0
    endloop
  endfacet
  facet normal 0 0 -1
    outer loop
      vertex 30 4.5 0
      vertex 35 8.66025 0
      vertex 32.3579 4.5 0
    endloop
  endfacet
  facet normal 0 0 -1
    outer loop
      vertex 22.0711 -10 0
      vertex 35.8793 -8.02142 0
      vertex 30 -9.94522 0
    endloop
  endfacet
  facet normal 0 0 -1
    outer loop
      vertex 22.0711 -10 0
      vertex 30 -9.94522 0
      vertex 30 -10 0
    endloop
  endfacet
  facet normal -1 0 0
    outer loop
      vertex 15 -11.1421 24
      vertex 15 -11.1421 4
      vertex 15 -13 24
    endloop
  endfacet
  facet normal -1 0 0
    outer loop
      vertex 15 -7.9 1.3
      vertex 15 -11.1421 4
      vertex 15 -7.9 4
    endloop
  endfacet
  facet normal -1 0 0
    outer loop
      vertex 15 -13 24
      vertex 15 -11.1421 4
      vertex 15 -13 0
    endloop
  endfacet
  facet normal -1 0 0
    outer loop
      vertex 15 -13 0
      vertex 15 -7.9 1.3
      vertex 15 13 0
    endloop
  endfacet
  facet normal -1 0 0
    outer loop
      vertex 15 -7.9 1.3
      vertex 15 7.9 1.3
      vertex 15 13 0
    endloop
  endfacet
  facet normal -1 0 0
    outer loop
      vertex 15 7.9 1.3
      vertex 15 7.9 4
      vertex 15 11.1421 4
    endloop
  endfacet
  facet normal -1 0 0
    outer loop
      vertex 15 13 24
      vertex 15 11.1421 4
      vertex 15 11.1421 24
    endloop
  endfacet
  facet normal -1 0 0
    outer loop
      vertex 15 13 0
      vertex 15 11.1421 4
      vertex 15 13 24
    endloop
  endfacet
  facet normal -1 0 0
    outer loop
      vertex 15 7.9 1.3
      vertex 15 11.1421 4
      vertex 15 13 0
    endloop
  endfacet
  facet normal -1 0 0
    outer loop
      vertex 15 -11.1421 4
      vertex 15 -7.9 1.3
      vertex 15 -13 0
    endloop
  endfacet
  facet normal 0 -1 0
    outer loop
      vertex 15 -13 24
      vertex 15 -13 0
      vertex 18.9289 -13 0
    endloop
  endfacet
  facet normal 0 -1 0
    outer loop
      vertex 18.9289 -13 24
      vertex 15 -13 24
      vertex 18.9289 -13 0
    endloop
  endfacet
  facet normal 0.707107 -0.707107 0
    outer loop
      vertex 22 -9.92893 0
      vertex 22 -9.92893 24
      vertex 18.9289 -13 24
    endloop
  endfacet
  facet normal 0.707107 -0.707107 0
    outer loop
      vertex 18.9289 -13 0
      vertex 22 -9.92893 0
      vertex 18.9289 -13 24
    endloop
  endfacet
  facet normal -0.707107 -0.707107 0
    outer loop
      vertex 22.0711 -10 0
      vertex 22.0711 -10 24
      vertex 22 -9.92893 24
    endloop
  endfacet
  facet normal -0.707107 -0.707107 0
    outer loop
      vertex 22 -9.92893 0
      vertex 22.0711 -10 0
      vertex 22 -9.92893 24
    endloop
  endfacet
  facet normal 0 -1 0
    outer loop
      vertex 22.0711 -10 24
      vertex 22.0711 -10 0
      vertex 30 -10 0
    endloop
  endfacet
  facet normal 0 -1 0
    outer loop
      vertex 30 -10 24
      vertex 22.0711 -10 24
      vertex 30 -10 0
    endloop
  endfacet
  facet normal 1 0 0
    outer loop
      vertex 30 -10 24
      vertex 30 -10 0
      vertex 30 -9.94522 0
    endloop
  endfacet
  facet normal 1 0 0
    outer loop
      vertex 30 -9.94522 24
      vertex 30 -10 24
      vertex 30 -9.94522 0
    endloop
  endfacet
  facet normal 0 -1 0
    outer loop
      vertex 30 -9.94522 24
      vertex 30 -9.94522 0
      vertex 31.0453 -9.94522 0
    endloop
  endfacet
  facet normal 0 -1 0
    outer loop
      vertex 31.0453 -9.94522 24
      vertex 30 -9.94522 24
      vertex 31.0453 -9.94522 0
    endloop
  endfacet
  facet normal 0.207912 -0.978148 0
    outer loop
      vertex 31.0453 -9.94522 24
      vertex 31.0453 -9.94522 0
      vertex 33.0902 -9.51056 0
    endloop
  endfacet
  facet normal 0.207912 -0.978148 0
    outer loop
      vertex 33.0902 -9.51056 24
      vertex 31.0453 -9.94522 24
      vertex 33.0902 -9.51056 0
    endloop
  endfacet
  facet normal 0.406737 -0.913545 0
    outer loop
      vertex 33.0902 -9.51056 24
      vertex 33.0902 -9.51056 0
      vertex 35 -8.66025 0
    endloop
  endfacet
  facet normal 0.406737 -0.913545 0
    outer loop
      vertex 35 -8.66025 24
      vertex 33.0902 -9.51056 24
      vertex 35 -8.66025 0
    endloop
  endfacet
  facet normal 0.587785 -0.809017 0
    outer loop
      vertex 35 -8.66025 24
      vertex 35 -8.66025 0
      vertex 35.8793 -8.02142 0
    endloop
  endfacet
  facet normal 0.587785 -0.809017 0
    outer loop
      vertex 35.8793 -8.02142 24
      vertex 35 -8.66025 24
      vertex 35.8793 -8.02142 0
    endloop
  endfacet
  facet normal 0.707107 0.707107 0
    outer loop
      vertex 34.3945 -6.53662 1.3
      vertex 34.3945 -6.53662 24
      vertex 35.8793 -8.02142 24
    endloop
  endfacet
  facet normal 0.707107 0.707107 0
    outer loop
      vertex 34.3945 -6.53662 1.3
      vertex 35.8793 -8.02142 24
      vertex 35.8793 -8.02142 0
    endloop
  endfacet
  facet normal 0.707107 0.707107 0
    outer loop
      vertex 34.3945 -6.53662 1.3
      vertex 35.8793 -8.02142 0
      vertex 32.3579 -4.5 1.3
    endloop
  endfacet
  facet normal 0.707107 0.707107 0
    outer loop
      vertex 35.8793 -8.02142 0
      vertex 32.3579 -4.5 0
      vertex 32.3579 -4.5 1.3
    endloop
  endfacet
  facet normal 0 1 0
    outer loop
      vertex 32.3579 -4.5 1.3
      vertex 32.3579 -4.5 0
      vertex 30 -4.5 1.3
    endloop
  endfacet
  facet normal 0 1 0
    outer loop
      vertex 30 -4.5 1.3
      vertex 32.3579 -4.5 0
      vertex 30 -4.5 0
    endloop
  endfacet
  facet normal 1 0 0
    outer loop
      vertex 30 -4.42591 0
      vertex 30 -4.42591 1.3
      vertex 30 -4.5 1.3
    endloop
  endfacet
  facet normal 1 0 0
    outer loop
      vertex 30 -4.5 0
      vertex 30 -4.42591 0
      vertex 30 -4.5 1.3
    endloop
  endfacet
  facet normal -0.104529 0.994522 0
    outer loop
      vertex 30 -4.42591 1.3
      vertex 30 -4.42591 0
      vertex 29.5296 -4.47535 1.3
    endloop
  endfacet
  facet normal -0.104529 0.994522 0
    outer loop
      vertex 29.5296 -4.47535 1.3
      vertex 30 -4.42591 0
      vertex 29.5296 -4.47535 0
    endloop
  endfacet
  facet normal 0.309017 0.951056 0
    outer loop
      vertex 29.5296 -4.47535 1.3
      vertex 29.5296 -4.47535 0
      vertex 27.75 -3.89711 1.3
    endloop
  endfacet
  facet normal 0.309017 0.951056 0
    outer loop
      vertex 27.75 -3.89711 1.3
      vertex 29.5296 -4.47535 0
      vertex 27.75 -3.89711 0
    endloop
  endfacet
  facet normal 0.669131 0.743145 0
    outer loop
      vertex 27.75 -3.89711 1.3
      vertex 27.75 -3.89711 0
      vertex 26.3594 -2.64503 1.3
    endloop
  endfacet
  facet normal 0.669131 0.743145 0
    outer loop
      vertex 26.3594 -2.64503 1.3
      vertex 27.75 -3.89711 0
      vertex 26.3594 -2.64503 0
    endloop
  endfacet
  facet normal 0.913545 0.406737 0
    outer loop
      vertex 25.5983 -0.935603 1.3
      vertex 26.3594 -2.64503 1.3
      vertex 26.3594 -2.64503 0
    endloop
  endfacet
  facet normal 0.913545 0.406737 0
    outer loop
      vertex 25.5983 -0.935603 0
      vertex 25.5983 -0.935603 1.3
      vertex 26.3594 -2.64503 0
    endloop
  endfacet
  facet normal 1 0 0
    outer loop
      vertex 25.5983 0.935603 0
      vertex 25.5983 0.935603 1.3
      vertex 25.5983 -0.935603 1.3
    endloop
  endfacet
  facet normal 1 0 0
    outer loop
      vertex 25.5983 -0.935603 0
      vertex 25.5983 0.935603 0
      vertex 25.5983 -0.935603 1.3
    endloop
  endfacet
  facet normal 0.913545 -0.406737 0
    outer loop
      vertex 26.3594 2.64503 0
      vertex 26.3594 2.64503 1.3
      vertex 25.5983 0.935603 1.3
    endloop
  endfacet
  facet normal 0.913545 -0.406737 0
    outer loop
      vertex 25.5983 0.935603 0
      vertex 26.3594 2.64503 0
      vertex 25.5983 0.935603 1.3
    endloop
  endfacet
  facet normal 0.669131 -0.743145 0
    outer loop
      vertex 27.75 3.89711 0
      vertex 27.75 3.89711 1.3
      vertex 26.3594 2.64503 1.3
    endloop
  endfacet
  facet normal 0.669131 -0.743145 0
    outer loop
      vertex 26.3594 2.64503 0
      vertex 27.75 3.89711 0
      vertex 26.3594 2.64503 1.3
    endloop
  endfacet
  facet normal 0.309017 -0.951056 0
    outer loop
      vertex 29.5296 4.47535 0
      vertex 29.5296 4.47535 1.3
      vertex 27.75 3.89711 1.3
    endloop
  endfacet
  facet normal 0.309017 -0.951056 0
    outer loop
      vertex 27.75 3.89711 0
      vertex 29.5296 4.47535 0
      vertex 27.75 3.89711 1.3
    endloop
  endfacet
  facet normal -0.104529 -0.994522 0
    outer loop
      vertex 30 4.42591 0
      vertex 30 4.42591 1.3
      vertex 29.5296 4.47535 1.3
    endloop
  endfacet
  facet normal -0.104529 -0.994522 0
    outer loop
      vertex 29.5296 4.47535 0
      vertex 30 4.42591 0
      vertex 29.5296 4.47535 1.3
    endloop
  endfacet
  facet normal 1 0 0
    outer loop
      vertex 30 4.5 0
      vertex 30 4.5 1.3
      vertex 30 4.42591 1.3
    endloop
  endfacet
  facet normal 1 0 0
    outer loop
      vertex 30 4.42591 0
      vertex 30 4.5 0
      vertex 30 4.42591 1.3
    endloop
  endfacet
  facet normal 0 -1 0
    outer loop
      vertex 32.3579 4.5 0
      vertex 32.3579 4.5 1.3
      vertex 30 4.5 1.3
    endloop
  endfacet
  facet normal 0 -1 0
    outer loop
      vertex 30 4.5 0
      vertex 32.3579 4.5 0
      vertex 30 4.5 1.3
    endloop
  endfacet
  facet normal 0.707107 -0.707107 0
    outer loop
      vertex 35.8793 8.02142 0
      vertex 35.8793 8.02142 24
      vertex 34.3945 6.53662 24
    endloop
  endfacet
  facet normal 0.707107 -0.707107 0
    outer loop
      vertex 32.3579 4.5 1.3
      vertex 35.8793 8.02142 0
      vertex 34.3945 6.53662 1.3
    endloop
  endfacet
  facet normal 0.707107 -0.707107 0
    outer loop
      vertex 34.3945 6.53662 1.3
      vertex 35.8793 8.02142 0
      vertex 34.3945 6.53662 24
    endloop
  endfacet
  facet normal 0.707107 -0.707107 0
    outer loop
      vertex 32.3579 4.5 0
      vertex 35.8793 8.02142 0
      vertex 32.3579 4.5 1.3
    endloop
  endfacet
  facet normal 0.587785 0.809017 0
    outer loop
      vertex 35 8.66025 0
      vertex 35 8.66025 24
      vertex 35.8793 8.02142 0
    endloop
  endfacet
  facet normal 0.587785 0.809017 0
    outer loop
      vertex 35.8793 8.02142 0
      vertex 35 8.66025 24
      vertex 35.8793 8.02142 24
    endloop
  endfacet
  facet normal 0.406737 0.913545 0
    outer loop
      vertex 33.0902 9.51056 0
      vertex 33.0902 9.51056 24
      vertex 35 8.66025 0
    endloop
  endfacet
  facet normal 0.406737 0.913545 0
    outer loop
      vertex 35 8.66025 0
      vertex 33.0902 9.51056 24
      vertex 35 8.66025 24
    endloop
  endfacet
  facet normal 0.207912 0.978148 0
    outer loop
      vertex 31.0453 9.94522 0
      vertex 31.0453 9.94522 24
      vertex 33.0902 9.51056 0
    endloop
  endfacet
  facet normal 0.207912 0.978148 0
    outer loop
      vertex 33.0902 9.51056 0
      vertex 31.0453 9.94522 24
      vertex 33.0902 9.51056 24
    endloop
  endfacet
  facet normal 0 1 0
    outer loop
      vertex 30 9.94522 0
      vertex 30 9.94522 24
      vertex 31.0453 9.94522 0
    endloop
  endfacet
  facet normal 0 1 0
    outer loop
      vertex 31.0453 9.94522 0
      vertex 30 9.94522 24
      vertex 31.0453 9.94522 24
    endloop
  endfacet
  facet normal 1 0 0
    outer loop
      vertex 30 9.94522 24
      vertex 30 9.94522 0
      vertex 30 10 0
    endloop
  endfacet
  facet normal 1 0 0
    outer loop
      vertex 30 10 24
      vertex 30 9.94522 24
      vertex 30 10 0
    endloop
  endfacet
  facet normal 0 1 0
    outer loop
      vertex 22.0711 10 0
      vertex 22.0711 10 24
      vertex 30 10 0
    endloop
  endfacet
  facet normal 0 1 0
    outer loop
      vertex 30 10 0
      vertex 22.0711 10 24
      vertex 30 10 24
    endloop
  endfacet
  facet normal -0.707107 0.707107 0
    outer loop
      vertex 22.0711 10 24
      vertex 22.0711 10 0
      vertex 22 9.92893 24
    endloop
  endfacet
  facet normal -0.707107 0.707107 0
    outer loop
      vertex 22 9.92893 24
      vertex 22.0711 10 0
      vertex 22 9.92893 0
    endloop
  endfacet
  facet normal 0.707107 0.707107 0
    outer loop
      vertex 22 9.92893 24
      vertex 22 9.92893 0
      vertex 18.9289 13 24
    endloop
  endfacet
  facet normal 0.707107 0.707107 0
    outer loop
      vertex 18.9289 13 24
      vertex 22 9.92893 0
      vertex 18.9289 13 0
    endloop
  endfacet
  facet normal 0 1 0
    outer loop
      vertex 15 13 0
      vertex 15 13 24
      vertex 18.9289 13 0
    endloop
  endfacet
  facet normal 0 1 0
    outer loop
      vertex 18.9289 13 0
      vertex 15 13 24
      vertex 18.9289 13 24
    endloop
  endfacet
  facet normal 0 0 1
    outer loop
      vertex 15 -11.1421 24
      vertex 15 -13 24
      vertex 18.9289 -13 24
    endloop
  endfacet
  facet normal 0 0 1
    outer loop
      vertex 22 -9.92893 24
      vertex 15 -11.1421 24
      vertex 18.9289 -13 24
    endloop
  endfacet
  facet normal 0 0 1
    outer loop
      vertex 30 -10 24
      vertex 22 -9.92893 24
      vertex 22.0711 -10 24
    endloop
  endfacet
  facet normal 0 0 1
    outer loop
      vertex 30 -9.94522 24
      vertex 22 -9.92893 24
      vertex 30 -10 24
    endloop
  endfacet
  facet normal 0 0 1
    outer loop
      vertex 31.0453 -9.94522 24
      vertex 22 -9.92893 24
      vertex 30 -9.94522 24
    endloop
  endfacet
  facet normal 0 0 1
    outer loop
      vertex 33.0902 -9.51056 24
      vertex 22 -9.92893 24
      vertex 31.0453 -9.94522 24
    endloop
  endfacet
  facet normal 0 0 1
    outer loop
      vertex 35 -8.66025 24
      vertex 22 -9.92893 24
      vertex 33.0902 -9.51056 24
    endloop
  endfacet
  facet normal 0 0 1
    outer loop
      vertex 35.8793 -8.02142 24
      vertex 22 -9.92893 24
      vertex 35 -8.66025 24
    endloop
  endfacet
  facet normal 0 0 1
    outer loop
      vertex 32.4412 -7.51335 24
      vertex 22 -9.92893 24
      vertex 35.8793 -8.02142 24
    endloop
  endfacet
  facet normal 0 0 1
    outer loop
      vertex 34.3945 -6.53662 24
      vertex 34.233 -6.67019 24
      vertex 35.8793 -8.02142 24
    endloop
  endfacet
  facet normal 0 0 1
    outer loop
      vertex 24.5 -7.6929 24
      vertex 24.5 -7.9 24
      vertex 25.4412 -7.51335 24
    endloop
  endfacet
  facet normal 0 0 1
    outer loop
      vertex 34.233 -6.67019 24
      vertex 32.4412 -7.51335 24
      vertex 35.8793 -8.02142 24
    endloop
  endfacet
  facet normal 0 0 1
    outer loop
      vertex 30.496 -7.88441 24
      vertex 22 -9.92893 24
      vertex 32.4412 -7.51335 24
    endloop
  endfacet
  facet normal 0 0 1
    outer loop
      vertex 24.5 -7.9 24
      vertex 15 -11.1421 24
      vertex 28.5197 -7.76007 24
    endloop
  endfacet
  facet normal 0 0 1
    outer loop
      vertex 24.5 -7.9 24
      vertex 18.2421 -7.9 24
      vertex 15 -11.1421 24
    endloop
  endfacet
  facet normal 0 0 1
    outer loop
      vertex 26.4579 -7.03492 24
      vertex 25.4412 -7.51335 24
      vertex 26.6363 -7.14813 24
    endloop
  endfacet
  facet normal 0 0 1
    outer loop
      vertex 25.4412 -7.51335 24
      vertex 24.5 -7.9 24
      vertex 26.6363 -7.14813 24
    endloop
  endfacet
  facet normal 0 0 1
    outer loop
      vertex 26.6363 -7.14813 24
      vertex 24.5 -7.9 24
      vertex 28.5197 -7.76007 24
    endloop
  endfacet
  facet normal 0 0 1
    outer loop
      vertex 30.496 -7.88441 24
      vertex 15 -11.1421 24
      vertex 22 -9.92893 24
    endloop
  endfacet
  facet normal 0 0 1
    outer loop
      vertex 30.496 -7.88441 24
      vertex 28.5197 -7.76007 24
      vertex 15 -11.1421 24
    endloop
  endfacet
  facet normal 0 0 1
    outer loop
      vertex 15 13 24
      vertex 15 11.1421 24
      vertex 18.2421 7.9 24
    endloop
  endfacet
  facet normal 0 0 1
    outer loop
      vertex 25.4412 7.51335 24
      vertex 15 13 24
      vertex 24.5 7.9 24
    endloop
  endfacet
  facet normal 0 0 1
    outer loop
      vertex 24.5 7.9 24
      vertex 15 13 24
      vertex 18.2421 7.9 24
    endloop
  endfacet
  facet normal 0 0 1
    outer loop
      vertex 25.4412 7.51335 24
      vertex 24.5 7.9 24
      vertex 24.5 7.6929 24
    endloop
  endfacet
  facet normal 0 0 1
    outer loop
      vertex 26.4579 7.03492 24
      vertex 15 13 24
      vertex 25.4412 7.51335 24
    endloop
  endfacet
  facet normal 0 0 1
    outer loop
      vertex 26.6363 7.14813 24
      vertex 15 13 24
      vertex 26.4579 7.03492 24
    endloop
  endfacet
  facet normal 0 0 1
    outer loop
      vertex 22 9.92893 24
      vertex 15 13 24
      vertex 26.6363 7.14813 24
    endloop
  endfacet
  facet normal 0 0 1
    outer loop
      vertex 22 9.92893 24
      vertex 18.9289 13 24
      vertex 15 13 24
    endloop
  endfacet
  facet normal 0 0 1
    outer loop
      vertex 35.8793 8.02142 24
      vertex 32.4412 7.51335 24
      vertex 34.233 6.67019 24
    endloop
  endfacet
  facet normal 0 0 1
    outer loop
      vertex 35.8793 8.02142 24
      vertex 34.233 6.67019 24
      vertex 34.3945 6.53662 24
    endloop
  endfacet
  facet normal 0 0 1
    outer loop
      vertex 30 9.94522 24
      vertex 32.4412 7.51335 24
      vertex 35.8793 8.02142 24
    endloop
  endfacet
  facet normal 0 0 1
    outer loop
      vertex 33.0902 9.51056 24
      vertex 30 9.94522 24
      vertex 35 8.66025 24
    endloop
  endfacet
  facet normal 0 0 1
    outer loop
      vertex 30 9.94522 24
      vertex 35.8793 8.02142 24
      vertex 35 8.66025 24
    endloop
  endfacet
  facet normal 0 0 1
    outer loop
      vertex 28.5197 7.76007 24
      vertex 22.0711 10 24
      vertex 26.6363 7.14813 24
    endloop
  endfacet
  facet normal 0 0 1
    outer loop
      vertex 22.0711 10 24
      vertex 22 9.92893 24
      vertex 26.6363 7.14813 24
    endloop
  endfacet
  facet normal 0 0 1
    outer loop
      vertex 31.0453 9.94522 24
      vertex 30 9.94522 24
      vertex 33.0902 9.51056 24
    endloop
  endfacet
  facet normal 0 0 1
    outer loop
      vertex 30 9.94522 24
      vertex 30.496 7.88441 24
      vertex 32.4412 7.51335 24
    endloop
  endfacet
  facet normal 0 0 1
    outer loop
      vertex 30 9.94522 24
      vertex 28.5197 7.76007 24
      vertex 30.496 7.88441 24
    endloop
  endfacet
  facet normal 0 0 1
    outer loop
      vertex 30 10 24
      vertex 28.5197 7.76007 24
      vertex 30 9.94522 24
    endloop
  endfacet
  facet normal 0 0 1
    outer loop
      vertex 30 10 24
      vertex 22.0711 10 24
      vertex 28.5197 7.76007 24
    endloop
  endfacet
  facet normal -0.707107 -0.707107 0
    outer loop
      vertex 18.2421 7.9 4
      vertex 18.2421 7.9 24
      vertex 15 11.1421 24
    endloop
  endfacet
  facet normal -0.707107 -0.707107 0
    outer loop
      vertex 15 11.1421 4
      vertex 18.2421 7.9 4
      vertex 15 11.1421 24
    endloop
  endfacet
  facet normal 0 0 1
    outer loop
      vertex 18.2421 7.9 4
      vertex 15 11.1421 4
      vertex 15 7.9 4
    endloop
  endfacet
  facet normal 0 -1 0
    outer loop
      vertex 24.5 7.9 1.3
      vertex 24.5 7.9 24
      vertex 18.2421 7.9 24
    endloop
  endfacet
  facet normal 0 -1 0
    outer loop
      vertex 15 7.9 4
      vertex 24.5 7.9 1.3
      vertex 18.2421 7.9 4
    endloop
  endfacet
  facet normal 0 -1 0
    outer loop
      vertex 18.2421 7.9 4
      vertex 24.5 7.9 1.3
      vertex 18.2421 7.9 24
    endloop
  endfacet
  facet normal 0 -1 0
    outer loop
      vertex 15 7.9 1.3
      vertex 24.5 7.9 1.3
      vertex 15 7.9 4
    endloop
  endfacet
  facet normal 0 0 1
    outer loop
      vertex 21.5197 -7.76007 1.3
      vertex 15 -7.9 1.3
      vertex 23.496 -7.88441 1.3
    endloop
  endfacet
  facet normal 0 0 1
    outer loop
      vertex 24.5 -7.9 1.3
      vertex 24.5 -7.6929 1.3
      vertex 23.496 -7.88441 1.3
    endloop
  endfacet
  facet normal 0 0 1
    outer loop
      vertex 19.6363 -7.14813 1.3
      vertex 15 -7.9 1.3
      vertex 21.5197 -7.76007 1.3
    endloop
  endfacet
  facet normal 0 0 1
    outer loop
      vertex 15 -7.9 1.3
      vertex 24.5 -7.9 1.3
      vertex 23.496 -7.88441 1.3
    endloop
  endfacet
  facet normal 0 0 1
    outer loop
      vertex 17.9643 -6.08705 1.3
      vertex 15 -7.9 1.3
      vertex 19.6363 -7.14813 1.3
    endloop
  endfacet
  facet normal 0 0 1
    outer loop
      vertex 16.6088 -4.6435 1.3
      vertex 15 -7.9 1.3
      vertex 17.9643 -6.08705 1.3
    endloop
  endfacet
  facet normal 0 0 1
    outer loop
      vertex 15.6548 -2.90818 1.3
      vertex 15 -7.9 1.3
      vertex 16.6088 -4.6435 1.3
    endloop
  endfacet
  facet normal 0 0 1
    outer loop
      vertex 15.1623 -0.990133 1.3
      vertex 15 -7.9 1.3
      vertex 15.6548 -2.90818 1.3
    endloop
  endfacet
  facet normal 0 0 1
    outer loop
      vertex 15.1623 0.990133 1.3
      vertex 15 7.9 1.3
      vertex 15.1623 -0.990133 1.3
    endloop
  endfacet
  facet normal 0 0 1
    outer loop
      vertex 15.6548 2.90818 1.3
      vertex 15 7.9 1.3
      vertex 15.1623 0.990133 1.3
    endloop
  endfacet
  facet normal 0 0 1
    outer loop
      vertex 16.6088 4.6435 1.3
      vertex 15 7.9 1.3
      vertex 15.6548 2.90818 1.3
    endloop
  endfacet
  facet normal 0 0 1
    outer loop
      vertex 17.9643 6.08705 1.3
      vertex 15 7.9 1.3
      vertex 16.6088 4.6435 1.3
    endloop
  endfacet
  facet normal 0 0 1
    outer loop
      vertex 19.6363 7.14813 1.3
      vertex 15 7.9 1.3
      vertex 17.9643 6.08705 1.3
    endloop
  endfacet
  facet normal 0 0 1
    outer loop
      vertex 21.5197 7.76007 1.3
      vertex 15 7.9 1.3
      vertex 19.6363 7.14813 1.3
    endloop
  endfacet
  facet normal 0 0 1
    outer loop
      vertex 23.496 7.88441 1.3
      vertex 15 7.9 1.3
      vertex 21.5197 7.76007 1.3
    endloop
  endfacet
  facet normal 0 0 1
    outer loop
      vertex 24.5 7.6929 1.3
      vertex 24.5 7.9 1.3
      vertex 23.496 7.88441 1.3
    endloop
  endfacet
  facet normal 0 0 1
    outer loop
      vertex 24.5 7.9 1.3
      vertex 15 7.9 1.3
      vertex 23.496 7.88441 1.3
    endloop
  endfacet
  facet normal 0 0 1
    outer loop
      vertex 15 7.9 1.3
      vertex 15 -7.9 1.3
      vertex 15.1623 -0.990133 1.3
    endloop
  endfacet
  facet normal 0 1 0
    outer loop
      vertex 18.2421 -7.9 4
      vertex 18.2421 -7.9 24
      vertex 24.5 -7.9 24
    endloop
  endfacet
  facet normal 0 1 0
    outer loop
      vertex 18.2421 -7.9 4
      vertex 24.5 -7.9 24
      vertex 24.5 -7.9 1.3
    endloop
  endfacet
  facet normal 0 1 0
    outer loop
      vertex 18.2421 -7.9 4
      vertex 24.5 -7.9 1.3
      vertex 15 -7.9 4
    endloop
  endfacet
  facet normal 0 1 0
    outer loop
      vertex 24.5 -7.9 1.3
      vertex 15 -7.9 1.3
      vertex 15 -7.9 4
    endloop
  endfacet
  facet normal 0 0 1
    outer loop
      vertex 18.2421 -7.9 4
      vertex 15 -7.9 4
      vertex 15 -11.1421 4
    endloop
  endfacet
  facet normal -0.707107 0.707107 0
    outer loop
      vertex 18.2421 -7.9 24
      vertex 18.2421 -7.9 4
      vertex 15 -11.1421 24
    endloop
  endfacet
  facet normal -0.707107 0.707107 0
    outer loop
      vertex 15 -11.1421 24
      vertex 18.2421 -7.9 4
      vertex 15 -11.1421 4
    endloop
  endfacet
  facet normal 0 0 1
    outer loop
      vertex 15.6548 -2.90818 1.3
      vertex 16.6088 -4.6435 1.3
      vertex 17.9643 -6.08705 1.3
    endloop
  endfacet
  facet normal 0 0 1
    outer loop
      vertex 21.5197 -7.76007 1.3
      vertex 15.6548 -2.90818 1.3
      vertex 19.6363 -7.14813 1.3
    endloop
  endfacet
  facet normal 0 0 1
    outer loop
      vertex 19.6363 -7.14813 1.3
      vertex 15.6548 -2.90818 1.3
      vertex 17.9643 -6.08705 1.3
    endloop
  endfacet
  facet normal 0 0 1
    outer loop
      vertex 23.496 -7.88441 1.3
      vertex 15.6548 -2.90818 1.3
      vertex 21.5197 -7.76007 1.3
    endloop
  endfacet
  facet normal 0 0 1
    outer loop
      vertex 25.4412 -7.51335 1.3
      vertex 15.6548 -2.90818 1.3
      vertex 23.496 -7.88441 1.3
    endloop
  endfacet
  facet normal 0 0 1
    outer loop
      vertex 26.4579 -7.03492 1.3
      vertex 15.6548 -2.90818 1.3
      vertex 25.4412 -7.51335 1.3
    endloop
  endfacet
  facet normal 0 0 1
    outer loop
      vertex 28.5197 -7.76007 1.3
      vertex 15.6548 -2.90818 1.3
      vertex 26.4579 -7.03492 1.3
    endloop
  endfacet
  facet normal 0 0 1
    outer loop
      vertex 28.5197 -7.76007 1.3
      vertex 26.4579 -7.03492 1.3
      vertex 26.6363 -7.14813 1.3
    endloop
  endfacet
  facet normal 0 0 1
    outer loop
      vertex 30.496 -7.88441 1.3
      vertex 15.6548 -2.90818 1.3
      vertex 28.5197 -7.76007 1.3
    endloop
  endfacet
  facet normal 0 0 1
    outer loop
      vertex 32.4412 -7.51335 1.3
      vertex 15.6548 -2.90818 1.3
      vertex 30.496 -7.88441 1.3
    endloop
  endfacet
  facet normal 0 0 1
    outer loop
      vertex 34.233 -6.67019 1.3
      vertex 15.6548 -2.90818 1.3
      vertex 32.4412 -7.51335 1.3
    endloop
  endfacet
  facet normal 0 0 1
    outer loop
      vertex 34.3945 -6.53662 1.3
      vertex 15.6548 -2.90818 1.3
      vertex 34.233 -6.67019 1.3
    endloop
  endfacet
  facet normal 0 0 1
    outer loop
      vertex 29.5296 -4.47535 1.3
      vertex 15.6548 -2.90818 1.3
      vertex 34.3945 -6.53662 1.3
    endloop
  endfacet
  facet normal 0 0 1
    outer loop
      vertex 32.3579 -4.5 1.3
      vertex 30 -4.5 1.3
      vertex 34.3945 -6.53662 1.3
    endloop
  endfacet
  facet normal 0 0 1
    outer loop
      vertex 30 -4.5 1.3
      vertex 29.5296 -4.47535 1.3
      vertex 34.3945 -6.53662 1.3
    endloop
  endfacet
  facet normal 0 0 1
    outer loop
      vertex 26.3594 -2.64503 1.3
      vertex 15.6548 -2.90818 1.3
      vertex 27.75 -3.89711 1.3
    endloop
  endfacet
  facet normal 0 0 1
    outer loop
      vertex 25.5983 -0.935603 1.3
      vertex 15.6548 -2.90818 1.3
      vertex 26.3594 -2.64503 1.3
    endloop
  endfacet
  facet normal 0 0 1
    outer loop
      vertex 25.5983 0.935603 1.3
      vertex 15.6548 -2.90818 1.3
      vertex 25.5983 -0.935603 1.3
    endloop
  endfacet
  facet normal 0 0 1
    outer loop
      vertex 26.3594 2.64503 1.3
      vertex 15.6548 -2.90818 1.3
      vertex 25.5983 0.935603 1.3
    endloop
  endfacet
  facet normal 0 0 1
    outer loop
      vertex 27.75 3.89711 1.3
      vertex 15.6548 -2.90818 1.3
      vertex 26.3594 2.64503 1.3
    endloop
  endfacet
  facet normal 0 0 1
    outer loop
      vertex 32.4412 7.51335 1.3
      vertex 15.6548 -2.90818 1.3
      vertex 27.75 3.89711 1.3
    endloop
  endfacet
  facet normal 0 0 1
    outer loop
      vertex 34.3945 6.53662 1.3
      vertex 27.75 3.89711 1.3
      vertex 29.5296 4.47535 1.3
    endloop
  endfacet
  facet normal 0 0 1
    outer loop
      vertex 30 4.5 1.3
      vertex 29.5296 4.47535 1.3
      vertex 30 4.42591 1.3
    endloop
  endfacet
  facet normal 0 0 1
    outer loop
      vertex 34.3945 6.53662 1.3
      vertex 29.5296 4.47535 1.3
      vertex 30 4.5 1.3
    endloop
  endfacet
  facet normal 0 0 1
    outer loop
      vertex 34.3945 6.53662 1.3
      vertex 30 4.5 1.3
      vertex 32.3579 4.5 1.3
    endloop
  endfacet
  facet normal 0 0 1
    outer loop
      vertex 34.233 6.67019 1.3
      vertex 27.75 3.89711 1.3
      vertex 34.3945 6.53662 1.3
    endloop
  endfacet
  facet normal 0 0 1
    outer loop
      vertex 32.4412 7.51335 1.3
      vertex 27.75 3.89711 1.3
      vertex 34.233 6.67019 1.3
    endloop
  endfacet
  facet normal 0 0 1
    outer loop
      vertex 30.496 7.88441 1.3
      vertex 15.6548 -2.90818 1.3
      vertex 32.4412 7.51335 1.3
    endloop
  endfacet
  facet normal 0 0 1
    outer loop
      vertex 28.5197 7.76007 1.3
      vertex 15.6548 -2.90818 1.3
      vertex 30.496 7.88441 1.3
    endloop
  endfacet
  facet normal 0 0 1
    outer loop
      vertex 26.6363 7.14813 1.3
      vertex 15.6548 -2.90818 1.3
      vertex 28.5197 7.76007 1.3
    endloop
  endfacet
  facet normal 0 0 1
    outer loop
      vertex 26.4579 7.03492 1.3
      vertex 15.6548 -2.90818 1.3
      vertex 26.6363 7.14813 1.3
    endloop
  endfacet
  facet normal 0 0 1
    outer loop
      vertex 25.4412 7.51335 1.3
      vertex 15.6548 -2.90818 1.3
      vertex 26.4579 7.03492 1.3
    endloop
  endfacet
  facet normal 0 0 1
    outer loop
      vertex 23.496 7.88441 1.3
      vertex 15.6548 -2.90818 1.3
      vertex 25.4412 7.51335 1.3
    endloop
  endfacet
  facet normal 0 0 1
    outer loop
      vertex 21.5197 7.76007 1.3
      vertex 15.6548 -2.90818 1.3
      vertex 23.496 7.88441 1.3
    endloop
  endfacet
  facet normal 0 0 1
    outer loop
      vertex 19.6363 7.14813 1.3
      vertex 15.6548 -2.90818 1.3
      vertex 21.5197 7.76007 1.3
    endloop
  endfacet
  facet normal 0 0 1
    outer loop
      vertex 17.9643 6.08705 1.3
      vertex 15.6548 -2.90818 1.3
      vertex 19.6363 7.14813 1.3
    endloop
  endfacet
  facet normal 0 0 1
    outer loop
      vertex 16.6088 4.6435 1.3
      vertex 15.6548 -2.90818 1.3
      vertex 17.9643 6.08705 1.3
    endloop
  endfacet
  facet normal 0 0 1
    outer loop
      vertex 15.6548 2.90818 1.3
      vertex 15.6548 -2.90818 1.3
      vertex 16.6088 4.6435 1.3
    endloop
  endfacet
  facet normal 0 0 1
    outer loop
      vertex 15.1623 0.990133 1.3
      vertex 15.6548 -2.90818 1.3
      vertex 15.6548 2.90818 1.3
    endloop
  endfacet
  facet normal 0 0 1
    outer loop
      vertex 15.1623 -0.990133 1.3
      vertex 15.6548 -2.90818 1.3
      vertex 15.1623 0.990133 1.3
    endloop
  endfacet
  facet normal 0 0 1
    outer loop
      vertex 30 -4.42591 1.3
      vertex 29.5296 -4.47535 1.3
      vertex 30 -4.5 1.3
    endloop
  endfacet
  facet normal 0 0 1
    outer loop
      vertex 29.5296 -4.47535 1.3
      vertex 27.75 -3.89711 1.3
      vertex 15.6548 -2.90818 1.3
    endloop
  endfacet
  facet normal -0.637424 0.770513 0
    outer loop
      vertex 34.3945 -6.53662 24
      vertex 34.3945 -6.53662 1.3
      vertex 34.233 -6.67019 24
    endloop
  endfacet
  facet normal -0.637424 0.770513 0
    outer loop
      vertex 34.233 -6.67019 24
      vertex 34.3945 -6.53662 1.3
      vertex 34.233 -6.67019 1.3
    endloop
  endfacet
  facet normal -0.637424 -0.770513 0
    outer loop
      vertex 34.3945 6.53662 1.3
      vertex 34.3945 6.53662 24
      vertex 34.233 6.67019 24
    endloop
  endfacet
  facet normal -0.637424 -0.770513 0
    outer loop
      vertex 34.233 6.67019 1.3
      vertex 34.3945 6.53662 1.3
      vertex 34.233 6.67019 24
    endloop
  endfacet
  facet normal -1 0 0
    outer loop
      vertex 24.5 -7.6929 24
      vertex 24.5 -7.6929 1.3
      vertex 24.5 -7.9 24
    endloop
  endfacet
  facet normal -1 0 0
    outer loop
      vertex 24.5 -7.9 24
      vertex 24.5 -7.6929 1.3
      vertex 24.5 -7.9 1.3
    endloop
  endfacet
  facet normal -0.187381 0.982287 0
    outer loop
      vertex 24.5 -7.6929 1.3
      vertex 24.5 -7.6929 24
      vertex 25.4412 -7.51335 24
    endloop
  endfacet
  facet normal -0.187381 0.982287 0
    outer loop
      vertex 24.5 -7.6929 1.3
      vertex 25.4412 -7.51335 24
      vertex 25.4412 -7.51335 1.3
    endloop
  endfacet
  facet normal -0.187381 0.982287 0
    outer loop
      vertex 24.5 -7.6929 1.3
      vertex 25.4412 -7.51335 1.3
      vertex 23.496 -7.88441 1.3
    endloop
  endfacet
  facet normal -0.425779 0.904827 0
    outer loop
      vertex 26.4579 -7.03492 24
      vertex 26.4579 -7.03492 1.3
      vertex 25.4412 -7.51335 24
    endloop
  endfacet
  facet normal -0.425779 0.904827 0
    outer loop
      vertex 25.4412 -7.51335 24
      vertex 26.4579 -7.03492 1.3
      vertex 25.4412 -7.51335 1.3
    endloop
  endfacet
  facet normal 0.535827 0.844328 0
    outer loop
      vertex 26.6363 -7.14813 24
      vertex 26.6363 -7.14813 1.3
      vertex 26.4579 -7.03492 24
    endloop
  endfacet
  facet normal 0.535827 0.844328 0
    outer loop
      vertex 26.4579 -7.03492 24
      vertex 26.6363 -7.14813 1.3
      vertex 26.4579 -7.03492 1.3
    endloop
  endfacet
  facet normal 0.309017 0.951057 0
    outer loop
      vertex 28.5197 -7.76007 24
      vertex 28.5197 -7.76007 1.3
      vertex 26.6363 -7.14813 24
    endloop
  endfacet
  facet normal 0.309017 0.951057 0
    outer loop
      vertex 26.6363 -7.14813 24
      vertex 28.5197 -7.76007 1.3
      vertex 26.6363 -7.14813 1.3
    endloop
  endfacet
  facet normal 0.0627906 0.998027 0
    outer loop
      vertex 30.496 -7.88441 24
      vertex 30.496 -7.88441 1.3
      vertex 28.5197 -7.76007 24
    endloop
  endfacet
  facet normal 0.0627906 0.998027 0
    outer loop
      vertex 28.5197 -7.76007 24
      vertex 30.496 -7.88441 1.3
      vertex 28.5197 -7.76007 1.3
    endloop
  endfacet
  facet normal -0.187381 0.982287 0
    outer loop
      vertex 32.4412 -7.51335 24
      vertex 32.4412 -7.51335 1.3
      vertex 30.496 -7.88441 24
    endloop
  endfacet
  facet normal -0.187381 0.982287 0
    outer loop
      vertex 30.496 -7.88441 24
      vertex 32.4412 -7.51335 1.3
      vertex 30.496 -7.88441 1.3
    endloop
  endfacet
  facet normal -0.425779 0.904827 0
    outer loop
      vertex 34.233 -6.67019 24
      vertex 34.233 -6.67019 1.3
      vertex 32.4412 -7.51335 24
    endloop
  endfacet
  facet normal -0.425779 0.904827 0
    outer loop
      vertex 32.4412 -7.51335 24
      vertex 34.233 -6.67019 1.3
      vertex 32.4412 -7.51335 1.3
    endloop
  endfacet
  facet normal -0.425779 -0.904827 0
    outer loop
      vertex 34.233 6.67019 1.3
      vertex 34.233 6.67019 24
      vertex 32.4412 7.51335 24
    endloop
  endfacet
  facet normal -0.425779 -0.904827 0
    outer loop
      vertex 32.4412 7.51335 1.3
      vertex 34.233 6.67019 1.3
      vertex 32.4412 7.51335 24
    endloop
  endfacet
  facet normal -0.187381 -0.982287 0
    outer loop
      vertex 32.4412 7.51335 1.3
      vertex 32.4412 7.51335 24
      vertex 30.496 7.88441 24
    endloop
  endfacet
  facet normal -0.187381 -0.982287 0
    outer loop
      vertex 30.496 7.88441 1.3
      vertex 32.4412 7.51335 1.3
      vertex 30.496 7.88441 24
    endloop
  endfacet
  facet normal 0.0627906 -0.998027 0
    outer loop
      vertex 30.496 7.88441 1.3
      vertex 30.496 7.88441 24
      vertex 28.5197 7.76007 24
    endloop
  endfacet
  facet normal 0.0627906 -0.998027 0
    outer loop
      vertex 28.5197 7.76007 1.3
      vertex 30.496 7.88441 1.3
      vertex 28.5197 7.76007 24
    endloop
  endfacet
  facet normal 0.309017 -0.951057 0
    outer loop
      vertex 28.5197 7.76007 1.3
      vertex 28.5197 7.76007 24
      vertex 26.6363 7.14813 24
    endloop
  endfacet
  facet normal 0.309017 -0.951057 0
    outer loop
      vertex 26.6363 7.14813 1.3
      vertex 28.5197 7.76007 1.3
      vertex 26.6363 7.14813 24
    endloop
  endfacet
  facet normal 0.535827 -0.844328 0
    outer loop
      vertex 26.6363 7.14813 1.3
      vertex 26.6363 7.14813 24
      vertex 26.4579 7.03492 24
    endloop
  endfacet
  facet normal 0.535827 -0.844328 0
    outer loop
      vertex 26.4579 7.03492 1.3
      vertex 26.6363 7.14813 1.3
      vertex 26.4579 7.03492 24
    endloop
  endfacet
  facet normal -0.425779 -0.904827 0
    outer loop
      vertex 26.4579 7.03492 1.3
      vertex 26.4579 7.03492 24
      vertex 25.4412 7.51335 24
    endloop
  endfacet
  facet normal -0.425779 -0.904827 0
    outer loop
      vertex 25.4412 7.51335 1.3
      vertex 26.4579 7.03492 1.3
      vertex 25.4412 7.51335 24
    endloop
  endfacet
  facet normal -0.187381 -0.982287 0
    outer loop
      vertex 25.4412 7.51335 1.3
      vertex 25.4412 7.51335 24
      vertex 24.5 7.6929 24
    endloop
  endfacet
  facet normal -0.187381 -0.982287 0
    outer loop
      vertex 23.496 7.88441 1.3
      vertex 25.4412 7.51335 1.3
      vertex 24.5 7.6929 1.3
    endloop
  endfacet
  facet normal -0.187381 -0.982287 0
    outer loop
      vertex 24.5 7.6929 1.3
      vertex 25.4412 7.51335 1.3
      vertex 24.5 7.6929 24
    endloop
  endfacet
  facet normal -1 0 0
    outer loop
      vertex 24.5 7.9 24
      vertex 24.5 7.9 1.3
      vertex 24.5 7.6929 24
    endloop
  endfacet
  facet normal -1 0 0
    outer loop
      vertex 24.5 7.6929 24
      vertex 24.5 7.9 1.3
      vertex 24.5 7.6929 1.3
    endloop
  endfacet
endsolid OpenSCAD_Model
