solid OpenSCAD_Model
  facet normal -1 0 0
    outer loop
      vertex 0 11.058 15.4562
      vertex 0 0 20
      vertex 0 25 20
    endloop
  endfacet
  facet normal -1 0 0
    outer loop
      vertex 0 0 0
      vertex 0 0 20
      vertex 0 8.2881 12.5562
    endloop
  endfacet
  facet normal -1 0 0
    outer loop
      vertex 0 8.61052 13
      vertex 0 0 20
      vertex 0 8.2881 13.4438
    endloop
  endfacet
  facet normal -1 0 0
    outer loop
      vertex 0 0 0
      vertex 0 8.2881 12.5562
      vertex 0 8.2881 11.4438
    endloop
  endfacet
  facet normal -1 0 0
    outer loop
      vertex 0 0 0
      vertex 0 8.2881 11.4438
      vertex 0 8.94199 10.5438
    endloop
  endfacet
  facet normal -1 0 0
    outer loop
      vertex 0 0 0
      vertex 0 8.94199 10.5438
      vertex 0 25 0
    endloop
  endfacet
  facet normal -1 0 0
    outer loop
      vertex 0 8.94199 10.5438
      vertex 0 10 10.2
      vertex 0 25 0
    endloop
  endfacet
  facet normal -1 0 0
    outer loop
      vertex 0 11.058 10.5438
      vertex 0 25 0
      vertex 0 10 10.2
    endloop
  endfacet
  facet normal -1 0 0
    outer loop
      vertex 0 11.7119 11.4438
      vertex 0 25 0
      vertex 0 11.058 10.5438
    endloop
  endfacet
  facet normal -1 0 0
    outer loop
      vertex 0 25 0
      vertex 0 11.7119 11.4438
      vertex 0 25 20
    endloop
  endfacet
  facet normal -1 0 0
    outer loop
      vertex 0 8.2881 13.4438
      vertex 0 0 20
      vertex 0 8.2881 14.5562
    endloop
  endfacet
  facet normal -1 0 0
    outer loop
      vertex 0 11.7119 11.4438
      vertex 0 11.7119 12.5562
      vertex 0 25 20
    endloop
  endfacet
  facet normal -1 0 0
    outer loop
      vertex 0 11.7119 12.5562
      vertex 0 11.3895 13
      vertex 0 25 20
    endloop
  endfacet
  facet normal -1 0 0
    outer loop
      vertex 0 11.3895 13
      vertex 0 11.7119 13.4438
      vertex 0 25 20
    endloop
  endfacet
  facet normal -1 0 0
    outer loop
      vertex 0 8.2881 14.5562
      vertex 0 0 20
      vertex 0 8.94199 15.4562
    endloop
  endfacet
  facet normal -1 0 0
    outer loop
      vertex 0 11.7119 13.4438
      vertex 0 11.7119 14.5562
      vertex 0 25 20
    endloop
  endfacet
  facet normal -1 0 0
    outer loop
      vertex 0 10 15.8
      vertex 0 0 20
      vertex 0 11.058 15.4562
    endloop
  endfacet
  facet normal -1 0 0
    outer loop
      vertex 0 11.7119 14.5562
      vertex 0 11.058 15.4562
      vertex 0 25 20
    endloop
  endfacet
  facet normal -1 0 0
    outer loop
      vertex 0 8.94199 15.4562
      vertex 0 0 20
      vertex 0 10 15.8
    endloop
  endfacet
  facet normal -1 0 0
    outer loop
      vertex 0 8.2881 12.5562
      vertex 0 0 20
      vertex 0 8.61052 13
    endloop
  endfacet
  facet normal 0 -1 0
    outer loop
      vertex 8.44377 0 6.2881
      vertex 0 0 0
      vertex 15 0 0
    endloop
  endfacet
  facet normal 0 -1 0
    outer loop
      vertex 0 0 20
      vertex 0 0 0
      vertex 7.2 0 8
    endloop
  endfacet
  facet normal 0 -1 0
    outer loop
      vertex 9.55623 0 6.2881
      vertex 8.44377 0 6.2881
      vertex 15 0 0
    endloop
  endfacet
  facet normal 0 -1 0
    outer loop
      vertex 0 0 20
      vertex 7.2 0 8
      vertex 7.52492 0 9
    endloop
  endfacet
  facet normal 0 -1 0
    outer loop
      vertex 10.8 0 10
      vertex 10.4751 0 9
      vertex 15 0 0
    endloop
  endfacet
  facet normal 0 -1 0
    outer loop
      vertex 0 0 20
      vertex 7.52492 0 9
      vertex 7.2 0 10
    endloop
  endfacet
  facet normal 0 -1 0
    outer loop
      vertex 15 0 20
      vertex 0 0 20
      vertex 7.54377 0 11.058
    endloop
  endfacet
  facet normal 0 -1 0
    outer loop
      vertex 15 0 20
      vertex 7.54377 0 11.058
      vertex 8.44377 0 11.7119
    endloop
  endfacet
  facet normal 0 -1 0
    outer loop
      vertex 10.8 0 8
      vertex 10.4562 0 6.94199
      vertex 15 0 0
    endloop
  endfacet
  facet normal 0 -1 0
    outer loop
      vertex 15 0 20
      vertex 8.44377 0 11.7119
      vertex 9.55623 0 11.7119
    endloop
  endfacet
  facet normal 0 -1 0
    outer loop
      vertex 15 0 20
      vertex 10.4562 0 11.058
      vertex 15 0 0
    endloop
  endfacet
  facet normal 0 -1 0
    outer loop
      vertex 15 0 20
      vertex 9.55623 0 11.7119
      vertex 10.4562 0 11.058
    endloop
  endfacet
  facet normal 0 -1 0
    outer loop
      vertex 10.4562 0 11.058
      vertex 10.8 0 10
      vertex 15 0 0
    endloop
  endfacet
  facet normal 0 -1 0
    outer loop
      vertex 10.4751 0 9
      vertex 10.8 0 8
      vertex 15 0 0
    endloop
  endfacet
  facet normal 0 -1 0
    outer loop
      vertex 7.54377 0 6.94199
      vertex 0 0 0
      vertex 8.44377 0 6.2881
    endloop
  endfacet
  facet normal 0 -1 0
    outer loop
      vertex 7.2 0 8
      vertex 0 0 0
      vertex 7.54377 0 6.94199
    endloop
  endfacet
  facet normal 0 -1 0
    outer loop
      vertex 7.2 0 10
      vertex 7.54377 0 11.058
      vertex 0 0 20
    endloop
  endfacet
  facet normal 0 -1 0
    outer loop
      vertex 10.4562 0 6.94199
      vertex 9.55623 0 6.2881
      vertex 15 0 0
    endloop
  endfacet
  facet normal 0 0 -1
    outer loop
      vertex 0 0 0
      vertex 0 25 0
      vertex 15 0 0
    endloop
  endfacet
  facet normal 0 0 -1
    outer loop
      vertex 15 0 0
      vertex 0 25 0
      vertex 2.67949 25 0
    endloop
  endfacet
  facet normal 0 0 -1
    outer loop
      vertex 15 0 0
      vertex 2.67949 25 0
      vertex 15 3.66025 0
    endloop
  endfacet
  facet normal 0 1 0
    outer loop
      vertex 0 25 0
      vertex 0 25 20
      vertex 2.67949 25 0
    endloop
  endfacet
  facet normal 0 1 0
    outer loop
      vertex 2.67949 25 16
      vertex 0 25 20
      vertex 3 25 20
    endloop
  endfacet
  facet normal 0 1 0
    outer loop
      vertex 2.67949 25 0
      vertex 0 25 20
      vertex 2.67949 25 16
    endloop
  endfacet
  facet normal 0 1 0
    outer loop
      vertex 2.67949 25 16
      vertex 3 25 20
      vertex 3 25 16
    endloop
  endfacet
  facet normal 0 0 1
    outer loop
      vertex 3 3 20
      vertex 0 0 20
      vertex 15 0 20
    endloop
  endfacet
  facet normal 0 0 1
    outer loop
      vertex 3 3 20
      vertex 3 25 20
      vertex 0 25 20
    endloop
  endfacet
  facet normal 0 0 1
    outer loop
      vertex 0 25 20
      vertex 0 0 20
      vertex 3 3 20
    endloop
  endfacet
  facet normal 0 0 1
    outer loop
      vertex 15 3 20
      vertex 3 3 20
      vertex 15 0 20
    endloop
  endfacet
  facet normal 1.30515e-16 0.809017 -0.587786
    outer loop
      vertex 3 8.61052 13
      vertex 3 8.2881 12.5562
      vertex 0 8.61052 13
    endloop
  endfacet
  facet normal 1.30515e-16 0.809017 -0.587786
    outer loop
      vertex 0 8.61052 13
      vertex 3 8.2881 12.5562
      vertex 0 8.2881 12.5562
    endloop
  endfacet
  facet normal 0 1 0
    outer loop
      vertex 3 8.2881 12.5562
      vertex 3 8.2881 11.4438
      vertex 0 8.2881 12.5562
    endloop
  endfacet
  facet normal 0 1 0
    outer loop
      vertex 0 8.2881 12.5562
      vertex 3 8.2881 11.4438
      vertex 0 8.2881 11.4438
    endloop
  endfacet
  facet normal -1.30515e-16 0.809017 0.587786
    outer loop
      vertex 3 8.61052 13
      vertex 0 8.61052 13
      vertex 3 8.2881 13.4438
    endloop
  endfacet
  facet normal -1.30515e-16 0.809017 0.587786
    outer loop
      vertex 3 8.2881 13.4438
      vertex 0 8.61052 13
      vertex 0 8.2881 13.4438
    endloop
  endfacet
  facet normal 0 1 0
    outer loop
      vertex 3 8.2881 14.5562
      vertex 3 8.2881 13.4438
      vertex 0 8.2881 14.5562
    endloop
  endfacet
  facet normal 0 1 0
    outer loop
      vertex 0 8.2881 14.5562
      vertex 3 8.2881 13.4438
      vertex 0 8.2881 13.4438
    endloop
  endfacet
  facet normal 1.30515e-16 0.809017 -0.587786
    outer loop
      vertex 3 8.94199 15.4562
      vertex 3 8.2881 14.5562
      vertex 0 8.94199 15.4562
    endloop
  endfacet
  facet normal 1.30515e-16 0.809017 -0.587786
    outer loop
      vertex 0 8.94199 15.4562
      vertex 3 8.2881 14.5562
      vertex 0 8.2881 14.5562
    endloop
  endfacet
  facet normal 2.11177e-16 0.309017 -0.951057
    outer loop
      vertex 3 10 15.8
      vertex 3 8.94199 15.4562
      vertex 0 10 15.8
    endloop
  endfacet
  facet normal 2.11177e-16 0.309017 -0.951057
    outer loop
      vertex 0 10 15.8
      vertex 3 8.94199 15.4562
      vertex 0 8.94199 15.4562
    endloop
  endfacet
  facet normal 2.11177e-16 -0.309017 -0.951057
    outer loop
      vertex 3 11.058 15.4562
      vertex 3 10 15.8
      vertex 0 11.058 15.4562
    endloop
  endfacet
  facet normal 2.11177e-16 -0.309017 -0.951057
    outer loop
      vertex 0 11.058 15.4562
      vertex 3 10 15.8
      vertex 0 10 15.8
    endloop
  endfacet
  facet normal 1.30515e-16 -0.809017 -0.587786
    outer loop
      vertex 0 11.7119 14.5562
      vertex 3 11.7119 14.5562
      vertex 3 11.058 15.4562
    endloop
  endfacet
  facet normal 1.30515e-16 -0.809017 -0.587786
    outer loop
      vertex 0 11.058 15.4562
      vertex 0 11.7119 14.5562
      vertex 3 11.058 15.4562
    endloop
  endfacet
  facet normal 0 -1 0
    outer loop
      vertex 3 11.7119 13.4438
      vertex 3 11.7119 14.5562
      vertex 0 11.7119 14.5562
    endloop
  endfacet
  facet normal 0 -1 0
    outer loop
      vertex 0 11.7119 13.4438
      vertex 3 11.7119 13.4438
      vertex 0 11.7119 14.5562
    endloop
  endfacet
  facet normal -1.30515e-16 -0.809017 0.587786
    outer loop
      vertex 3 11.3895 13
      vertex 3 11.7119 13.4438
      vertex 0 11.7119 13.4438
    endloop
  endfacet
  facet normal -1.30515e-16 -0.809017 0.587786
    outer loop
      vertex 0 11.3895 13
      vertex 3 11.3895 13
      vertex 0 11.7119 13.4438
    endloop
  endfacet
  facet normal 1.30515e-16 -0.809017 -0.587786
    outer loop
      vertex 0 11.7119 12.5562
      vertex 3 11.7119 12.5562
      vertex 3 11.3895 13
    endloop
  endfacet
  facet normal 1.30515e-16 -0.809017 -0.587786
    outer loop
      vertex 0 11.3895 13
      vertex 0 11.7119 12.5562
      vertex 3 11.3895 13
    endloop
  endfacet
  facet normal 0 -1 0
    outer loop
      vertex 3 11.7119 11.4438
      vertex 3 11.7119 12.5562
      vertex 0 11.7119 12.5562
    endloop
  endfacet
  facet normal 0 -1 0
    outer loop
      vertex 0 11.7119 11.4438
      vertex 3 11.7119 11.4438
      vertex 0 11.7119 12.5562
    endloop
  endfacet
  facet normal -1.30515e-16 -0.809017 0.587786
    outer loop
      vertex 3 11.058 10.5438
      vertex 3 11.7119 11.4438
      vertex 0 11.7119 11.4438
    endloop
  endfacet
  facet normal -1.30515e-16 -0.809017 0.587786
    outer loop
      vertex 0 11.058 10.5438
      vertex 3 11.058 10.5438
      vertex 0 11.7119 11.4438
    endloop
  endfacet
  facet normal -2.11177e-16 -0.309017 0.951057
    outer loop
      vertex 3 10 10.2
      vertex 3 11.058 10.5438
      vertex 0 11.058 10.5438
    endloop
  endfacet
  facet normal -2.11177e-16 -0.309017 0.951057
    outer loop
      vertex 0 10 10.2
      vertex 3 10 10.2
      vertex 0 11.058 10.5438
    endloop
  endfacet
  facet normal -2.11177e-16 0.309017 0.951057
    outer loop
      vertex 3 8.94199 10.5438
      vertex 3 10 10.2
      vertex 0 10 10.2
    endloop
  endfacet
  facet normal -2.11177e-16 0.309017 0.951057
    outer loop
      vertex 0 8.94199 10.5438
      vertex 3 8.94199 10.5438
      vertex 0 10 10.2
    endloop
  endfacet
  facet normal -1.30515e-16 0.809017 0.587786
    outer loop
      vertex 3 8.94199 10.5438
      vertex 0 8.94199 10.5438
      vertex 3 8.2881 11.4438
    endloop
  endfacet
  facet normal -1.30515e-16 0.809017 0.587786
    outer loop
      vertex 3 8.2881 11.4438
      vertex 0 8.94199 10.5438
      vertex 0 8.2881 11.4438
    endloop
  endfacet
  facet normal 1 0 0
    outer loop
      vertex 15 3 3
      vertex 15 0 0
      vertex 15 3.66025 0
    endloop
  endfacet
  facet normal 1 0 0
    outer loop
      vertex 15 3 3
      vertex 15 3 20
      vertex 15 0 20
    endloop
  endfacet
  facet normal 1 0 0
    outer loop
      vertex 15 0 20
      vertex 15 0 0
      vertex 15 3 3
    endloop
  endfacet
  facet normal 1 0 0
    outer loop
      vertex 15 3.66025 3
      vertex 15 3 3
      vertex 15 3.66025 0
    endloop
  endfacet
  facet normal 0.951057 -6.86155e-17 0.309017
    outer loop
      vertex 7.54377 0 6.94199
      vertex 7.54377 3 6.94199
      vertex 7.2 3 8
    endloop
  endfacet
  facet normal 0.951057 -6.86155e-17 0.309017
    outer loop
      vertex 7.2 0 8
      vertex 7.54377 0 6.94199
      vertex 7.2 3 8
    endloop
  endfacet
  facet normal 0.951057 6.86155e-17 -0.309017
    outer loop
      vertex 7.2 3 8
      vertex 7.52492 3 9
      vertex 7.52492 0 9
    endloop
  endfacet
  facet normal 0.951057 6.86155e-17 -0.309017
    outer loop
      vertex 7.2 0 8
      vertex 7.2 3 8
      vertex 7.52492 0 9
    endloop
  endfacet
  facet normal 0.587786 -1.79638e-16 0.809017
    outer loop
      vertex 8.44377 0 6.2881
      vertex 8.44377 3 6.2881
      vertex 7.54377 3 6.94199
    endloop
  endfacet
  facet normal 0.587786 -1.79638e-16 0.809017
    outer loop
      vertex 7.54377 0 6.94199
      vertex 8.44377 0 6.2881
      vertex 7.54377 3 6.94199
    endloop
  endfacet
  facet normal 0 -2.22045e-16 1
    outer loop
      vertex 9.55623 0 6.2881
      vertex 9.55623 3 6.2881
      vertex 8.44377 3 6.2881
    endloop
  endfacet
  facet normal 0 -2.22045e-16 1
    outer loop
      vertex 8.44377 0 6.2881
      vertex 9.55623 0 6.2881
      vertex 8.44377 3 6.2881
    endloop
  endfacet
  facet normal -0.587786 -1.79638e-16 0.809017
    outer loop
      vertex 10.4562 0 6.94199
      vertex 10.4562 3 6.94199
      vertex 9.55623 3 6.2881
    endloop
  endfacet
  facet normal -0.587786 -1.79638e-16 0.809017
    outer loop
      vertex 9.55623 0 6.2881
      vertex 10.4562 0 6.94199
      vertex 9.55623 3 6.2881
    endloop
  endfacet
  facet normal -0.951057 -6.86155e-17 0.309017
    outer loop
      vertex 10.8 3 8
      vertex 10.4562 3 6.94199
      vertex 10.8 0 8
    endloop
  endfacet
  facet normal -0.951057 -6.86155e-17 0.309017
    outer loop
      vertex 10.8 0 8
      vertex 10.4562 3 6.94199
      vertex 10.4562 0 6.94199
    endloop
  endfacet
  facet normal -0.951057 6.86155e-17 -0.309017
    outer loop
      vertex 10.8 3 8
      vertex 10.8 0 8
      vertex 10.4751 3 9
    endloop
  endfacet
  facet normal -0.951057 6.86155e-17 -0.309017
    outer loop
      vertex 10.4751 3 9
      vertex 10.8 0 8
      vertex 10.4751 0 9
    endloop
  endfacet
  facet normal -0.951057 -6.86155e-17 0.309017
    outer loop
      vertex 10.8 3 10
      vertex 10.4751 3 9
      vertex 10.8 0 10
    endloop
  endfacet
  facet normal -0.951057 -6.86155e-17 0.309017
    outer loop
      vertex 10.8 0 10
      vertex 10.4751 3 9
      vertex 10.4751 0 9
    endloop
  endfacet
  facet normal -0.951057 6.86155e-17 -0.309017
    outer loop
      vertex 10.8 3 10
      vertex 10.8 0 10
      vertex 10.4562 3 11.058
    endloop
  endfacet
  facet normal -0.951057 6.86155e-17 -0.309017
    outer loop
      vertex 10.4562 3 11.058
      vertex 10.8 0 10
      vertex 10.4562 0 11.058
    endloop
  endfacet
  facet normal -0.587786 1.79638e-16 -0.809017
    outer loop
      vertex 10.4562 3 11.058
      vertex 10.4562 0 11.058
      vertex 9.55623 3 11.7119
    endloop
  endfacet
  facet normal -0.587786 1.79638e-16 -0.809017
    outer loop
      vertex 9.55623 3 11.7119
      vertex 10.4562 0 11.058
      vertex 9.55623 0 11.7119
    endloop
  endfacet
  facet normal 0 2.22045e-16 -1
    outer loop
      vertex 9.55623 3 11.7119
      vertex 9.55623 0 11.7119
      vertex 8.44377 3 11.7119
    endloop
  endfacet
  facet normal 0 2.22045e-16 -1
    outer loop
      vertex 8.44377 3 11.7119
      vertex 9.55623 0 11.7119
      vertex 8.44377 0 11.7119
    endloop
  endfacet
  facet normal 0.587786 1.79638e-16 -0.809017
    outer loop
      vertex 8.44377 3 11.7119
      vertex 8.44377 0 11.7119
      vertex 7.54377 3 11.058
    endloop
  endfacet
  facet normal 0.587786 1.79638e-16 -0.809017
    outer loop
      vertex 7.54377 3 11.058
      vertex 8.44377 0 11.7119
      vertex 7.54377 0 11.058
    endloop
  endfacet
  facet normal 0.951057 6.86155e-17 -0.309017
    outer loop
      vertex 7.2 3 10
      vertex 7.54377 3 11.058
      vertex 7.54377 0 11.058
    endloop
  endfacet
  facet normal 0.951057 6.86155e-17 -0.309017
    outer loop
      vertex 7.2 0 10
      vertex 7.2 3 10
      vertex 7.54377 0 11.058
    endloop
  endfacet
  facet normal 0.951057 -6.86155e-17 0.309017
    outer loop
      vertex 7.52492 0 9
      vertex 7.52492 3 9
      vertex 7.2 3 10
    endloop
  endfacet
  facet normal 0.951057 -6.86155e-17 0.309017
    outer loop
      vertex 7.2 0 10
      vertex 7.52492 0 9
      vertex 7.2 3 10
    endloop
  endfacet
  facet normal 0.866025 0.5 0
    outer loop
      vertex 2.67949 25 16
      vertex 3 24.4449 16
      vertex 3 24.4449 3
    endloop
  endfacet
  facet normal 0.866025 0.5 0
    outer loop
      vertex 2.67949 25 0
      vertex 2.67949 25 16
      vertex 3 24.4449 3
    endloop
  endfacet
  facet normal 0.866025 0.5 0
    outer loop
      vertex 15 3.66025 3
      vertex 15 3.66025 0
      vertex 3 24.4449 3
    endloop
  endfacet
  facet normal 0.866025 0.5 0
    outer loop
      vertex 15 3.66025 0
      vertex 2.67949 25 0
      vertex 3 24.4449 3
    endloop
  endfacet
  facet normal 0 0 -1
    outer loop
      vertex 3 25 16
      vertex 3 24.4449 16
      vertex 2.67949 25 16
    endloop
  endfacet
  facet normal 1 0 0
    outer loop
      vertex 3 25 20
      vertex 3 24.4449 16
      vertex 3 25 16
    endloop
  endfacet
  facet normal 1 0 0
    outer loop
      vertex 3 3 20
      vertex 3 24.4449 16
      vertex 3 25 20
    endloop
  endfacet
  facet normal 1 0 0
    outer loop
      vertex 3 10 15.8
      vertex 3 24.4449 16
      vertex 3 3 20
    endloop
  endfacet
  facet normal 1 0 0
    outer loop
      vertex 3 10 15.8
      vertex 3 11.058 15.4562
      vertex 3 24.4449 16
    endloop
  endfacet
  facet normal 1 0 0
    outer loop
      vertex 3 3 3
      vertex 3 8.2881 12.5562
      vertex 3 3 20
    endloop
  endfacet
  facet normal 1 0 0
    outer loop
      vertex 3 8.2881 12.5562
      vertex 3 8.61052 13
      vertex 3 3 20
    endloop
  endfacet
  facet normal 1 0 0
    outer loop
      vertex 3 8.61052 13
      vertex 3 8.2881 13.4438
      vertex 3 3 20
    endloop
  endfacet
  facet normal 1 0 0
    outer loop
      vertex 3 8.2881 13.4438
      vertex 3 8.2881 14.5562
      vertex 3 3 20
    endloop
  endfacet
  facet normal 1 0 0
    outer loop
      vertex 3 8.94199 15.4562
      vertex 3 10 15.8
      vertex 3 3 20
    endloop
  endfacet
  facet normal 1 0 0
    outer loop
      vertex 3 11.7119 13.4438
      vertex 3 11.3895 13
      vertex 3 24.4449 3
    endloop
  endfacet
  facet normal 1 0 0
    outer loop
      vertex 3 24.4449 3
      vertex 3 24.4449 16
      vertex 3 11.058 15.4562
    endloop
  endfacet
  facet normal 1 0 0
    outer loop
      vertex 3 24.4449 3
      vertex 3 11.058 15.4562
      vertex 3 11.7119 14.5562
    endloop
  endfacet
  facet normal 1 0 0
    outer loop
      vertex 3 11.7119 12.5562
      vertex 3 11.7119 11.4438
      vertex 3 24.4449 3
    endloop
  endfacet
  facet normal 1 0 0
    outer loop
      vertex 3 24.4449 3
      vertex 3 11.7119 14.5562
      vertex 3 11.7119 13.4438
    endloop
  endfacet
  facet normal 1 0 0
    outer loop
      vertex 3 11.7119 12.5562
      vertex 3 24.4449 3
      vertex 3 11.3895 13
    endloop
  endfacet
  facet normal 1 0 0
    outer loop
      vertex 3 3 3
      vertex 3 24.4449 3
      vertex 3 11.058 10.5438
    endloop
  endfacet
  facet normal 1 0 0
    outer loop
      vertex 3 3 3
      vertex 3 11.058 10.5438
      vertex 3 10 10.2
    endloop
  endfacet
  facet normal 1 0 0
    outer loop
      vertex 3 3 3
      vertex 3 10 10.2
      vertex 3 8.94199 10.5438
    endloop
  endfacet
  facet normal 1 0 0
    outer loop
      vertex 3 3 3
      vertex 3 8.2881 11.4438
      vertex 3 8.2881 12.5562
    endloop
  endfacet
  facet normal 1 0 0
    outer loop
      vertex 3 3 3
      vertex 3 8.94199 10.5438
      vertex 3 8.2881 11.4438
    endloop
  endfacet
  facet normal 1 0 0
    outer loop
      vertex 3 8.2881 14.5562
      vertex 3 8.94199 15.4562
      vertex 3 3 20
    endloop
  endfacet
  facet normal 1 0 0
    outer loop
      vertex 3 11.7119 11.4438
      vertex 3 11.058 10.5438
      vertex 3 24.4449 3
    endloop
  endfacet
  facet normal 0 1 0
    outer loop
      vertex 8.44377 3 11.7119
      vertex 3 3 20
      vertex 9.55623 3 11.7119
    endloop
  endfacet
  facet normal 0 1 0
    outer loop
      vertex 8.44377 3 6.2881
      vertex 15 3 3
      vertex 3 3 3
    endloop
  endfacet
  facet normal 0 1 0
    outer loop
      vertex 10.8 3 10
      vertex 15 3 3
      vertex 10.4751 3 9
    endloop
  endfacet
  facet normal 0 1 0
    outer loop
      vertex 3 3 20
      vertex 7.2 3 8
      vertex 3 3 3
    endloop
  endfacet
  facet normal 0 1 0
    outer loop
      vertex 10.4562 3 6.94199
      vertex 15 3 3
      vertex 9.55623 3 6.2881
    endloop
  endfacet
  facet normal 0 1 0
    outer loop
      vertex 7.2 3 8
      vertex 7.54377 3 6.94199
      vertex 3 3 3
    endloop
  endfacet
  facet normal 0 1 0
    outer loop
      vertex 7.54377 3 6.94199
      vertex 8.44377 3 6.2881
      vertex 3 3 3
    endloop
  endfacet
  facet normal 0 1 0
    outer loop
      vertex 10.8 3 8
      vertex 15 3 3
      vertex 10.4562 3 6.94199
    endloop
  endfacet
  facet normal 0 1 0
    outer loop
      vertex 10.4751 3 9
      vertex 15 3 3
      vertex 10.8 3 8
    endloop
  endfacet
  facet normal 0 1 0
    outer loop
      vertex 15 3 20
      vertex 15 3 3
      vertex 10.8 3 10
    endloop
  endfacet
  facet normal 0 1 0
    outer loop
      vertex 15 3 20
      vertex 10.8 3 10
      vertex 10.4562 3 11.058
    endloop
  endfacet
  facet normal 0 1 0
    outer loop
      vertex 15 3 20
      vertex 10.4562 3 11.058
      vertex 3 3 20
    endloop
  endfacet
  facet normal 0 1 0
    outer loop
      vertex 10.4562 3 11.058
      vertex 9.55623 3 11.7119
      vertex 3 3 20
    endloop
  endfacet
  facet normal 0 1 0
    outer loop
      vertex 7.54377 3 11.058
      vertex 3 3 20
      vertex 8.44377 3 11.7119
    endloop
  endfacet
  facet normal 0 1 0
    outer loop
      vertex 7.52492 3 9
      vertex 7.2 3 8
      vertex 7.2 3 10
    endloop
  endfacet
  facet normal 0 1 0
    outer loop
      vertex 3 3 20
      vertex 7.54377 3 11.058
      vertex 7.2 3 10
    endloop
  endfacet
  facet normal 0 1 0
    outer loop
      vertex 3 3 20
      vertex 7.2 3 10
      vertex 7.2 3 8
    endloop
  endfacet
  facet normal 0 1 0
    outer loop
      vertex 9.55623 3 6.2881
      vertex 15 3 3
      vertex 8.44377 3 6.2881
    endloop
  endfacet
  facet normal 0 0 1
    outer loop
      vertex 15 3 3
      vertex 15 3.66025 3
      vertex 3 24.4449 3
    endloop
  endfacet
  facet normal 0 0 1
    outer loop
      vertex 3 3 3
      vertex 15 3 3
      vertex 3 24.4449 3
    endloop
  endfacet
  facet normal -1 0 0
    outer loop
      vertex -17 3 20
      vertex -17 3 3
      vertex -17 0 20
    endloop
  endfacet
  facet normal -1 0 0
    outer loop
      vertex -17 3.66025 0
      vertex -17 3 3
      vertex -17 3.66025 3
    endloop
  endfacet
  facet normal -1 0 0
    outer loop
      vertex -17 0 0
      vertex -17 3 3
      vertex -17 3.66025 0
    endloop
  endfacet
  facet normal -1 0 0
    outer loop
      vertex -17 0 20
      vertex -17 3 3
      vertex -17 0 0
    endloop
  endfacet
  facet normal 0 -1 0
    outer loop
      vertex -10.4438 0 11.7119
      vertex -2 0 20
      vertex -17 0 20
    endloop
  endfacet
  facet normal 0 -1 0
    outer loop
      vertex -17 0 0
      vertex -12.4751 0 9
      vertex -17 0 20
    endloop
  endfacet
  facet normal 0 -1 0
    outer loop
      vertex -12.4751 0 9
      vertex -12.8 0 10
      vertex -17 0 20
    endloop
  endfacet
  facet normal 0 -1 0
    outer loop
      vertex -12.8 0 10
      vertex -12.4562 0 11.058
      vertex -17 0 20
    endloop
  endfacet
  facet normal 0 -1 0
    outer loop
      vertex -9.54377 0 6.94199
      vertex -10.4438 0 6.2881
      vertex -2 0 0
    endloop
  endfacet
  facet normal 0 -1 0
    outer loop
      vertex -12.4562 0 11.058
      vertex -11.5562 0 11.7119
      vertex -17 0 20
    endloop
  endfacet
  facet normal 0 -1 0
    outer loop
      vertex -9.54377 0 11.058
      vertex -2 0 20
      vertex -10.4438 0 11.7119
    endloop
  endfacet
  facet normal 0 -1 0
    outer loop
      vertex -2 0 0
      vertex -2 0 20
      vertex -9.54377 0 11.058
    endloop
  endfacet
  facet normal 0 -1 0
    outer loop
      vertex -9.2 0 8
      vertex -9.54377 0 6.94199
      vertex -2 0 0
    endloop
  endfacet
  facet normal 0 -1 0
    outer loop
      vertex -2 0 0
      vertex -9.54377 0 11.058
      vertex -9.2 0 10
    endloop
  endfacet
  facet normal 0 -1 0
    outer loop
      vertex -9.2 0 8
      vertex -2 0 0
      vertex -9.52492 0 9
    endloop
  endfacet
  facet normal 0 -1 0
    outer loop
      vertex -17 0 0
      vertex -2 0 0
      vertex -10.4438 0 6.2881
    endloop
  endfacet
  facet normal 0 -1 0
    outer loop
      vertex -17 0 0
      vertex -10.4438 0 6.2881
      vertex -11.5562 0 6.2881
    endloop
  endfacet
  facet normal 0 -1 0
    outer loop
      vertex -17 0 0
      vertex -11.5562 0 6.2881
      vertex -12.4562 0 6.94199
    endloop
  endfacet
  facet normal 0 -1 0
    outer loop
      vertex -17 0 0
      vertex -12.8 0 8
      vertex -12.4751 0 9
    endloop
  endfacet
  facet normal 0 -1 0
    outer loop
      vertex -17 0 0
      vertex -12.4562 0 6.94199
      vertex -12.8 0 8
    endloop
  endfacet
  facet normal 0 -1 0
    outer loop
      vertex -11.5562 0 11.7119
      vertex -10.4438 0 11.7119
      vertex -17 0 20
    endloop
  endfacet
  facet normal 0 -1 0
    outer loop
      vertex -9.2 0 10
      vertex -9.52492 0 9
      vertex -2 0 0
    endloop
  endfacet
  facet normal 0 0 -1
    outer loop
      vertex -4.67949 25 0
      vertex -2 25 0
      vertex -17 3.66025 0
    endloop
  endfacet
  facet normal 0 0 -1
    outer loop
      vertex -17 3.66025 0
      vertex -2 25 0
      vertex -2 0 0
    endloop
  endfacet
  facet normal 0 0 -1
    outer loop
      vertex -17 3.66025 0
      vertex -2 0 0
      vertex -17 0 0
    endloop
  endfacet
  facet normal 0 0 1
    outer loop
      vertex -2 0 20
      vertex -2 25 20
      vertex -5 25 20
    endloop
  endfacet
  facet normal 0 0 1
    outer loop
      vertex -17 3 20
      vertex -2 0 20
      vertex -5 3 20
    endloop
  endfacet
  facet normal 0 0 1
    outer loop
      vertex -5 3 20
      vertex -2 0 20
      vertex -5 25 20
    endloop
  endfacet
  facet normal 0 0 1
    outer loop
      vertex -17 0 20
      vertex -2 0 20
      vertex -17 3 20
    endloop
  endfacet
  facet normal -0.866025 0.5 0
    outer loop
      vertex -17 3.66025 0
      vertex -17 3.66025 3
      vertex -4.67949 25 0
    endloop
  endfacet
  facet normal -0.866025 0.5 0
    outer loop
      vertex -4.67949 25 0
      vertex -17 3.66025 3
      vertex -5 24.4449 3
    endloop
  endfacet
  facet normal -0.866025 0.5 0
    outer loop
      vertex -4.67949 25 0
      vertex -5 24.4449 3
      vertex -5 24.4449 16
    endloop
  endfacet
  facet normal -0.866025 0.5 0
    outer loop
      vertex -4.67949 25 0
      vertex -5 24.4449 16
      vertex -4.67949 25 16
    endloop
  endfacet
  facet normal 0 0 1
    outer loop
      vertex -17 3.66025 3
      vertex -17 3 3
      vertex -5 3 3
    endloop
  endfacet
  facet normal 0 0 1
    outer loop
      vertex -5 24.4449 3
      vertex -17 3.66025 3
      vertex -5 3 3
    endloop
  endfacet
  facet normal 0 1 0
    outer loop
      vertex -9.54377 3 11.058
      vertex -17 3 20
      vertex -5 3 20
    endloop
  endfacet
  facet normal 0 1 0
    outer loop
      vertex -17 3 3
      vertex -17 3 20
      vertex -12.4751 3 9
    endloop
  endfacet
  facet normal 0 1 0
    outer loop
      vertex -17 3 3
      vertex -12.4751 3 9
      vertex -12.8 3 8
    endloop
  endfacet
  facet normal 0 1 0
    outer loop
      vertex -17 3 3
      vertex -12.8 3 8
      vertex -12.4562 3 6.94199
    endloop
  endfacet
  facet normal 0 1 0
    outer loop
      vertex -17 3 3
      vertex -12.4562 3 6.94199
      vertex -11.5562 3 6.2881
    endloop
  endfacet
  facet normal 0 1 0
    outer loop
      vertex -17 3 3
      vertex -11.5562 3 6.2881
      vertex -5 3 3
    endloop
  endfacet
  facet normal 0 1 0
    outer loop
      vertex -9.54377 3 6.94199
      vertex -5 3 3
      vertex -10.4438 3 6.2881
    endloop
  endfacet
  facet normal 0 1 0
    outer loop
      vertex -9.2 3 10
      vertex -5 3 3
      vertex -9.52492 3 9
    endloop
  endfacet
  facet normal 0 1 0
    outer loop
      vertex -9.54377 3 6.94199
      vertex -9.2 3 8
      vertex -5 3 3
    endloop
  endfacet
  facet normal 0 1 0
    outer loop
      vertex -12.4562 3 11.058
      vertex -17 3 20
      vertex -11.5562 3 11.7119
    endloop
  endfacet
  facet normal 0 1 0
    outer loop
      vertex -9.2 3 8
      vertex -9.52492 3 9
      vertex -5 3 3
    endloop
  endfacet
  facet normal 0 1 0
    outer loop
      vertex -11.5562 3 11.7119
      vertex -17 3 20
      vertex -10.4438 3 11.7119
    endloop
  endfacet
  facet normal 0 1 0
    outer loop
      vertex -5 3 3
      vertex -9.2 3 10
      vertex -5 3 20
    endloop
  endfacet
  facet normal 0 1 0
    outer loop
      vertex -10.4438 3 11.7119
      vertex -17 3 20
      vertex -9.54377 3 11.058
    endloop
  endfacet
  facet normal 0 1 0
    outer loop
      vertex -9.2 3 10
      vertex -9.54377 3 11.058
      vertex -5 3 20
    endloop
  endfacet
  facet normal 0 1 0
    outer loop
      vertex -12.8 3 10
      vertex -17 3 20
      vertex -12.4562 3 11.058
    endloop
  endfacet
  facet normal 0 1 0
    outer loop
      vertex -12.4751 3 9
      vertex -17 3 20
      vertex -12.8 3 10
    endloop
  endfacet
  facet normal 0 1 0
    outer loop
      vertex -10.4438 3 6.2881
      vertex -5 3 3
      vertex -11.5562 3 6.2881
    endloop
  endfacet
  facet normal 1 0 0
    outer loop
      vertex -2 10 15.8
      vertex -2 25 20
      vertex -2 0 20
    endloop
  endfacet
  facet normal 1 0 0
    outer loop
      vertex -2 0 0
      vertex -2 8.2881 12.5562
      vertex -2 0 20
    endloop
  endfacet
  facet normal 1 0 0
    outer loop
      vertex -2 8.2881 12.5562
      vertex -2 8.61052 13
      vertex -2 0 20
    endloop
  endfacet
  facet normal 1 0 0
    outer loop
      vertex -2 8.2881 13.4438
      vertex -2 8.2881 14.5562
      vertex -2 0 20
    endloop
  endfacet
  facet normal 1 0 0
    outer loop
      vertex -2 8.2881 14.5562
      vertex -2 8.94199 15.4562
      vertex -2 0 20
    endloop
  endfacet
  facet normal 1 0 0
    outer loop
      vertex -2 11.058 15.4562
      vertex -2 11.7119 14.5562
      vertex -2 25 20
    endloop
  endfacet
  facet normal 1 0 0
    outer loop
      vertex -2 8.94199 15.4562
      vertex -2 10 15.8
      vertex -2 0 20
    endloop
  endfacet
  facet normal 1 0 0
    outer loop
      vertex -2 11.7119 11.4438
      vertex -2 11.058 10.5438
      vertex -2 25 0
    endloop
  endfacet
  facet normal 1 0 0
    outer loop
      vertex -2 25 0
      vertex -2 25 20
      vertex -2 11.7119 14.5562
    endloop
  endfacet
  facet normal 1 0 0
    outer loop
      vertex -2 25 0
      vertex -2 11.7119 14.5562
      vertex -2 11.7119 13.4438
    endloop
  endfacet
  facet normal 1 0 0
    outer loop
      vertex -2 25 0
      vertex -2 11.7119 13.4438
      vertex -2 11.3895 13
    endloop
  endfacet
  facet normal 1 0 0
    outer loop
      vertex -2 25 0
      vertex -2 11.3895 13
      vertex -2 11.7119 12.5562
    endloop
  endfacet
  facet normal 1 0 0
    outer loop
      vertex -2 25 0
      vertex -2 11.7119 12.5562
      vertex -2 11.7119 11.4438
    endloop
  endfacet
  facet normal 1 0 0
    outer loop
      vertex -2 0 0
      vertex -2 25 0
      vertex -2 10 10.2
    endloop
  endfacet
  facet normal 1 0 0
    outer loop
      vertex -2 0 0
      vertex -2 10 10.2
      vertex -2 8.94199 10.5438
    endloop
  endfacet
  facet normal 1 0 0
    outer loop
      vertex -2 0 0
      vertex -2 8.2881 11.4438
      vertex -2 8.2881 12.5562
    endloop
  endfacet
  facet normal 1 0 0
    outer loop
      vertex -2 0 0
      vertex -2 8.94199 10.5438
      vertex -2 8.2881 11.4438
    endloop
  endfacet
  facet normal 1 0 0
    outer loop
      vertex -2 11.058 10.5438
      vertex -2 10 10.2
      vertex -2 25 0
    endloop
  endfacet
  facet normal 1 0 0
    outer loop
      vertex -2 8.61052 13
      vertex -2 8.2881 13.4438
      vertex -2 0 20
    endloop
  endfacet
  facet normal 1 0 0
    outer loop
      vertex -2 10 15.8
      vertex -2 11.058 15.4562
      vertex -2 25 20
    endloop
  endfacet
  facet normal 0.951057 6.86155e-17 -0.309017
    outer loop
      vertex -12.4751 0 9
      vertex -12.8 0 8
      vertex -12.8 3 8
    endloop
  endfacet
  facet normal 0.951057 6.86155e-17 -0.309017
    outer loop
      vertex -12.4751 3 9
      vertex -12.4751 0 9
      vertex -12.8 3 8
    endloop
  endfacet
  facet normal 0.951057 -6.86155e-17 0.309017
    outer loop
      vertex -12.8 3 10
      vertex -12.8 0 10
      vertex -12.4751 0 9
    endloop
  endfacet
  facet normal 0.951057 -6.86155e-17 0.309017
    outer loop
      vertex -12.4751 3 9
      vertex -12.8 3 10
      vertex -12.4751 0 9
    endloop
  endfacet
  facet normal 0.951057 -6.86155e-17 0.309017
    outer loop
      vertex -12.8 3 8
      vertex -12.8 0 8
      vertex -12.4562 0 6.94199
    endloop
  endfacet
  facet normal 0.951057 -6.86155e-17 0.309017
    outer loop
      vertex -12.4562 3 6.94199
      vertex -12.8 3 8
      vertex -12.4562 0 6.94199
    endloop
  endfacet
  facet normal 0.587786 -1.79638e-16 0.809017
    outer loop
      vertex -12.4562 3 6.94199
      vertex -12.4562 0 6.94199
      vertex -11.5562 0 6.2881
    endloop
  endfacet
  facet normal 0.587786 -1.79638e-16 0.809017
    outer loop
      vertex -11.5562 3 6.2881
      vertex -12.4562 3 6.94199
      vertex -11.5562 0 6.2881
    endloop
  endfacet
  facet normal 0 -2.22045e-16 1
    outer loop
      vertex -11.5562 3 6.2881
      vertex -11.5562 0 6.2881
      vertex -10.4438 0 6.2881
    endloop
  endfacet
  facet normal 0 -2.22045e-16 1
    outer loop
      vertex -10.4438 3 6.2881
      vertex -11.5562 3 6.2881
      vertex -10.4438 0 6.2881
    endloop
  endfacet
  facet normal -0.587786 -1.79638e-16 0.809017
    outer loop
      vertex -10.4438 3 6.2881
      vertex -10.4438 0 6.2881
      vertex -9.54377 0 6.94199
    endloop
  endfacet
  facet normal -0.587786 -1.79638e-16 0.809017
    outer loop
      vertex -9.54377 3 6.94199
      vertex -10.4438 3 6.2881
      vertex -9.54377 0 6.94199
    endloop
  endfacet
  facet normal -0.951057 -6.86155e-17 0.309017
    outer loop
      vertex -9.54377 0 6.94199
      vertex -9.2 0 8
      vertex -9.54377 3 6.94199
    endloop
  endfacet
  facet normal -0.951057 -6.86155e-17 0.309017
    outer loop
      vertex -9.54377 3 6.94199
      vertex -9.2 0 8
      vertex -9.2 3 8
    endloop
  endfacet
  facet normal -0.951057 6.86155e-17 -0.309017
    outer loop
      vertex -9.52492 0 9
      vertex -9.52492 3 9
      vertex -9.2 0 8
    endloop
  endfacet
  facet normal -0.951057 6.86155e-17 -0.309017
    outer loop
      vertex -9.2 0 8
      vertex -9.52492 3 9
      vertex -9.2 3 8
    endloop
  endfacet
  facet normal -0.951057 -6.86155e-17 0.309017
    outer loop
      vertex -9.52492 0 9
      vertex -9.2 0 10
      vertex -9.52492 3 9
    endloop
  endfacet
  facet normal -0.951057 -6.86155e-17 0.309017
    outer loop
      vertex -9.52492 3 9
      vertex -9.2 0 10
      vertex -9.2 3 10
    endloop
  endfacet
  facet normal -0.951057 6.86155e-17 -0.309017
    outer loop
      vertex -9.54377 0 11.058
      vertex -9.54377 3 11.058
      vertex -9.2 0 10
    endloop
  endfacet
  facet normal -0.951057 6.86155e-17 -0.309017
    outer loop
      vertex -9.2 0 10
      vertex -9.54377 3 11.058
      vertex -9.2 3 10
    endloop
  endfacet
  facet normal -0.587786 1.79638e-16 -0.809017
    outer loop
      vertex -10.4438 0 11.7119
      vertex -10.4438 3 11.7119
      vertex -9.54377 0 11.058
    endloop
  endfacet
  facet normal -0.587786 1.79638e-16 -0.809017
    outer loop
      vertex -9.54377 0 11.058
      vertex -10.4438 3 11.7119
      vertex -9.54377 3 11.058
    endloop
  endfacet
  facet normal 0 2.22045e-16 -1
    outer loop
      vertex -11.5562 0 11.7119
      vertex -11.5562 3 11.7119
      vertex -10.4438 0 11.7119
    endloop
  endfacet
  facet normal 0 2.22045e-16 -1
    outer loop
      vertex -10.4438 0 11.7119
      vertex -11.5562 3 11.7119
      vertex -10.4438 3 11.7119
    endloop
  endfacet
  facet normal 0.587786 1.79638e-16 -0.809017
    outer loop
      vertex -12.4562 0 11.058
      vertex -12.4562 3 11.058
      vertex -11.5562 0 11.7119
    endloop
  endfacet
  facet normal 0.587786 1.79638e-16 -0.809017
    outer loop
      vertex -11.5562 0 11.7119
      vertex -12.4562 3 11.058
      vertex -11.5562 3 11.7119
    endloop
  endfacet
  facet normal 0.951057 6.86155e-17 -0.309017
    outer loop
      vertex -12.4562 0 11.058
      vertex -12.8 0 10
      vertex -12.8 3 10
    endloop
  endfacet
  facet normal 0.951057 6.86155e-17 -0.309017
    outer loop
      vertex -12.4562 3 11.058
      vertex -12.4562 0 11.058
      vertex -12.8 3 10
    endloop
  endfacet
  facet normal 0 1 0
    outer loop
      vertex -2 25 20
      vertex -2 25 0
      vertex -5 25 20
    endloop
  endfacet
  facet normal 0 1 0
    outer loop
      vertex -4.67949 25 16
      vertex -2 25 0
      vertex -4.67949 25 0
    endloop
  endfacet
  facet normal 0 1 0
    outer loop
      vertex -5 25 20
      vertex -2 25 0
      vertex -4.67949 25 16
    endloop
  endfacet
  facet normal 0 1 0
    outer loop
      vertex -5 25 16
      vertex -5 25 20
      vertex -4.67949 25 16
    endloop
  endfacet
  facet normal -1 0 0
    outer loop
      vertex -5 24.4449 16
      vertex -5 3 20
      vertex -5 25 20
    endloop
  endfacet
  facet normal -1 0 0
    outer loop
      vertex -5 11.058 15.4562
      vertex -5 3 20
      vertex -5 24.4449 16
    endloop
  endfacet
  facet normal -1 0 0
    outer loop
      vertex -5 11.058 10.5438
      vertex -5 24.4449 3
      vertex -5 10 10.2
    endloop
  endfacet
  facet normal -1 0 0
    outer loop
      vertex -5 3 3
      vertex -5 3 20
      vertex -5 8.2881 12.5562
    endloop
  endfacet
  facet normal -1 0 0
    outer loop
      vertex -5 3 3
      vertex -5 8.2881 12.5562
      vertex -5 8.2881 11.4438
    endloop
  endfacet
  facet normal -1 0 0
    outer loop
      vertex -5 3 3
      vertex -5 8.2881 11.4438
      vertex -5 8.94199 10.5438
    endloop
  endfacet
  facet normal -1 0 0
    outer loop
      vertex -5 3 3
      vertex -5 8.94199 10.5438
      vertex -5 24.4449 3
    endloop
  endfacet
  facet normal -1 0 0
    outer loop
      vertex -5 8.94199 10.5438
      vertex -5 10 10.2
      vertex -5 24.4449 3
    endloop
  endfacet
  facet normal -1 0 0
    outer loop
      vertex -5 11.7119 11.4438
      vertex -5 24.4449 3
      vertex -5 11.058 10.5438
    endloop
  endfacet
  facet normal -1 0 0
    outer loop
      vertex -5 11.7119 13.4438
      vertex -5 24.4449 3
      vertex -5 11.3895 13
    endloop
  endfacet
  facet normal -1 0 0
    outer loop
      vertex -5 11.7119 11.4438
      vertex -5 11.7119 12.5562
      vertex -5 24.4449 3
    endloop
  endfacet
  facet normal -1 0 0
    outer loop
      vertex -5 11.7119 12.5562
      vertex -5 11.3895 13
      vertex -5 24.4449 3
    endloop
  endfacet
  facet normal -1 0 0
    outer loop
      vertex -5 8.2881 14.5562
      vertex -5 3 20
      vertex -5 8.94199 15.4562
    endloop
  endfacet
  facet normal -1 0 0
    outer loop
      vertex -5 24.4449 3
      vertex -5 11.7119 13.4438
      vertex -5 24.4449 16
    endloop
  endfacet
  facet normal -1 0 0
    outer loop
      vertex -5 11.7119 13.4438
      vertex -5 11.7119 14.5562
      vertex -5 24.4449 16
    endloop
  endfacet
  facet normal -1 0 0
    outer loop
      vertex -5 10 15.8
      vertex -5 3 20
      vertex -5 11.058 15.4562
    endloop
  endfacet
  facet normal -1 0 0
    outer loop
      vertex -5 11.7119 14.5562
      vertex -5 11.058 15.4562
      vertex -5 24.4449 16
    endloop
  endfacet
  facet normal -1 0 0
    outer loop
      vertex -5 8.94199 15.4562
      vertex -5 3 20
      vertex -5 10 15.8
    endloop
  endfacet
  facet normal -1 0 0
    outer loop
      vertex -5 8.2881 13.4438
      vertex -5 3 20
      vertex -5 8.2881 14.5562
    endloop
  endfacet
  facet normal -1 0 0
    outer loop
      vertex -5 8.2881 12.5562
      vertex -5 3 20
      vertex -5 8.2881 13.4438
    endloop
  endfacet
  facet normal -1 0 0
    outer loop
      vertex -5 8.2881 12.5562
      vertex -5 8.2881 13.4438
      vertex -5 8.61052 13
    endloop
  endfacet
  facet normal -1 0 0
    outer loop
      vertex -5 24.4449 16
      vertex -5 25 20
      vertex -5 25 16
    endloop
  endfacet
  facet normal 0 0 -1
    outer loop
      vertex -4.67949 25 16
      vertex -5 24.4449 16
      vertex -5 25 16
    endloop
  endfacet
  facet normal -1.30515e-16 0.809017 -0.587786
    outer loop
      vertex -5 8.2881 12.5562
      vertex -5 8.61052 13
      vertex -2 8.2881 12.5562
    endloop
  endfacet
  facet normal -1.30515e-16 0.809017 -0.587786
    outer loop
      vertex -2 8.2881 12.5562
      vertex -5 8.61052 13
      vertex -2 8.61052 13
    endloop
  endfacet
  facet normal 0 1 0
    outer loop
      vertex -5 8.2881 11.4438
      vertex -5 8.2881 12.5562
      vertex -2 8.2881 11.4438
    endloop
  endfacet
  facet normal 0 1 0
    outer loop
      vertex -2 8.2881 11.4438
      vertex -5 8.2881 12.5562
      vertex -2 8.2881 12.5562
    endloop
  endfacet
  facet normal 1.30515e-16 0.809017 0.587786
    outer loop
      vertex -5 8.2881 11.4438
      vertex -2 8.2881 11.4438
      vertex -5 8.94199 10.5438
    endloop
  endfacet
  facet normal 1.30515e-16 0.809017 0.587786
    outer loop
      vertex -5 8.94199 10.5438
      vertex -2 8.2881 11.4438
      vertex -2 8.94199 10.5438
    endloop
  endfacet
  facet normal 2.11177e-16 0.309017 0.951057
    outer loop
      vertex -5 10 10.2
      vertex -5 8.94199 10.5438
      vertex -2 8.94199 10.5438
    endloop
  endfacet
  facet normal 2.11177e-16 0.309017 0.951057
    outer loop
      vertex -2 10 10.2
      vertex -5 10 10.2
      vertex -2 8.94199 10.5438
    endloop
  endfacet
  facet normal 2.11177e-16 -0.309017 0.951057
    outer loop
      vertex -5 11.058 10.5438
      vertex -5 10 10.2
      vertex -2 10 10.2
    endloop
  endfacet
  facet normal 2.11177e-16 -0.309017 0.951057
    outer loop
      vertex -2 11.058 10.5438
      vertex -5 11.058 10.5438
      vertex -2 10 10.2
    endloop
  endfacet
  facet normal 1.30515e-16 -0.809017 0.587786
    outer loop
      vertex -5 11.7119 11.4438
      vertex -5 11.058 10.5438
      vertex -2 11.058 10.5438
    endloop
  endfacet
  facet normal 1.30515e-16 -0.809017 0.587786
    outer loop
      vertex -2 11.7119 11.4438
      vertex -5 11.7119 11.4438
      vertex -2 11.058 10.5438
    endloop
  endfacet
  facet normal 0 -1 0
    outer loop
      vertex -5 11.7119 12.5562
      vertex -5 11.7119 11.4438
      vertex -2 11.7119 11.4438
    endloop
  endfacet
  facet normal 0 -1 0
    outer loop
      vertex -2 11.7119 12.5562
      vertex -5 11.7119 12.5562
      vertex -2 11.7119 11.4438
    endloop
  endfacet
  facet normal -1.30515e-16 -0.809017 -0.587786
    outer loop
      vertex -2 11.3895 13
      vertex -5 11.3895 13
      vertex -5 11.7119 12.5562
    endloop
  endfacet
  facet normal -1.30515e-16 -0.809017 -0.587786
    outer loop
      vertex -2 11.7119 12.5562
      vertex -2 11.3895 13
      vertex -5 11.7119 12.5562
    endloop
  endfacet
  facet normal 1.30515e-16 -0.809017 0.587786
    outer loop
      vertex -5 11.7119 13.4438
      vertex -5 11.3895 13
      vertex -2 11.3895 13
    endloop
  endfacet
  facet normal 1.30515e-16 -0.809017 0.587786
    outer loop
      vertex -2 11.7119 13.4438
      vertex -5 11.7119 13.4438
      vertex -2 11.3895 13
    endloop
  endfacet
  facet normal 0 -1 0
    outer loop
      vertex -5 11.7119 14.5562
      vertex -5 11.7119 13.4438
      vertex -2 11.7119 13.4438
    endloop
  endfacet
  facet normal 0 -1 0
    outer loop
      vertex -2 11.7119 14.5562
      vertex -5 11.7119 14.5562
      vertex -2 11.7119 13.4438
    endloop
  endfacet
  facet normal -1.30515e-16 -0.809017 -0.587786
    outer loop
      vertex -2 11.058 15.4562
      vertex -5 11.058 15.4562
      vertex -5 11.7119 14.5562
    endloop
  endfacet
  facet normal -1.30515e-16 -0.809017 -0.587786
    outer loop
      vertex -2 11.7119 14.5562
      vertex -2 11.058 15.4562
      vertex -5 11.7119 14.5562
    endloop
  endfacet
  facet normal -2.11177e-16 -0.309017 -0.951057
    outer loop
      vertex -5 10 15.8
      vertex -5 11.058 15.4562
      vertex -2 10 15.8
    endloop
  endfacet
  facet normal -2.11177e-16 -0.309017 -0.951057
    outer loop
      vertex -2 10 15.8
      vertex -5 11.058 15.4562
      vertex -2 11.058 15.4562
    endloop
  endfacet
  facet normal -2.11177e-16 0.309017 -0.951057
    outer loop
      vertex -5 8.94199 15.4562
      vertex -5 10 15.8
      vertex -2 8.94199 15.4562
    endloop
  endfacet
  facet normal -2.11177e-16 0.309017 -0.951057
    outer loop
      vertex -2 8.94199 15.4562
      vertex -5 10 15.8
      vertex -2 10 15.8
    endloop
  endfacet
  facet normal -1.30515e-16 0.809017 -0.587786
    outer loop
      vertex -5 8.2881 14.5562
      vertex -5 8.94199 15.4562
      vertex -2 8.2881 14.5562
    endloop
  endfacet
  facet normal -1.30515e-16 0.809017 -0.587786
    outer loop
      vertex -2 8.2881 14.5562
      vertex -5 8.94199 15.4562
      vertex -2 8.94199 15.4562
    endloop
  endfacet
  facet normal 0 1 0
    outer loop
      vertex -5 8.2881 13.4438
      vertex -5 8.2881 14.5562
      vertex -2 8.2881 13.4438
    endloop
  endfacet
  facet normal 0 1 0
    outer loop
      vertex -2 8.2881 13.4438
      vertex -5 8.2881 14.5562
      vertex -2 8.2881 14.5562
    endloop
  endfacet
  facet normal 1.30515e-16 0.809017 0.587786
    outer loop
      vertex -5 8.2881 13.4438
      vertex -2 8.2881 13.4438
      vertex -5 8.61052 13
    endloop
  endfacet
  facet normal 1.30515e-16 0.809017 0.587786
    outer loop
      vertex -5 8.61052 13
      vertex -2 8.2881 13.4438
      vertex -2 8.61052 13
    endloop
  endfacet
endsolid OpenSCAD_Model
