solid OpenSCAD_Model
  facet normal -1 0 0
    outer loop
      vertex -50 22 -1
      vertex -50 22 15
      vertex -50 26 -1
    endloop
  endfacet
  facet normal -1 0 0
    outer loop
      vertex -50 26 -1
      vertex -50 22 15
      vertex -50 26 15
    endloop
  endfacet
  facet normal 0 -1 0
    outer loop
      vertex -46.8753 22 6.50077
      vertex -50 22 -1
      vertex -41.5 22 -1
    endloop
  endfacet
  facet normal 0 -1 0
    outer loop
      vertex -50 22 15
      vertex -50 22 -1
      vertex -46.8753 22 6.50077
    endloop
  endfacet
  facet normal 0 -1 0
    outer loop
      vertex -50 22 15
      vertex -46.8753 22 6.50077
      vertex -47.2 22 7.5
    endloop
  endfacet
  facet normal 0 -1 0
    outer loop
      vertex -43.8 22 7.5
      vertex -44.1247 22 6.50077
      vertex -41.5 22 -1
    endloop
  endfacet
  facet normal 0 -1 0
    outer loop
      vertex -50 22 15
      vertex -47.2 22 7.5
      vertex -46.8753 22 8.49924
    endloop
  endfacet
  facet normal 0 -1 0
    outer loop
      vertex -44.9747 22 5.8832
      vertex -46.0253 22 5.8832
      vertex -41.5 22 -1
    endloop
  endfacet
  facet normal 0 -1 0
    outer loop
      vertex -41.5 22 15
      vertex -50 22 15
      vertex -46.0253 22 9.1168
    endloop
  endfacet
  facet normal 0 -1 0
    outer loop
      vertex -44.1247 22 6.50077
      vertex -44.9747 22 5.8832
      vertex -41.5 22 -1
    endloop
  endfacet
  facet normal 0 -1 0
    outer loop
      vertex -41.5 22 15
      vertex -46.0253 22 9.1168
      vertex -44.9747 22 9.1168
    endloop
  endfacet
  facet normal 0 -1 0
    outer loop
      vertex -41.5 22 15
      vertex -44.9747 22 9.1168
      vertex -44.1247 22 8.49924
    endloop
  endfacet
  facet normal 0 -1 0
    outer loop
      vertex -41.5 22 15
      vertex -43.8 22 7.5
      vertex -41.5 22 -1
    endloop
  endfacet
  facet normal 0 -1 0
    outer loop
      vertex -41.5 22 15
      vertex -44.1247 22 8.49924
      vertex -43.8 22 7.5
    endloop
  endfacet
  facet normal 0 -1 0
    outer loop
      vertex -46.0253 22 5.8832
      vertex -46.8753 22 6.50077
      vertex -41.5 22 -1
    endloop
  endfacet
  facet normal 0 -1 0
    outer loop
      vertex -46.8753 22 8.49924
      vertex -46.0253 22 9.1168
      vertex -50 22 15
    endloop
  endfacet
  facet normal 0 0 -1
    outer loop
      vertex -50 22 -1
      vertex -50 26 -1
      vertex -41.5 22 -1
    endloop
  endfacet
  facet normal 0 0 -1
    outer loop
      vertex -41.5 22 -1
      vertex -50 26 -1
      vertex 0 26 -1
    endloop
  endfacet
  facet normal 0 0 -1
    outer loop
      vertex -8.5 22 -1
      vertex 0 26 -1
      vertex 0 22 -1
    endloop
  endfacet
  facet normal 0 0 -1
    outer loop
      vertex -41.5 22 -1
      vertex 0 26 -1
      vertex -8.5 22 -1
    endloop
  endfacet
  facet normal 0 0 -1
    outer loop
      vertex -8.5 22 -1
      vertex -8.5 0 -1
      vertex -41.5 22 -1
    endloop
  endfacet
  facet normal 0 0 -1
    outer loop
      vertex -41.5 22 -1
      vertex -8.5 0 -1
      vertex -41.5 0 -1
    endloop
  endfacet
  facet normal 0 1 0
    outer loop
      vertex -44.1247 26 8.49924
      vertex -50 26 15
      vertex 0 26 -1
    endloop
  endfacet
  facet normal 0 1 0
    outer loop
      vertex -5.02533 26 9.1168
      vertex -50 26 15
      vertex 0 26 15
    endloop
  endfacet
  facet normal 0 1 0
    outer loop
      vertex -50 26 -1
      vertex -50 26 15
      vertex -47.2 26 7.5
    endloop
  endfacet
  facet normal 0 1 0
    outer loop
      vertex -50 26 -1
      vertex -47.2 26 7.5
      vertex -46.8753 26 6.50077
    endloop
  endfacet
  facet normal 0 1 0
    outer loop
      vertex -50 26 -1
      vertex -46.8753 26 6.50077
      vertex -46.0253 26 5.8832
    endloop
  endfacet
  facet normal 0 1 0
    outer loop
      vertex -50 26 -1
      vertex -46.0253 26 5.8832
      vertex 0 26 -1
    endloop
  endfacet
  facet normal 0 1 0
    outer loop
      vertex -46.0253 26 5.8832
      vertex -44.9747 26 5.8832
      vertex 0 26 -1
    endloop
  endfacet
  facet normal 0 1 0
    outer loop
      vertex -43.8 26 7.5
      vertex 0 26 -1
      vertex -44.1247 26 6.50077
    endloop
  endfacet
  facet normal 0 1 0
    outer loop
      vertex -3.97467 26 5.8832
      vertex 0 26 -1
      vertex -5.02533 26 5.8832
    endloop
  endfacet
  facet normal 0 1 0
    outer loop
      vertex -46.0253 26 9.1168
      vertex -50 26 15
      vertex -44.9747 26 9.1168
    endloop
  endfacet
  facet normal 0 1 0
    outer loop
      vertex -44.9747 26 9.1168
      vertex -50 26 15
      vertex -44.1247 26 8.49924
    endloop
  endfacet
  facet normal 0 1 0
    outer loop
      vertex -43.8 26 7.5
      vertex -44.1247 26 8.49924
      vertex 0 26 -1
    endloop
  endfacet
  facet normal 0 1 0
    outer loop
      vertex -46.8753 26 8.49924
      vertex -50 26 15
      vertex -46.0253 26 9.1168
    endloop
  endfacet
  facet normal 0 1 0
    outer loop
      vertex -47.2 26 7.5
      vertex -50 26 15
      vertex -46.8753 26 8.49924
    endloop
  endfacet
  facet normal 0 1 0
    outer loop
      vertex -5.87533 26 6.50077
      vertex -50 26 15
      vertex -6.2 26 7.5
    endloop
  endfacet
  facet normal 0 1 0
    outer loop
      vertex 0 26 -1
      vertex -50 26 15
      vertex -5.87533 26 6.50077
    endloop
  endfacet
  facet normal 0 1 0
    outer loop
      vertex 0 26 -1
      vertex -5.87533 26 6.50077
      vertex -5.02533 26 5.8832
    endloop
  endfacet
  facet normal 0 1 0
    outer loop
      vertex -3.12467 26 8.49924
      vertex 0 26 15
      vertex -2.8 26 7.5
    endloop
  endfacet
  facet normal 0 1 0
    outer loop
      vertex 0 26 -1
      vertex -3.97467 26 5.8832
      vertex -3.12467 26 6.50077
    endloop
  endfacet
  facet normal 0 1 0
    outer loop
      vertex 0 26 -1
      vertex -3.12467 26 6.50077
      vertex 0 26 15
    endloop
  endfacet
  facet normal 0 1 0
    outer loop
      vertex -3.12467 26 6.50077
      vertex -2.8 26 7.5
      vertex 0 26 15
    endloop
  endfacet
  facet normal 0 1 0
    outer loop
      vertex -5.02533 26 9.1168
      vertex 0 26 15
      vertex -3.97467 26 9.1168
    endloop
  endfacet
  facet normal 0 1 0
    outer loop
      vertex -3.12467 26 8.49924
      vertex -3.97467 26 9.1168
      vertex 0 26 15
    endloop
  endfacet
  facet normal 0 1 0
    outer loop
      vertex -5.87533 26 8.49924
      vertex -50 26 15
      vertex -5.02533 26 9.1168
    endloop
  endfacet
  facet normal 0 1 0
    outer loop
      vertex -6.2 26 7.5
      vertex -50 26 15
      vertex -5.87533 26 8.49924
    endloop
  endfacet
  facet normal 0 1 0
    outer loop
      vertex -44.1247 26 6.50077
      vertex 0 26 -1
      vertex -44.9747 26 5.8832
    endloop
  endfacet
  facet normal 0 0 1
    outer loop
      vertex -8.5 22 15
      vertex 0 22 15
      vertex -50 26 15
    endloop
  endfacet
  facet normal 0 0 1
    outer loop
      vertex -50 26 15
      vertex -50 22 15
      vertex -41.5 22 15
    endloop
  endfacet
  facet normal 0 0 1
    outer loop
      vertex -8.5 12.7 15
      vertex -50 26 15
      vertex -41.5 22 15
    endloop
  endfacet
  facet normal 0 0 1
    outer loop
      vertex -41.5 12.7 15
      vertex -8.5 12.7 15
      vertex -41.5 22 15
    endloop
  endfacet
  facet normal 0 0 1
    outer loop
      vertex -8.5 12.7 15
      vertex -8.5 22 15
      vertex -50 26 15
    endloop
  endfacet
  facet normal 0 0 1
    outer loop
      vertex 0 22 15
      vertex 0 26 15
      vertex -50 26 15
    endloop
  endfacet
  facet normal -1 0 0
    outer loop
      vertex -41.5 0 -1
      vertex -41.5 0 15
      vertex -41.5 9.7 3
    endloop
  endfacet
  facet normal -1 0 0
    outer loop
      vertex -41.5 0 -1
      vertex -41.5 9.7 3
      vertex -41.5 22 -1
    endloop
  endfacet
  facet normal -1 0 0
    outer loop
      vertex -41.5 10.3 12.6
      vertex -41.5 22 -1
      vertex -41.5 10.3 3
    endloop
  endfacet
  facet normal -1 0 0
    outer loop
      vertex -41.5 9.7 3
      vertex -41.5 10.3 3
      vertex -41.5 22 -1
    endloop
  endfacet
  facet normal -1 0 0
    outer loop
      vertex -41.5 10.3 12.6
      vertex -41.5 12.7 15
      vertex -41.5 22 -1
    endloop
  endfacet
  facet normal -1 0 0
    outer loop
      vertex -41.5 22 -1
      vertex -41.5 12.7 15
      vertex -41.5 22 15
    endloop
  endfacet
  facet normal -1 0 0
    outer loop
      vertex -41.5 9.7 3
      vertex -41.5 0 15
      vertex -41.5 6.7 15
    endloop
  endfacet
  facet normal -1 0 0
    outer loop
      vertex -41.5 9.7 3
      vertex -41.5 6.7 15
      vertex -41.5 9.7 12
    endloop
  endfacet
  facet normal 0.951057 -6.86155e-17 0.309017
    outer loop
      vertex -46.8753 22 6.50077
      vertex -46.8753 26 6.50077
      vertex -47.2 26 7.5
    endloop
  endfacet
  facet normal 0.951057 -6.86155e-17 0.309017
    outer loop
      vertex -47.2 22 7.5
      vertex -46.8753 22 6.50077
      vertex -47.2 26 7.5
    endloop
  endfacet
  facet normal 0.587785 -1.79638e-16 0.809017
    outer loop
      vertex -46.0253 22 5.8832
      vertex -46.0253 26 5.8832
      vertex -46.8753 26 6.50077
    endloop
  endfacet
  facet normal 0.587785 -1.79638e-16 0.809017
    outer loop
      vertex -46.8753 22 6.50077
      vertex -46.0253 22 5.8832
      vertex -46.8753 26 6.50077
    endloop
  endfacet
  facet normal 0 -2.22045e-16 1
    outer loop
      vertex -44.9747 22 5.8832
      vertex -44.9747 26 5.8832
      vertex -46.0253 26 5.8832
    endloop
  endfacet
  facet normal 0 -2.22045e-16 1
    outer loop
      vertex -46.0253 22 5.8832
      vertex -44.9747 22 5.8832
      vertex -46.0253 26 5.8832
    endloop
  endfacet
  facet normal -0.587785 -1.79638e-16 0.809017
    outer loop
      vertex -44.1247 22 6.50077
      vertex -44.1247 26 6.50077
      vertex -44.9747 26 5.8832
    endloop
  endfacet
  facet normal -0.587785 -1.79638e-16 0.809017
    outer loop
      vertex -44.9747 22 5.8832
      vertex -44.1247 22 6.50077
      vertex -44.9747 26 5.8832
    endloop
  endfacet
  facet normal -0.951057 -6.86155e-17 0.309017
    outer loop
      vertex -43.8 26 7.5
      vertex -44.1247 26 6.50077
      vertex -43.8 22 7.5
    endloop
  endfacet
  facet normal -0.951057 -6.86155e-17 0.309017
    outer loop
      vertex -43.8 22 7.5
      vertex -44.1247 26 6.50077
      vertex -44.1247 22 6.50077
    endloop
  endfacet
  facet normal -0.951057 6.86155e-17 -0.309017
    outer loop
      vertex -43.8 26 7.5
      vertex -43.8 22 7.5
      vertex -44.1247 26 8.49924
    endloop
  endfacet
  facet normal -0.951057 6.86155e-17 -0.309017
    outer loop
      vertex -44.1247 26 8.49924
      vertex -43.8 22 7.5
      vertex -44.1247 22 8.49924
    endloop
  endfacet
  facet normal -0.587785 1.79638e-16 -0.809017
    outer loop
      vertex -44.1247 26 8.49924
      vertex -44.1247 22 8.49924
      vertex -44.9747 26 9.1168
    endloop
  endfacet
  facet normal -0.587785 1.79638e-16 -0.809017
    outer loop
      vertex -44.9747 26 9.1168
      vertex -44.1247 22 8.49924
      vertex -44.9747 22 9.1168
    endloop
  endfacet
  facet normal 0 2.22045e-16 -1
    outer loop
      vertex -44.9747 26 9.1168
      vertex -44.9747 22 9.1168
      vertex -46.0253 26 9.1168
    endloop
  endfacet
  facet normal 0 2.22045e-16 -1
    outer loop
      vertex -46.0253 26 9.1168
      vertex -44.9747 22 9.1168
      vertex -46.0253 22 9.1168
    endloop
  endfacet
  facet normal 0.587785 1.79638e-16 -0.809017
    outer loop
      vertex -46.0253 26 9.1168
      vertex -46.0253 22 9.1168
      vertex -46.8753 26 8.49924
    endloop
  endfacet
  facet normal 0.587785 1.79638e-16 -0.809017
    outer loop
      vertex -46.8753 26 8.49924
      vertex -46.0253 22 9.1168
      vertex -46.8753 22 8.49924
    endloop
  endfacet
  facet normal 0.951057 6.86155e-17 -0.309017
    outer loop
      vertex -47.2 26 7.5
      vertex -46.8753 26 8.49924
      vertex -46.8753 22 8.49924
    endloop
  endfacet
  facet normal 0.951057 6.86155e-17 -0.309017
    outer loop
      vertex -47.2 22 7.5
      vertex -47.2 26 7.5
      vertex -46.8753 22 8.49924
    endloop
  endfacet
  facet normal 0 -1 0
    outer loop
      vertex -23 0 3
      vertex -41.5 0 -1
      vertex -8.5 0 -1
    endloop
  endfacet
  facet normal 0 -1 0
    outer loop
      vertex -27 0 3
      vertex -27 0 15
      vertex -41.5 0 15
    endloop
  endfacet
  facet normal 0 -1 0
    outer loop
      vertex -8.5 0 15
      vertex -23 0 15
      vertex -8.5 0 -1
    endloop
  endfacet
  facet normal 0 -1 0
    outer loop
      vertex -27 0 3
      vertex -41.5 0 -1
      vertex -23 0 3
    endloop
  endfacet
  facet normal 0 -1 0
    outer loop
      vertex -41.5 0 15
      vertex -41.5 0 -1
      vertex -27 0 3
    endloop
  endfacet
  facet normal 0 -1 0
    outer loop
      vertex -23 0 15
      vertex -23 0 3
      vertex -8.5 0 -1
    endloop
  endfacet
  facet normal 1 0 0
    outer loop
      vertex -8.5 10.3 3
      vertex -8.5 0 -1
      vertex -8.5 22 -1
    endloop
  endfacet
  facet normal 1 0 0
    outer loop
      vertex -8.5 9.7 3
      vertex -8.5 9.7 12
      vertex -8.5 0 15
    endloop
  endfacet
  facet normal 1 0 0
    outer loop
      vertex -8.5 22 15
      vertex -8.5 12.7 15
      vertex -8.5 22 -1
    endloop
  endfacet
  facet normal 1 0 0
    outer loop
      vertex -8.5 12.7 15
      vertex -8.5 10.3 12.6
      vertex -8.5 22 -1
    endloop
  endfacet
  facet normal 1 0 0
    outer loop
      vertex -8.5 9.7 3
      vertex -8.5 0 -1
      vertex -8.5 10.3 3
    endloop
  endfacet
  facet normal 1 0 0
    outer loop
      vertex -8.5 9.7 12
      vertex -8.5 6.7 15
      vertex -8.5 0 15
    endloop
  endfacet
  facet normal 1 0 0
    outer loop
      vertex -8.5 0 15
      vertex -8.5 0 -1
      vertex -8.5 9.7 3
    endloop
  endfacet
  facet normal 1 0 0
    outer loop
      vertex -8.5 10.3 12.6
      vertex -8.5 10.3 3
      vertex -8.5 22 -1
    endloop
  endfacet
  facet normal 0 -1 0
    outer loop
      vertex -5.87533 22 6.50077
      vertex -8.5 22 -1
      vertex 0 22 -1
    endloop
  endfacet
  facet normal 0 -1 0
    outer loop
      vertex -5.02533 22 5.8832
      vertex -5.87533 22 6.50077
      vertex 0 22 -1
    endloop
  endfacet
  facet normal 0 -1 0
    outer loop
      vertex -6.2 22 7.5
      vertex -8.5 22 -1
      vertex -5.87533 22 6.50077
    endloop
  endfacet
  facet normal 0 -1 0
    outer loop
      vertex -8.5 22 15
      vertex -8.5 22 -1
      vertex -6.2 22 7.5
    endloop
  endfacet
  facet normal 0 -1 0
    outer loop
      vertex -3.97467 22 5.8832
      vertex -5.02533 22 5.8832
      vertex 0 22 -1
    endloop
  endfacet
  facet normal 0 -1 0
    outer loop
      vertex 0 22 15
      vertex -8.5 22 15
      vertex -5.02533 22 9.1168
    endloop
  endfacet
  facet normal 0 -1 0
    outer loop
      vertex -3.12467 22 6.50077
      vertex -3.97467 22 5.8832
      vertex 0 22 -1
    endloop
  endfacet
  facet normal 0 -1 0
    outer loop
      vertex 0 22 15
      vertex -5.02533 22 9.1168
      vertex -3.97467 22 9.1168
    endloop
  endfacet
  facet normal 0 -1 0
    outer loop
      vertex 0 22 15
      vertex -3.12467 22 8.49924
      vertex 0 22 -1
    endloop
  endfacet
  facet normal 0 -1 0
    outer loop
      vertex 0 22 15
      vertex -3.97467 22 9.1168
      vertex -3.12467 22 8.49924
    endloop
  endfacet
  facet normal 0 -1 0
    outer loop
      vertex -3.12467 22 8.49924
      vertex -2.8 22 7.5
      vertex 0 22 -1
    endloop
  endfacet
  facet normal 0 -1 0
    outer loop
      vertex -2.8 22 7.5
      vertex -3.12467 22 6.50077
      vertex 0 22 -1
    endloop
  endfacet
  facet normal 0 -1 0
    outer loop
      vertex -6.2 22 7.5
      vertex -5.87533 22 8.49924
      vertex -8.5 22 15
    endloop
  endfacet
  facet normal 0 -1 0
    outer loop
      vertex -5.87533 22 8.49924
      vertex -5.02533 22 9.1168
      vertex -8.5 22 15
    endloop
  endfacet
  facet normal 1 0 0
    outer loop
      vertex 0 22 15
      vertex 0 22 -1
      vertex 0 26 -1
    endloop
  endfacet
  facet normal 1 0 0
    outer loop
      vertex 0 26 15
      vertex 0 22 15
      vertex 0 26 -1
    endloop
  endfacet
  facet normal 0.951057 -6.86155e-17 0.309017
    outer loop
      vertex -5.87533 22 6.50077
      vertex -5.87533 26 6.50077
      vertex -6.2 26 7.5
    endloop
  endfacet
  facet normal 0.951057 -6.86155e-17 0.309017
    outer loop
      vertex -6.2 22 7.5
      vertex -5.87533 22 6.50077
      vertex -6.2 26 7.5
    endloop
  endfacet
  facet normal 0.951057 6.86155e-17 -0.309017
    outer loop
      vertex -6.2 26 7.5
      vertex -5.87533 26 8.49924
      vertex -5.87533 22 8.49924
    endloop
  endfacet
  facet normal 0.951057 6.86155e-17 -0.309017
    outer loop
      vertex -6.2 22 7.5
      vertex -6.2 26 7.5
      vertex -5.87533 22 8.49924
    endloop
  endfacet
  facet normal 0.587785 1.79638e-16 -0.809017
    outer loop
      vertex -5.02533 26 9.1168
      vertex -5.02533 22 9.1168
      vertex -5.87533 26 8.49924
    endloop
  endfacet
  facet normal 0.587785 1.79638e-16 -0.809017
    outer loop
      vertex -5.87533 26 8.49924
      vertex -5.02533 22 9.1168
      vertex -5.87533 22 8.49924
    endloop
  endfacet
  facet normal 0 2.22045e-16 -1
    outer loop
      vertex -3.97467 26 9.1168
      vertex -3.97467 22 9.1168
      vertex -5.02533 26 9.1168
    endloop
  endfacet
  facet normal 0 2.22045e-16 -1
    outer loop
      vertex -5.02533 26 9.1168
      vertex -3.97467 22 9.1168
      vertex -5.02533 22 9.1168
    endloop
  endfacet
  facet normal -0.587785 1.79638e-16 -0.809017
    outer loop
      vertex -3.12467 26 8.49924
      vertex -3.12467 22 8.49924
      vertex -3.97467 26 9.1168
    endloop
  endfacet
  facet normal -0.587785 1.79638e-16 -0.809017
    outer loop
      vertex -3.97467 26 9.1168
      vertex -3.12467 22 8.49924
      vertex -3.97467 22 9.1168
    endloop
  endfacet
  facet normal -0.951057 6.86155e-17 -0.309017
    outer loop
      vertex -2.8 26 7.5
      vertex -2.8 22 7.5
      vertex -3.12467 26 8.49924
    endloop
  endfacet
  facet normal -0.951057 6.86155e-17 -0.309017
    outer loop
      vertex -3.12467 26 8.49924
      vertex -2.8 22 7.5
      vertex -3.12467 22 8.49924
    endloop
  endfacet
  facet normal -0.951057 -6.86155e-17 0.309017
    outer loop
      vertex -2.8 26 7.5
      vertex -3.12467 26 6.50077
      vertex -2.8 22 7.5
    endloop
  endfacet
  facet normal -0.951057 -6.86155e-17 0.309017
    outer loop
      vertex -2.8 22 7.5
      vertex -3.12467 26 6.50077
      vertex -3.12467 22 6.50077
    endloop
  endfacet
  facet normal -0.587785 -1.79638e-16 0.809017
    outer loop
      vertex -3.12467 22 6.50077
      vertex -3.12467 26 6.50077
      vertex -3.97467 26 5.8832
    endloop
  endfacet
  facet normal -0.587785 -1.79638e-16 0.809017
    outer loop
      vertex -3.97467 22 5.8832
      vertex -3.12467 22 6.50077
      vertex -3.97467 26 5.8832
    endloop
  endfacet
  facet normal 0 -2.22045e-16 1
    outer loop
      vertex -3.97467 22 5.8832
      vertex -3.97467 26 5.8832
      vertex -5.02533 26 5.8832
    endloop
  endfacet
  facet normal 0 -2.22045e-16 1
    outer loop
      vertex -5.02533 22 5.8832
      vertex -3.97467 22 5.8832
      vertex -5.02533 26 5.8832
    endloop
  endfacet
  facet normal 0.587785 -1.79638e-16 0.809017
    outer loop
      vertex -5.02533 22 5.8832
      vertex -5.02533 26 5.8832
      vertex -5.87533 26 6.50077
    endloop
  endfacet
  facet normal 0.587785 -1.79638e-16 0.809017
    outer loop
      vertex -5.87533 22 6.50077
      vertex -5.02533 22 5.8832
      vertex -5.87533 26 6.50077
    endloop
  endfacet
  facet normal 0 -0.707107 0.707107
    outer loop
      vertex -8.5 12.7 15
      vertex -40.7 10.3 12.6
      vertex -39.2 10.3 12.6
    endloop
  endfacet
  facet normal 0 -0.707107 0.707107
    outer loop
      vertex -38 10.3 12.6
      vertex -8.5 12.7 15
      vertex -39.2 10.3 12.6
    endloop
  endfacet
  facet normal 0 -0.707107 0.707107
    outer loop
      vertex -36.5 10.3 12.6
      vertex -8.5 12.7 15
      vertex -38 10.3 12.6
    endloop
  endfacet
  facet normal 0 -0.707107 0.707107
    outer loop
      vertex -35.3 10.3 12.6
      vertex -8.5 12.7 15
      vertex -36.5 10.3 12.6
    endloop
  endfacet
  facet normal 0 -0.707107 0.707107
    outer loop
      vertex -33.8 10.3 12.6
      vertex -8.5 12.7 15
      vertex -35.3 10.3 12.6
    endloop
  endfacet
  facet normal 0 -0.707107 0.707107
    outer loop
      vertex -32.6 10.3 12.6
      vertex -8.5 12.7 15
      vertex -33.8 10.3 12.6
    endloop
  endfacet
  facet normal 0 -0.707107 0.707107
    outer loop
      vertex -31.1 10.3 12.6
      vertex -8.5 12.7 15
      vertex -32.6 10.3 12.6
    endloop
  endfacet
  facet normal 0 -0.707107 0.707107
    outer loop
      vertex -29.9 10.3 12.6
      vertex -8.5 12.7 15
      vertex -31.1 10.3 12.6
    endloop
  endfacet
  facet normal 0 -0.707107 0.707107
    outer loop
      vertex -28.4 10.3 12.6
      vertex -8.5 12.7 15
      vertex -29.9 10.3 12.6
    endloop
  endfacet
  facet normal 0 -0.707107 0.707107
    outer loop
      vertex -27.2 10.3 12.6
      vertex -8.5 12.7 15
      vertex -28.4 10.3 12.6
    endloop
  endfacet
  facet normal 0 -0.707107 0.707107
    outer loop
      vertex -25.7 10.3 12.6
      vertex -8.5 12.7 15
      vertex -27.2 10.3 12.6
    endloop
  endfacet
  facet normal 0 -0.707107 0.707107
    outer loop
      vertex -24.5 10.3 12.6
      vertex -8.5 12.7 15
      vertex -25.7 10.3 12.6
    endloop
  endfacet
  facet normal 0 -0.707107 0.707107
    outer loop
      vertex -23 10.3 12.6
      vertex -8.5 12.7 15
      vertex -24.5 10.3 12.6
    endloop
  endfacet
  facet normal 0 -0.707107 0.707107
    outer loop
      vertex -21.8 10.3 12.6
      vertex -8.5 12.7 15
      vertex -23 10.3 12.6
    endloop
  endfacet
  facet normal 0 -0.707107 0.707107
    outer loop
      vertex -20.3 10.3 12.6
      vertex -8.5 12.7 15
      vertex -21.8 10.3 12.6
    endloop
  endfacet
  facet normal 0 -0.707107 0.707107
    outer loop
      vertex -19.1 10.3 12.6
      vertex -8.5 12.7 15
      vertex -20.3 10.3 12.6
    endloop
  endfacet
  facet normal 0 -0.707107 0.707107
    outer loop
      vertex -17.6 10.3 12.6
      vertex -8.5 12.7 15
      vertex -19.1 10.3 12.6
    endloop
  endfacet
  facet normal 0 -0.707107 0.707107
    outer loop
      vertex -16.4 10.3 12.6
      vertex -8.5 12.7 15
      vertex -17.6 10.3 12.6
    endloop
  endfacet
  facet normal 0 -0.707107 0.707107
    outer loop
      vertex -14.9 10.3 12.6
      vertex -8.5 12.7 15
      vertex -16.4 10.3 12.6
    endloop
  endfacet
  facet normal 0 -0.707107 0.707107
    outer loop
      vertex -13.7 10.3 12.6
      vertex -8.5 12.7 15
      vertex -14.9 10.3 12.6
    endloop
  endfacet
  facet normal 0 -0.707107 0.707107
    outer loop
      vertex -12.2 10.3 12.6
      vertex -8.5 12.7 15
      vertex -13.7 10.3 12.6
    endloop
  endfacet
  facet normal 0 -0.707107 0.707107
    outer loop
      vertex -11 10.3 12.6
      vertex -8.5 12.7 15
      vertex -12.2 10.3 12.6
    endloop
  endfacet
  facet normal 0 -0.707107 0.707107
    outer loop
      vertex -9.5 10.3 12.6
      vertex -8.5 12.7 15
      vertex -11 10.3 12.6
    endloop
  endfacet
  facet normal 0 -0.707107 0.707107
    outer loop
      vertex -8.5 10.3 12.6
      vertex -8.5 12.7 15
      vertex -9.5 10.3 12.6
    endloop
  endfacet
  facet normal 0 -0.707107 0.707107
    outer loop
      vertex -8.5 12.7 15
      vertex -41.5 12.7 15
      vertex -40.7 10.3 12.6
    endloop
  endfacet
  facet normal 0 -0.707107 0.707107
    outer loop
      vertex -41.5 12.7 15
      vertex -41.5 10.3 12.6
      vertex -40.7 10.3 12.6
    endloop
  endfacet
  facet normal 0 -1 0
    outer loop
      vertex -40.7 10.3 3
      vertex -40.7 10.3 12.6
      vertex -41.5 10.3 12.6
    endloop
  endfacet
  facet normal 0 -1 0
    outer loop
      vertex -41.5 10.3 3
      vertex -40.7 10.3 3
      vertex -41.5 10.3 12.6
    endloop
  endfacet
  facet normal 0 0 1
    outer loop
      vertex -40.7 9.7 3
      vertex -40.7 7.5 3
      vertex -39.2 7.5 3
    endloop
  endfacet
  facet normal 0 0 1
    outer loop
      vertex -8.5 10.3 3
      vertex -40.7 9.7 3
      vertex -39.2 9.7 3
    endloop
  endfacet
  facet normal 0 0 1
    outer loop
      vertex -39.2 9.7 3
      vertex -40.7 9.7 3
      vertex -39.2 7.5 3
    endloop
  endfacet
  facet normal 0 0 1
    outer loop
      vertex -8.5 10.3 3
      vertex -39.2 9.7 3
      vertex -38 9.7 3
    endloop
  endfacet
  facet normal 0 0 1
    outer loop
      vertex -36.5 7.5 3
      vertex -38 9.7 3
      vertex -38 7.5 3
    endloop
  endfacet
  facet normal 0 0 1
    outer loop
      vertex -36.5 9.7 3
      vertex -38 9.7 3
      vertex -36.5 7.5 3
    endloop
  endfacet
  facet normal 0 0 1
    outer loop
      vertex -8.5 10.3 3
      vertex -38 9.7 3
      vertex -36.5 9.7 3
    endloop
  endfacet
  facet normal 0 0 1
    outer loop
      vertex -8.5 10.3 3
      vertex -36.5 9.7 3
      vertex -35.3 9.7 3
    endloop
  endfacet
  facet normal 0 0 1
    outer loop
      vertex -33.8 7.5 3
      vertex -35.3 9.7 3
      vertex -35.3 7.5 3
    endloop
  endfacet
  facet normal 0 0 1
    outer loop
      vertex -33.8 9.7 3
      vertex -35.3 9.7 3
      vertex -33.8 7.5 3
    endloop
  endfacet
  facet normal 0 0 1
    outer loop
      vertex -8.5 10.3 3
      vertex -35.3 9.7 3
      vertex -33.8 9.7 3
    endloop
  endfacet
  facet normal 0 0 1
    outer loop
      vertex -8.5 10.3 3
      vertex -33.8 9.7 3
      vertex -32.6 9.7 3
    endloop
  endfacet
  facet normal 0 0 1
    outer loop
      vertex -31.1 7.5 3
      vertex -32.6 9.7 3
      vertex -32.6 7.5 3
    endloop
  endfacet
  facet normal 0 0 1
    outer loop
      vertex -31.1 9.7 3
      vertex -32.6 9.7 3
      vertex -31.1 7.5 3
    endloop
  endfacet
  facet normal 0 0 1
    outer loop
      vertex -8.5 10.3 3
      vertex -32.6 9.7 3
      vertex -31.1 9.7 3
    endloop
  endfacet
  facet normal 0 0 1
    outer loop
      vertex -8.5 10.3 3
      vertex -31.1 9.7 3
      vertex -29.9 9.7 3
    endloop
  endfacet
  facet normal 0 0 1
    outer loop
      vertex -28.4 7.5 3
      vertex -29.9 9.7 3
      vertex -29.9 7.5 3
    endloop
  endfacet
  facet normal 0 0 1
    outer loop
      vertex -28.4 9.7 3
      vertex -29.9 9.7 3
      vertex -28.4 7.5 3
    endloop
  endfacet
  facet normal 0 0 1
    outer loop
      vertex -8.5 10.3 3
      vertex -29.9 9.7 3
      vertex -28.4 9.7 3
    endloop
  endfacet
  facet normal 0 0 1
    outer loop
      vertex -8.5 10.3 3
      vertex -28.4 9.7 3
      vertex -27.2 9.7 3
    endloop
  endfacet
  facet normal 0 0 1
    outer loop
      vertex -27 7.5 3
      vertex -27.2 9.7 3
      vertex -27.2 7.5 3
    endloop
  endfacet
  facet normal 0 0 1
    outer loop
      vertex -23 0 3
      vertex -27.2 9.7 3
      vertex -27 7.5 3
    endloop
  endfacet
  facet normal 0 0 1
    outer loop
      vertex -23 0 3
      vertex -27 7.5 3
      vertex -27 0 3
    endloop
  endfacet
  facet normal 0 0 1
    outer loop
      vertex -23 9.7 3
      vertex -27.2 9.7 3
      vertex -23 0 3
    endloop
  endfacet
  facet normal 0 0 1
    outer loop
      vertex -8.5 10.3 3
      vertex -27.2 9.7 3
      vertex -23 9.7 3
    endloop
  endfacet
  facet normal 0 0 1
    outer loop
      vertex -8.5 10.3 3
      vertex -23 9.7 3
      vertex -21.8 9.7 3
    endloop
  endfacet
  facet normal 0 0 1
    outer loop
      vertex -20.3 7.5 3
      vertex -21.8 9.7 3
      vertex -21.8 7.5 3
    endloop
  endfacet
  facet normal 0 0 1
    outer loop
      vertex -20.3 9.7 3
      vertex -21.8 9.7 3
      vertex -20.3 7.5 3
    endloop
  endfacet
  facet normal 0 0 1
    outer loop
      vertex -8.5 10.3 3
      vertex -21.8 9.7 3
      vertex -20.3 9.7 3
    endloop
  endfacet
  facet normal 0 0 1
    outer loop
      vertex -8.5 10.3 3
      vertex -20.3 9.7 3
      vertex -19.1 9.7 3
    endloop
  endfacet
  facet normal 0 0 1
    outer loop
      vertex -17.6 7.5 3
      vertex -19.1 9.7 3
      vertex -19.1 7.5 3
    endloop
  endfacet
  facet normal 0 0 1
    outer loop
      vertex -17.6 9.7 3
      vertex -19.1 9.7 3
      vertex -17.6 7.5 3
    endloop
  endfacet
  facet normal 0 0 1
    outer loop
      vertex -8.5 10.3 3
      vertex -19.1 9.7 3
      vertex -17.6 9.7 3
    endloop
  endfacet
  facet normal 0 0 1
    outer loop
      vertex -8.5 10.3 3
      vertex -17.6 9.7 3
      vertex -16.4 9.7 3
    endloop
  endfacet
  facet normal 0 0 1
    outer loop
      vertex -14.9 7.5 3
      vertex -16.4 9.7 3
      vertex -16.4 7.5 3
    endloop
  endfacet
  facet normal 0 0 1
    outer loop
      vertex -14.9 9.7 3
      vertex -16.4 9.7 3
      vertex -14.9 7.5 3
    endloop
  endfacet
  facet normal 0 0 1
    outer loop
      vertex -8.5 10.3 3
      vertex -16.4 9.7 3
      vertex -14.9 9.7 3
    endloop
  endfacet
  facet normal 0 0 1
    outer loop
      vertex -8.5 10.3 3
      vertex -14.9 9.7 3
      vertex -13.7 9.7 3
    endloop
  endfacet
  facet normal 0 0 1
    outer loop
      vertex -12.2 7.5 3
      vertex -13.7 9.7 3
      vertex -13.7 7.5 3
    endloop
  endfacet
  facet normal 0 0 1
    outer loop
      vertex -12.2 9.7 3
      vertex -13.7 9.7 3
      vertex -12.2 7.5 3
    endloop
  endfacet
  facet normal 0 0 1
    outer loop
      vertex -8.5 10.3 3
      vertex -13.7 9.7 3
      vertex -12.2 9.7 3
    endloop
  endfacet
  facet normal 0 0 1
    outer loop
      vertex -8.5 10.3 3
      vertex -12.2 9.7 3
      vertex -11 9.7 3
    endloop
  endfacet
  facet normal 0 0 1
    outer loop
      vertex -9.5 7.5 3
      vertex -11 9.7 3
      vertex -11 7.5 3
    endloop
  endfacet
  facet normal 0 0 1
    outer loop
      vertex -9.5 9.7 3
      vertex -11 9.7 3
      vertex -9.5 7.5 3
    endloop
  endfacet
  facet normal 0 0 1
    outer loop
      vertex -8.5 10.3 3
      vertex -11 9.7 3
      vertex -9.5 9.7 3
    endloop
  endfacet
  facet normal 0 0 1
    outer loop
      vertex -8.5 10.3 3
      vertex -9.5 9.7 3
      vertex -8.5 9.7 3
    endloop
  endfacet
  facet normal 0 0 1
    outer loop
      vertex -9.5 10.3 3
      vertex -40.7 9.7 3
      vertex -8.5 10.3 3
    endloop
  endfacet
  facet normal 0 0 1
    outer loop
      vertex -11 10.3 3
      vertex -40.7 9.7 3
      vertex -9.5 10.3 3
    endloop
  endfacet
  facet normal 0 0 1
    outer loop
      vertex -13.7 10.3 3
      vertex -14.9 10.3 3
      vertex -40.7 9.7 3
    endloop
  endfacet
  facet normal 0 0 1
    outer loop
      vertex -13.7 10.3 3
      vertex -40.7 9.7 3
      vertex -12.2 10.3 3
    endloop
  endfacet
  facet normal 0 0 1
    outer loop
      vertex -16.4 10.3 3
      vertex -17.6 10.3 3
      vertex -40.7 9.7 3
    endloop
  endfacet
  facet normal 0 0 1
    outer loop
      vertex -16.4 10.3 3
      vertex -40.7 9.7 3
      vertex -14.9 10.3 3
    endloop
  endfacet
  facet normal 0 0 1
    outer loop
      vertex -19.1 10.3 3
      vertex -20.3 10.3 3
      vertex -40.7 9.7 3
    endloop
  endfacet
  facet normal 0 0 1
    outer loop
      vertex -19.1 10.3 3
      vertex -40.7 9.7 3
      vertex -17.6 10.3 3
    endloop
  endfacet
  facet normal 0 0 1
    outer loop
      vertex -21.8 10.3 3
      vertex -23 10.3 3
      vertex -40.7 9.7 3
    endloop
  endfacet
  facet normal 0 0 1
    outer loop
      vertex -21.8 10.3 3
      vertex -40.7 9.7 3
      vertex -20.3 10.3 3
    endloop
  endfacet
  facet normal 0 0 1
    outer loop
      vertex -24.5 10.3 3
      vertex -25.7 10.3 3
      vertex -40.7 9.7 3
    endloop
  endfacet
  facet normal 0 0 1
    outer loop
      vertex -24.5 10.3 3
      vertex -40.7 9.7 3
      vertex -23 10.3 3
    endloop
  endfacet
  facet normal 0 0 1
    outer loop
      vertex -27.2 10.3 3
      vertex -28.4 10.3 3
      vertex -40.7 9.7 3
    endloop
  endfacet
  facet normal 0 0 1
    outer loop
      vertex -27.2 10.3 3
      vertex -40.7 9.7 3
      vertex -25.7 10.3 3
    endloop
  endfacet
  facet normal 0 0 1
    outer loop
      vertex -29.9 10.3 3
      vertex -31.1 10.3 3
      vertex -40.7 9.7 3
    endloop
  endfacet
  facet normal 0 0 1
    outer loop
      vertex -29.9 10.3 3
      vertex -40.7 9.7 3
      vertex -28.4 10.3 3
    endloop
  endfacet
  facet normal 0 0 1
    outer loop
      vertex -32.6 10.3 3
      vertex -33.8 10.3 3
      vertex -40.7 9.7 3
    endloop
  endfacet
  facet normal 0 0 1
    outer loop
      vertex -32.6 10.3 3
      vertex -40.7 9.7 3
      vertex -31.1 10.3 3
    endloop
  endfacet
  facet normal 0 0 1
    outer loop
      vertex -35.3 10.3 3
      vertex -36.5 10.3 3
      vertex -40.7 9.7 3
    endloop
  endfacet
  facet normal 0 0 1
    outer loop
      vertex -35.3 10.3 3
      vertex -40.7 9.7 3
      vertex -33.8 10.3 3
    endloop
  endfacet
  facet normal 0 0 1
    outer loop
      vertex -38 10.3 3
      vertex -39.2 10.3 3
      vertex -40.7 9.7 3
    endloop
  endfacet
  facet normal 0 0 1
    outer loop
      vertex -38 10.3 3
      vertex -40.7 9.7 3
      vertex -36.5 10.3 3
    endloop
  endfacet
  facet normal 0 0 1
    outer loop
      vertex -40.7 10.3 3
      vertex -40.7 9.7 3
      vertex -39.2 10.3 3
    endloop
  endfacet
  facet normal 0 0 1
    outer loop
      vertex -41.5 10.3 3
      vertex -40.7 9.7 3
      vertex -40.7 10.3 3
    endloop
  endfacet
  facet normal 0 0 1
    outer loop
      vertex -11 10.3 3
      vertex -12.2 10.3 3
      vertex -40.7 9.7 3
    endloop
  endfacet
  facet normal 0 0 1
    outer loop
      vertex -41.5 9.7 3
      vertex -40.7 9.7 3
      vertex -41.5 10.3 3
    endloop
  endfacet
  facet normal 0 1 0
    outer loop
      vertex -40.7 9.7 12
      vertex -40.7 9.7 3
      vertex -41.5 9.7 12
    endloop
  endfacet
  facet normal 0 1 0
    outer loop
      vertex -41.5 9.7 12
      vertex -40.7 9.7 3
      vertex -41.5 9.7 3
    endloop
  endfacet
  facet normal 0 0.707107 0.707107
    outer loop
      vertex -28.4 7.5 14.2
      vertex -29.9 7.5 14.2
      vertex -27 6.7 15
    endloop
  endfacet
  facet normal 0 0.707107 0.707107
    outer loop
      vertex -27 6.7 15
      vertex -27 7.5 14.2
      vertex -27.2 7.5 14.2
    endloop
  endfacet
  facet normal 0 0.707107 0.707107
    outer loop
      vertex -28.4 9.7 12
      vertex -27 6.7 15
      vertex -27.2 7.5 14.2
    endloop
  endfacet
  facet normal 0 0.707107 0.707107
    outer loop
      vertex -27.2 9.7 12
      vertex -28.4 9.7 12
      vertex -27.2 7.5 14.2
    endloop
  endfacet
  facet normal 0 0.707107 0.707107
    outer loop
      vertex -28.4 9.7 12
      vertex -28.4 7.5 14.2
      vertex -27 6.7 15
    endloop
  endfacet
  facet normal 0 0.707107 0.707107
    outer loop
      vertex -29.9 7.5 14.2
      vertex -31.1 7.5 14.2
      vertex -27 6.7 15
    endloop
  endfacet
  facet normal 0 0.707107 0.707107
    outer loop
      vertex -32.6 7.5 14.2
      vertex -33.8 7.5 14.2
      vertex -27 6.7 15
    endloop
  endfacet
  facet normal 0 0.707107 0.707107
    outer loop
      vertex -29.9 9.7 12
      vertex -31.1 9.7 12
      vertex -29.9 7.5 14.2
    endloop
  endfacet
  facet normal 0 0.707107 0.707107
    outer loop
      vertex -31.1 9.7 12
      vertex -31.1 7.5 14.2
      vertex -29.9 7.5 14.2
    endloop
  endfacet
  facet normal 0 0.707107 0.707107
    outer loop
      vertex -35.3 7.5 14.2
      vertex -36.5 7.5 14.2
      vertex -27 6.7 15
    endloop
  endfacet
  facet normal 0 0.707107 0.707107
    outer loop
      vertex -31.1 7.5 14.2
      vertex -32.6 7.5 14.2
      vertex -27 6.7 15
    endloop
  endfacet
  facet normal 0 0.707107 0.707107
    outer loop
      vertex -32.6 9.7 12
      vertex -33.8 9.7 12
      vertex -32.6 7.5 14.2
    endloop
  endfacet
  facet normal 0 0.707107 0.707107
    outer loop
      vertex -33.8 9.7 12
      vertex -33.8 7.5 14.2
      vertex -32.6 7.5 14.2
    endloop
  endfacet
  facet normal 0 0.707107 0.707107
    outer loop
      vertex -38 7.5 14.2
      vertex -39.2 7.5 14.2
      vertex -27 6.7 15
    endloop
  endfacet
  facet normal 0 0.707107 0.707107
    outer loop
      vertex -33.8 7.5 14.2
      vertex -35.3 7.5 14.2
      vertex -27 6.7 15
    endloop
  endfacet
  facet normal 0 0.707107 0.707107
    outer loop
      vertex -35.3 9.7 12
      vertex -36.5 9.7 12
      vertex -35.3 7.5 14.2
    endloop
  endfacet
  facet normal 0 0.707107 0.707107
    outer loop
      vertex -36.5 9.7 12
      vertex -36.5 7.5 14.2
      vertex -35.3 7.5 14.2
    endloop
  endfacet
  facet normal 0 0.707107 0.707107
    outer loop
      vertex -40.7 7.5 14.2
      vertex -41.5 6.7 15
      vertex -27 6.7 15
    endloop
  endfacet
  facet normal 0 0.707107 0.707107
    outer loop
      vertex -36.5 7.5 14.2
      vertex -38 7.5 14.2
      vertex -27 6.7 15
    endloop
  endfacet
  facet normal 0 0.707107 0.707107
    outer loop
      vertex -38 9.7 12
      vertex -39.2 9.7 12
      vertex -38 7.5 14.2
    endloop
  endfacet
  facet normal 0 0.707107 0.707107
    outer loop
      vertex -39.2 9.7 12
      vertex -39.2 7.5 14.2
      vertex -38 7.5 14.2
    endloop
  endfacet
  facet normal 0 0.707107 0.707107
    outer loop
      vertex -39.2 7.5 14.2
      vertex -40.7 7.5 14.2
      vertex -27 6.7 15
    endloop
  endfacet
  facet normal 0 0.707107 0.707107
    outer loop
      vertex -40.7 9.7 12
      vertex -41.5 9.7 12
      vertex -40.7 7.5 14.2
    endloop
  endfacet
  facet normal 0 0.707107 0.707107
    outer loop
      vertex -41.5 9.7 12
      vertex -41.5 6.7 15
      vertex -40.7 7.5 14.2
    endloop
  endfacet
  facet normal 0 0 1
    outer loop
      vertex -41.5 6.7 15
      vertex -41.5 0 15
      vertex -27 0 15
    endloop
  endfacet
  facet normal 0 0 1
    outer loop
      vertex -27 6.7 15
      vertex -41.5 6.7 15
      vertex -27 0 15
    endloop
  endfacet
  facet normal 1 0 0
    outer loop
      vertex -27 7.5 3
      vertex -27 7.5 14.2
      vertex -27 6.7 15
    endloop
  endfacet
  facet normal 1 0 0
    outer loop
      vertex -27 0 3
      vertex -27 7.5 3
      vertex -27 0 15
    endloop
  endfacet
  facet normal 1 0 0
    outer loop
      vertex -27 0 15
      vertex -27 7.5 3
      vertex -27 6.7 15
    endloop
  endfacet
  facet normal -1 0 0
    outer loop
      vertex -23 6.7 15
      vertex -23 9.7 12
      vertex -23 0 15
    endloop
  endfacet
  facet normal -1 0 0
    outer loop
      vertex -23 0 15
      vertex -23 9.7 12
      vertex -23 9.7 3
    endloop
  endfacet
  facet normal -1 0 0
    outer loop
      vertex -23 0 15
      vertex -23 9.7 3
      vertex -23 0 3
    endloop
  endfacet
  facet normal 0 0 1
    outer loop
      vertex -23 6.7 15
      vertex -23 0 15
      vertex -8.5 0 15
    endloop
  endfacet
  facet normal 0 0 1
    outer loop
      vertex -8.5 6.7 15
      vertex -23 6.7 15
      vertex -8.5 0 15
    endloop
  endfacet
  facet normal 0 0.707107 0.707107
    outer loop
      vertex -8.5 6.7 15
      vertex -8.5 9.7 12
      vertex -9.5 9.7 12
    endloop
  endfacet
  facet normal 0 0.707107 0.707107
    outer loop
      vertex -11 7.5 14.2
      vertex -8.5 6.7 15
      vertex -9.5 7.5 14.2
    endloop
  endfacet
  facet normal 0 0.707107 0.707107
    outer loop
      vertex -9.5 7.5 14.2
      vertex -8.5 6.7 15
      vertex -9.5 9.7 12
    endloop
  endfacet
  facet normal 0 0.707107 0.707107
    outer loop
      vertex -12.2 7.5 14.2
      vertex -8.5 6.7 15
      vertex -11 7.5 14.2
    endloop
  endfacet
  facet normal 0 0.707107 0.707107
    outer loop
      vertex -12.2 9.7 12
      vertex -11 7.5 14.2
      vertex -11 9.7 12
    endloop
  endfacet
  facet normal 0 0.707107 0.707107
    outer loop
      vertex -12.2 7.5 14.2
      vertex -11 7.5 14.2
      vertex -12.2 9.7 12
    endloop
  endfacet
  facet normal 0 0.707107 0.707107
    outer loop
      vertex -13.7 7.5 14.2
      vertex -8.5 6.7 15
      vertex -12.2 7.5 14.2
    endloop
  endfacet
  facet normal 0 0.707107 0.707107
    outer loop
      vertex -14.9 7.5 14.2
      vertex -8.5 6.7 15
      vertex -13.7 7.5 14.2
    endloop
  endfacet
  facet normal 0 0.707107 0.707107
    outer loop
      vertex -14.9 9.7 12
      vertex -13.7 7.5 14.2
      vertex -13.7 9.7 12
    endloop
  endfacet
  facet normal 0 0.707107 0.707107
    outer loop
      vertex -14.9 7.5 14.2
      vertex -13.7 7.5 14.2
      vertex -14.9 9.7 12
    endloop
  endfacet
  facet normal 0 0.707107 0.707107
    outer loop
      vertex -16.4 7.5 14.2
      vertex -8.5 6.7 15
      vertex -14.9 7.5 14.2
    endloop
  endfacet
  facet normal 0 0.707107 0.707107
    outer loop
      vertex -17.6 7.5 14.2
      vertex -8.5 6.7 15
      vertex -16.4 7.5 14.2
    endloop
  endfacet
  facet normal 0 0.707107 0.707107
    outer loop
      vertex -17.6 9.7 12
      vertex -16.4 7.5 14.2
      vertex -16.4 9.7 12
    endloop
  endfacet
  facet normal 0 0.707107 0.707107
    outer loop
      vertex -17.6 7.5 14.2
      vertex -16.4 7.5 14.2
      vertex -17.6 9.7 12
    endloop
  endfacet
  facet normal 0 0.707107 0.707107
    outer loop
      vertex -19.1 7.5 14.2
      vertex -8.5 6.7 15
      vertex -17.6 7.5 14.2
    endloop
  endfacet
  facet normal 0 0.707107 0.707107
    outer loop
      vertex -20.3 7.5 14.2
      vertex -8.5 6.7 15
      vertex -19.1 7.5 14.2
    endloop
  endfacet
  facet normal 0 0.707107 0.707107
    outer loop
      vertex -20.3 9.7 12
      vertex -19.1 7.5 14.2
      vertex -19.1 9.7 12
    endloop
  endfacet
  facet normal 0 0.707107 0.707107
    outer loop
      vertex -20.3 7.5 14.2
      vertex -19.1 7.5 14.2
      vertex -20.3 9.7 12
    endloop
  endfacet
  facet normal 0 0.707107 0.707107
    outer loop
      vertex -21.8 7.5 14.2
      vertex -8.5 6.7 15
      vertex -20.3 7.5 14.2
    endloop
  endfacet
  facet normal 0 0.707107 0.707107
    outer loop
      vertex -23 6.7 15
      vertex -8.5 6.7 15
      vertex -21.8 7.5 14.2
    endloop
  endfacet
  facet normal 0 0.707107 0.707107
    outer loop
      vertex -23 9.7 12
      vertex -21.8 7.5 14.2
      vertex -21.8 9.7 12
    endloop
  endfacet
  facet normal 0 0.707107 0.707107
    outer loop
      vertex -23 6.7 15
      vertex -21.8 7.5 14.2
      vertex -23 9.7 12
    endloop
  endfacet
  facet normal 0 1 0
    outer loop
      vertex -8.5 9.7 12
      vertex -8.5 9.7 3
      vertex -9.5 9.7 12
    endloop
  endfacet
  facet normal 0 1 0
    outer loop
      vertex -9.5 9.7 12
      vertex -8.5 9.7 3
      vertex -9.5 9.7 3
    endloop
  endfacet
  facet normal 0 -1 0
    outer loop
      vertex -8.5 10.3 3
      vertex -8.5 10.3 12.6
      vertex -9.5 10.3 12.6
    endloop
  endfacet
  facet normal 0 -1 0
    outer loop
      vertex -9.5 10.3 3
      vertex -8.5 10.3 3
      vertex -9.5 10.3 12.6
    endloop
  endfacet
  facet normal 0 -1 0
    outer loop
      vertex -9.5 10.3 3
      vertex -9.5 10.3 12.6
      vertex -11 10.3 12.6
    endloop
  endfacet
  facet normal 0 -1 0
    outer loop
      vertex -11 10.3 3
      vertex -9.5 10.3 3
      vertex -11 10.3 12.6
    endloop
  endfacet
  facet normal 0 -1 0
    outer loop
      vertex -11 10.3 3
      vertex -11 10.3 12.6
      vertex -12.2 10.3 12.6
    endloop
  endfacet
  facet normal 0 -1 0
    outer loop
      vertex -12.2 10.3 3
      vertex -11 10.3 3
      vertex -12.2 10.3 12.6
    endloop
  endfacet
  facet normal 0 -1 0
    outer loop
      vertex -12.2 10.3 3
      vertex -12.2 10.3 12.6
      vertex -13.7 10.3 12.6
    endloop
  endfacet
  facet normal 0 -1 0
    outer loop
      vertex -13.7 10.3 3
      vertex -12.2 10.3 3
      vertex -13.7 10.3 12.6
    endloop
  endfacet
  facet normal 0 -1 0
    outer loop
      vertex -13.7 10.3 3
      vertex -13.7 10.3 12.6
      vertex -14.9 10.3 12.6
    endloop
  endfacet
  facet normal 0 -1 0
    outer loop
      vertex -14.9 10.3 3
      vertex -13.7 10.3 3
      vertex -14.9 10.3 12.6
    endloop
  endfacet
  facet normal 0 -1 0
    outer loop
      vertex -14.9 10.3 3
      vertex -14.9 10.3 12.6
      vertex -16.4 10.3 12.6
    endloop
  endfacet
  facet normal 0 -1 0
    outer loop
      vertex -16.4 10.3 3
      vertex -14.9 10.3 3
      vertex -16.4 10.3 12.6
    endloop
  endfacet
  facet normal 0 -1 0
    outer loop
      vertex -16.4 10.3 3
      vertex -16.4 10.3 12.6
      vertex -17.6 10.3 12.6
    endloop
  endfacet
  facet normal 0 -1 0
    outer loop
      vertex -17.6 10.3 3
      vertex -16.4 10.3 3
      vertex -17.6 10.3 12.6
    endloop
  endfacet
  facet normal 0 -1 0
    outer loop
      vertex -17.6 10.3 3
      vertex -17.6 10.3 12.6
      vertex -19.1 10.3 12.6
    endloop
  endfacet
  facet normal 0 -1 0
    outer loop
      vertex -19.1 10.3 3
      vertex -17.6 10.3 3
      vertex -19.1 10.3 12.6
    endloop
  endfacet
  facet normal 0 -1 0
    outer loop
      vertex -19.1 10.3 3
      vertex -19.1 10.3 12.6
      vertex -20.3 10.3 12.6
    endloop
  endfacet
  facet normal 0 -1 0
    outer loop
      vertex -20.3 10.3 3
      vertex -19.1 10.3 3
      vertex -20.3 10.3 12.6
    endloop
  endfacet
  facet normal 0 -1 0
    outer loop
      vertex -20.3 10.3 3
      vertex -20.3 10.3 12.6
      vertex -21.8 10.3 12.6
    endloop
  endfacet
  facet normal 0 -1 0
    outer loop
      vertex -21.8 10.3 3
      vertex -20.3 10.3 3
      vertex -21.8 10.3 12.6
    endloop
  endfacet
  facet normal 0 -1 0
    outer loop
      vertex -21.8 10.3 3
      vertex -21.8 10.3 12.6
      vertex -23 10.3 12.6
    endloop
  endfacet
  facet normal 0 -1 0
    outer loop
      vertex -23 10.3 3
      vertex -21.8 10.3 3
      vertex -23 10.3 12.6
    endloop
  endfacet
  facet normal 0 -1 0
    outer loop
      vertex -23 10.3 3
      vertex -23 10.3 12.6
      vertex -24.5 10.3 12.6
    endloop
  endfacet
  facet normal 0 -1 0
    outer loop
      vertex -24.5 10.3 3
      vertex -23 10.3 3
      vertex -24.5 10.3 12.6
    endloop
  endfacet
  facet normal 0 -1 0
    outer loop
      vertex -24.5 10.3 3
      vertex -24.5 10.3 12.6
      vertex -25.7 10.3 12.6
    endloop
  endfacet
  facet normal 0 -1 0
    outer loop
      vertex -25.7 10.3 3
      vertex -24.5 10.3 3
      vertex -25.7 10.3 12.6
    endloop
  endfacet
  facet normal 0 -1 0
    outer loop
      vertex -25.7 10.3 3
      vertex -25.7 10.3 12.6
      vertex -27.2 10.3 12.6
    endloop
  endfacet
  facet normal 0 -1 0
    outer loop
      vertex -27.2 10.3 3
      vertex -25.7 10.3 3
      vertex -27.2 10.3 12.6
    endloop
  endfacet
  facet normal 0 -1 0
    outer loop
      vertex -27.2 10.3 3
      vertex -27.2 10.3 12.6
      vertex -28.4 10.3 12.6
    endloop
  endfacet
  facet normal 0 -1 0
    outer loop
      vertex -28.4 10.3 3
      vertex -27.2 10.3 3
      vertex -28.4 10.3 12.6
    endloop
  endfacet
  facet normal 0 -1 0
    outer loop
      vertex -28.4 10.3 3
      vertex -28.4 10.3 12.6
      vertex -29.9 10.3 12.6
    endloop
  endfacet
  facet normal 0 -1 0
    outer loop
      vertex -29.9 10.3 3
      vertex -28.4 10.3 3
      vertex -29.9 10.3 12.6
    endloop
  endfacet
  facet normal 0 -1 0
    outer loop
      vertex -29.9 10.3 3
      vertex -29.9 10.3 12.6
      vertex -31.1 10.3 12.6
    endloop
  endfacet
  facet normal 0 -1 0
    outer loop
      vertex -31.1 10.3 3
      vertex -29.9 10.3 3
      vertex -31.1 10.3 12.6
    endloop
  endfacet
  facet normal 0 -1 0
    outer loop
      vertex -31.1 10.3 3
      vertex -31.1 10.3 12.6
      vertex -32.6 10.3 12.6
    endloop
  endfacet
  facet normal 0 -1 0
    outer loop
      vertex -32.6 10.3 3
      vertex -31.1 10.3 3
      vertex -32.6 10.3 12.6
    endloop
  endfacet
  facet normal 0 -1 0
    outer loop
      vertex -32.6 10.3 3
      vertex -32.6 10.3 12.6
      vertex -33.8 10.3 12.6
    endloop
  endfacet
  facet normal 0 -1 0
    outer loop
      vertex -33.8 10.3 3
      vertex -32.6 10.3 3
      vertex -33.8 10.3 12.6
    endloop
  endfacet
  facet normal 0 -1 0
    outer loop
      vertex -33.8 10.3 3
      vertex -33.8 10.3 12.6
      vertex -35.3 10.3 12.6
    endloop
  endfacet
  facet normal 0 -1 0
    outer loop
      vertex -35.3 10.3 3
      vertex -33.8 10.3 3
      vertex -35.3 10.3 12.6
    endloop
  endfacet
  facet normal 0 -1 0
    outer loop
      vertex -35.3 10.3 3
      vertex -35.3 10.3 12.6
      vertex -36.5 10.3 12.6
    endloop
  endfacet
  facet normal 0 -1 0
    outer loop
      vertex -36.5 10.3 3
      vertex -35.3 10.3 3
      vertex -36.5 10.3 12.6
    endloop
  endfacet
  facet normal 0 -1 0
    outer loop
      vertex -36.5 10.3 3
      vertex -36.5 10.3 12.6
      vertex -38 10.3 12.6
    endloop
  endfacet
  facet normal 0 -1 0
    outer loop
      vertex -38 10.3 3
      vertex -36.5 10.3 3
      vertex -38 10.3 12.6
    endloop
  endfacet
  facet normal 0 -1 0
    outer loop
      vertex -38 10.3 3
      vertex -38 10.3 12.6
      vertex -39.2 10.3 12.6
    endloop
  endfacet
  facet normal 0 -1 0
    outer loop
      vertex -39.2 10.3 3
      vertex -38 10.3 3
      vertex -39.2 10.3 12.6
    endloop
  endfacet
  facet normal 0 -1 0
    outer loop
      vertex -39.2 10.3 3
      vertex -39.2 10.3 12.6
      vertex -40.7 10.3 12.6
    endloop
  endfacet
  facet normal 0 -1 0
    outer loop
      vertex -40.7 10.3 3
      vertex -39.2 10.3 3
      vertex -40.7 10.3 12.6
    endloop
  endfacet
  facet normal 1 0 0
    outer loop
      vertex -40.7 9.7 3
      vertex -40.7 9.7 12
      vertex -40.7 7.5 14.2
    endloop
  endfacet
  facet normal 1 0 0
    outer loop
      vertex -40.7 7.5 3
      vertex -40.7 9.7 3
      vertex -40.7 7.5 14.2
    endloop
  endfacet
  facet normal -1 0 0
    outer loop
      vertex -9.5 9.7 12
      vertex -9.5 9.7 3
      vertex -9.5 7.5 14.2
    endloop
  endfacet
  facet normal -1 0 0
    outer loop
      vertex -9.5 7.5 14.2
      vertex -9.5 9.7 3
      vertex -9.5 7.5 3
    endloop
  endfacet
  facet normal 0 1 0
    outer loop
      vertex -9.5 7.5 14.2
      vertex -9.5 7.5 3
      vertex -11 7.5 14.2
    endloop
  endfacet
  facet normal 0 1 0
    outer loop
      vertex -11 7.5 14.2
      vertex -9.5 7.5 3
      vertex -11 7.5 3
    endloop
  endfacet
  facet normal 1 0 0
    outer loop
      vertex -11 9.7 3
      vertex -11 9.7 12
      vertex -11 7.5 14.2
    endloop
  endfacet
  facet normal 1 0 0
    outer loop
      vertex -11 7.5 3
      vertex -11 9.7 3
      vertex -11 7.5 14.2
    endloop
  endfacet
  facet normal 0 1 0
    outer loop
      vertex -11 9.7 12
      vertex -11 9.7 3
      vertex -12.2 9.7 12
    endloop
  endfacet
  facet normal 0 1 0
    outer loop
      vertex -12.2 9.7 12
      vertex -11 9.7 3
      vertex -12.2 9.7 3
    endloop
  endfacet
  facet normal -1 0 0
    outer loop
      vertex -12.2 9.7 12
      vertex -12.2 9.7 3
      vertex -12.2 7.5 14.2
    endloop
  endfacet
  facet normal -1 0 0
    outer loop
      vertex -12.2 7.5 14.2
      vertex -12.2 9.7 3
      vertex -12.2 7.5 3
    endloop
  endfacet
  facet normal 0 1 0
    outer loop
      vertex -12.2 7.5 14.2
      vertex -12.2 7.5 3
      vertex -13.7 7.5 14.2
    endloop
  endfacet
  facet normal 0 1 0
    outer loop
      vertex -13.7 7.5 14.2
      vertex -12.2 7.5 3
      vertex -13.7 7.5 3
    endloop
  endfacet
  facet normal 1 0 0
    outer loop
      vertex -13.7 9.7 3
      vertex -13.7 9.7 12
      vertex -13.7 7.5 14.2
    endloop
  endfacet
  facet normal 1 0 0
    outer loop
      vertex -13.7 7.5 3
      vertex -13.7 9.7 3
      vertex -13.7 7.5 14.2
    endloop
  endfacet
  facet normal 0 1 0
    outer loop
      vertex -13.7 9.7 12
      vertex -13.7 9.7 3
      vertex -14.9 9.7 12
    endloop
  endfacet
  facet normal 0 1 0
    outer loop
      vertex -14.9 9.7 12
      vertex -13.7 9.7 3
      vertex -14.9 9.7 3
    endloop
  endfacet
  facet normal -1 0 0
    outer loop
      vertex -14.9 9.7 12
      vertex -14.9 9.7 3
      vertex -14.9 7.5 14.2
    endloop
  endfacet
  facet normal -1 0 0
    outer loop
      vertex -14.9 7.5 14.2
      vertex -14.9 9.7 3
      vertex -14.9 7.5 3
    endloop
  endfacet
  facet normal 0 1 0
    outer loop
      vertex -14.9 7.5 14.2
      vertex -14.9 7.5 3
      vertex -16.4 7.5 14.2
    endloop
  endfacet
  facet normal 0 1 0
    outer loop
      vertex -16.4 7.5 14.2
      vertex -14.9 7.5 3
      vertex -16.4 7.5 3
    endloop
  endfacet
  facet normal 1 0 0
    outer loop
      vertex -16.4 9.7 3
      vertex -16.4 9.7 12
      vertex -16.4 7.5 14.2
    endloop
  endfacet
  facet normal 1 0 0
    outer loop
      vertex -16.4 7.5 3
      vertex -16.4 9.7 3
      vertex -16.4 7.5 14.2
    endloop
  endfacet
  facet normal 0 1 0
    outer loop
      vertex -16.4 9.7 12
      vertex -16.4 9.7 3
      vertex -17.6 9.7 12
    endloop
  endfacet
  facet normal 0 1 0
    outer loop
      vertex -17.6 9.7 12
      vertex -16.4 9.7 3
      vertex -17.6 9.7 3
    endloop
  endfacet
  facet normal -1 0 0
    outer loop
      vertex -17.6 9.7 12
      vertex -17.6 9.7 3
      vertex -17.6 7.5 14.2
    endloop
  endfacet
  facet normal -1 0 0
    outer loop
      vertex -17.6 7.5 14.2
      vertex -17.6 9.7 3
      vertex -17.6 7.5 3
    endloop
  endfacet
  facet normal 0 1 0
    outer loop
      vertex -17.6 7.5 14.2
      vertex -17.6 7.5 3
      vertex -19.1 7.5 14.2
    endloop
  endfacet
  facet normal 0 1 0
    outer loop
      vertex -19.1 7.5 14.2
      vertex -17.6 7.5 3
      vertex -19.1 7.5 3
    endloop
  endfacet
  facet normal 1 0 0
    outer loop
      vertex -19.1 9.7 3
      vertex -19.1 9.7 12
      vertex -19.1 7.5 14.2
    endloop
  endfacet
  facet normal 1 0 0
    outer loop
      vertex -19.1 7.5 3
      vertex -19.1 9.7 3
      vertex -19.1 7.5 14.2
    endloop
  endfacet
  facet normal 0 1 0
    outer loop
      vertex -19.1 9.7 12
      vertex -19.1 9.7 3
      vertex -20.3 9.7 12
    endloop
  endfacet
  facet normal 0 1 0
    outer loop
      vertex -20.3 9.7 12
      vertex -19.1 9.7 3
      vertex -20.3 9.7 3
    endloop
  endfacet
  facet normal -1 0 0
    outer loop
      vertex -20.3 9.7 12
      vertex -20.3 9.7 3
      vertex -20.3 7.5 14.2
    endloop
  endfacet
  facet normal -1 0 0
    outer loop
      vertex -20.3 7.5 14.2
      vertex -20.3 9.7 3
      vertex -20.3 7.5 3
    endloop
  endfacet
  facet normal 0 1 0
    outer loop
      vertex -20.3 7.5 14.2
      vertex -20.3 7.5 3
      vertex -21.8 7.5 14.2
    endloop
  endfacet
  facet normal 0 1 0
    outer loop
      vertex -21.8 7.5 14.2
      vertex -20.3 7.5 3
      vertex -21.8 7.5 3
    endloop
  endfacet
  facet normal 1 0 0
    outer loop
      vertex -21.8 9.7 3
      vertex -21.8 9.7 12
      vertex -21.8 7.5 14.2
    endloop
  endfacet
  facet normal 1 0 0
    outer loop
      vertex -21.8 7.5 3
      vertex -21.8 9.7 3
      vertex -21.8 7.5 14.2
    endloop
  endfacet
  facet normal 0 1 0
    outer loop
      vertex -21.8 9.7 12
      vertex -21.8 9.7 3
      vertex -23 9.7 12
    endloop
  endfacet
  facet normal 0 1 0
    outer loop
      vertex -23 9.7 12
      vertex -21.8 9.7 3
      vertex -23 9.7 3
    endloop
  endfacet
  facet normal 0 1 0
    outer loop
      vertex -27 7.5 14.2
      vertex -27 7.5 3
      vertex -27.2 7.5 14.2
    endloop
  endfacet
  facet normal 0 1 0
    outer loop
      vertex -27.2 7.5 14.2
      vertex -27 7.5 3
      vertex -27.2 7.5 3
    endloop
  endfacet
  facet normal 1 0 0
    outer loop
      vertex -27.2 9.7 3
      vertex -27.2 9.7 12
      vertex -27.2 7.5 14.2
    endloop
  endfacet
  facet normal 1 0 0
    outer loop
      vertex -27.2 7.5 3
      vertex -27.2 9.7 3
      vertex -27.2 7.5 14.2
    endloop
  endfacet
  facet normal 0 1 0
    outer loop
      vertex -27.2 9.7 12
      vertex -27.2 9.7 3
      vertex -28.4 9.7 12
    endloop
  endfacet
  facet normal 0 1 0
    outer loop
      vertex -28.4 9.7 12
      vertex -27.2 9.7 3
      vertex -28.4 9.7 3
    endloop
  endfacet
  facet normal -1 0 0
    outer loop
      vertex -28.4 9.7 12
      vertex -28.4 9.7 3
      vertex -28.4 7.5 14.2
    endloop
  endfacet
  facet normal -1 0 0
    outer loop
      vertex -28.4 7.5 14.2
      vertex -28.4 9.7 3
      vertex -28.4 7.5 3
    endloop
  endfacet
  facet normal 0 1 0
    outer loop
      vertex -28.4 7.5 14.2
      vertex -28.4 7.5 3
      vertex -29.9 7.5 14.2
    endloop
  endfacet
  facet normal 0 1 0
    outer loop
      vertex -29.9 7.5 14.2
      vertex -28.4 7.5 3
      vertex -29.9 7.5 3
    endloop
  endfacet
  facet normal 1 0 0
    outer loop
      vertex -29.9 9.7 3
      vertex -29.9 9.7 12
      vertex -29.9 7.5 14.2
    endloop
  endfacet
  facet normal 1 0 0
    outer loop
      vertex -29.9 7.5 3
      vertex -29.9 9.7 3
      vertex -29.9 7.5 14.2
    endloop
  endfacet
  facet normal 0 1 0
    outer loop
      vertex -29.9 9.7 12
      vertex -29.9 9.7 3
      vertex -31.1 9.7 12
    endloop
  endfacet
  facet normal 0 1 0
    outer loop
      vertex -31.1 9.7 12
      vertex -29.9 9.7 3
      vertex -31.1 9.7 3
    endloop
  endfacet
  facet normal -1 0 0
    outer loop
      vertex -31.1 9.7 12
      vertex -31.1 9.7 3
      vertex -31.1 7.5 14.2
    endloop
  endfacet
  facet normal -1 0 0
    outer loop
      vertex -31.1 7.5 14.2
      vertex -31.1 9.7 3
      vertex -31.1 7.5 3
    endloop
  endfacet
  facet normal 0 1 0
    outer loop
      vertex -31.1 7.5 14.2
      vertex -31.1 7.5 3
      vertex -32.6 7.5 14.2
    endloop
  endfacet
  facet normal 0 1 0
    outer loop
      vertex -32.6 7.5 14.2
      vertex -31.1 7.5 3
      vertex -32.6 7.5 3
    endloop
  endfacet
  facet normal 1 0 0
    outer loop
      vertex -32.6 9.7 3
      vertex -32.6 9.7 12
      vertex -32.6 7.5 14.2
    endloop
  endfacet
  facet normal 1 0 0
    outer loop
      vertex -32.6 7.5 3
      vertex -32.6 9.7 3
      vertex -32.6 7.5 14.2
    endloop
  endfacet
  facet normal 0 1 0
    outer loop
      vertex -32.6 9.7 12
      vertex -32.6 9.7 3
      vertex -33.8 9.7 12
    endloop
  endfacet
  facet normal 0 1 0
    outer loop
      vertex -33.8 9.7 12
      vertex -32.6 9.7 3
      vertex -33.8 9.7 3
    endloop
  endfacet
  facet normal -1 0 0
    outer loop
      vertex -33.8 9.7 12
      vertex -33.8 9.7 3
      vertex -33.8 7.5 14.2
    endloop
  endfacet
  facet normal -1 0 0
    outer loop
      vertex -33.8 7.5 14.2
      vertex -33.8 9.7 3
      vertex -33.8 7.5 3
    endloop
  endfacet
  facet normal 0 1 0
    outer loop
      vertex -33.8 7.5 14.2
      vertex -33.8 7.5 3
      vertex -35.3 7.5 14.2
    endloop
  endfacet
  facet normal 0 1 0
    outer loop
      vertex -35.3 7.5 14.2
      vertex -33.8 7.5 3
      vertex -35.3 7.5 3
    endloop
  endfacet
  facet normal 1 0 0
    outer loop
      vertex -35.3 9.7 3
      vertex -35.3 9.7 12
      vertex -35.3 7.5 14.2
    endloop
  endfacet
  facet normal 1 0 0
    outer loop
      vertex -35.3 7.5 3
      vertex -35.3 9.7 3
      vertex -35.3 7.5 14.2
    endloop
  endfacet
  facet normal 0 1 0
    outer loop
      vertex -35.3 9.7 12
      vertex -35.3 9.7 3
      vertex -36.5 9.7 12
    endloop
  endfacet
  facet normal 0 1 0
    outer loop
      vertex -36.5 9.7 12
      vertex -35.3 9.7 3
      vertex -36.5 9.7 3
    endloop
  endfacet
  facet normal -1 0 0
    outer loop
      vertex -36.5 9.7 12
      vertex -36.5 9.7 3
      vertex -36.5 7.5 14.2
    endloop
  endfacet
  facet normal -1 0 0
    outer loop
      vertex -36.5 7.5 14.2
      vertex -36.5 9.7 3
      vertex -36.5 7.5 3
    endloop
  endfacet
  facet normal 0 1 0
    outer loop
      vertex -36.5 7.5 14.2
      vertex -36.5 7.5 3
      vertex -38 7.5 14.2
    endloop
  endfacet
  facet normal 0 1 0
    outer loop
      vertex -38 7.5 14.2
      vertex -36.5 7.5 3
      vertex -38 7.5 3
    endloop
  endfacet
  facet normal 1 0 0
    outer loop
      vertex -38 9.7 3
      vertex -38 9.7 12
      vertex -38 7.5 14.2
    endloop
  endfacet
  facet normal 1 0 0
    outer loop
      vertex -38 7.5 3
      vertex -38 9.7 3
      vertex -38 7.5 14.2
    endloop
  endfacet
  facet normal 0 1 0
    outer loop
      vertex -38 9.7 12
      vertex -38 9.7 3
      vertex -39.2 9.7 12
    endloop
  endfacet
  facet normal 0 1 0
    outer loop
      vertex -39.2 9.7 12
      vertex -38 9.7 3
      vertex -39.2 9.7 3
    endloop
  endfacet
  facet normal -1 0 0
    outer loop
      vertex -39.2 9.7 12
      vertex -39.2 9.7 3
      vertex -39.2 7.5 14.2
    endloop
  endfacet
  facet normal -1 0 0
    outer loop
      vertex -39.2 7.5 14.2
      vertex -39.2 9.7 3
      vertex -39.2 7.5 3
    endloop
  endfacet
  facet normal 0 1 0
    outer loop
      vertex -39.2 7.5 14.2
      vertex -39.2 7.5 3
      vertex -40.7 7.5 14.2
    endloop
  endfacet
  facet normal 0 1 0
    outer loop
      vertex -40.7 7.5 14.2
      vertex -39.2 7.5 3
      vertex -40.7 7.5 3
    endloop
  endfacet
endsolid OpenSCAD_Model
