solid OpenSCAD_Model
  facet normal -1 0 0
    outer loop
      vertex -8 10 0
      vertex -8 10 10
      vertex -8 30 0
    endloop
  endfacet
  facet normal -1 0 0
    outer loop
      vertex -8 30 0
      vertex -8 10 10
      vertex -8 30 10
    endloop
  endfacet
  facet normal -0.992709 -0.120536 0
    outer loop
      vertex -8 10 0
      vertex -7.76753 8.08547 0
      vertex -8 10 10
    endloop
  endfacet
  facet normal -0.992709 -0.120536 0
    outer loop
      vertex -8 10 10
      vertex -7.76753 8.08547 0
      vertex -7.76753 8.08547 10
    endloop
  endfacet
  facet normal 0 0 -1
    outer loop
      vertex -8 10 0
      vertex -8 30 0
      vertex -7.76753 8.08547 0
    endloop
  endfacet
  facet normal 0 0 -1
    outer loop
      vertex -7.76753 8.08547 0
      vertex -8 30 0
      vertex -7.76753 31.9145 0
    endloop
  endfacet
  facet normal 0 0 -1
    outer loop
      vertex -7.76753 8.08547 0
      vertex -7.76753 31.9145 0
      vertex -7.08365 33.7178 0
    endloop
  endfacet
  facet normal 0 0 -1
    outer loop
      vertex -7.76753 8.08547 0
      vertex -7.08365 33.7178 0
      vertex -5.98809 35.305 0
    endloop
  endfacet
  facet normal 0 0 -1
    outer loop
      vertex -7.76753 8.08547 0
      vertex -5.98809 35.305 0
      vertex -4.54452 36.5839 0
    endloop
  endfacet
  facet normal 0 0 -1
    outer loop
      vertex -4.35 30 0
      vertex -4.54452 36.5839 0
      vertex -2.83684 37.4801 0
    endloop
  endfacet
  facet normal 0 0 -1
    outer loop
      vertex -2.71218 33.401 0
      vertex -2.83684 37.4801 0
      vertex -0.964293 37.9417 0
    endloop
  endfacet
  facet normal 0 0 -1
    outer loop
      vertex -0.967966 34.2409 0
      vertex -0.964293 37.9417 0
      vertex 0 37.9417 0
    endloop
  endfacet
  facet normal 0 0 -1
    outer loop
      vertex 0 37.9417 0
      vertex 0 38 0
      vertex 8 38 0
    endloop
  endfacet
  facet normal 0 0 -1
    outer loop
      vertex 14.8753 43.5008 0
      vertex 3.91921 28.1126 0
      vertex 14.0253 42.8832 0
    endloop
  endfacet
  facet normal 0 0 -1
    outer loop
      vertex 8 44.5 0
      vertex 8.33169 46.3811 0
      vertex 8 38 0
    endloop
  endfacet
  facet normal 0 0 -1
    outer loop
      vertex 8 38 0
      vertex 8.33169 46.3811 0
      vertex 9.28676 48.0353 0
    endloop
  endfacet
  facet normal 0 0 -1
    outer loop
      vertex 8 38 0
      vertex 9.28676 48.0353 0
      vertex 10.75 49.2631 0
    endloop
  endfacet
  facet normal 0 0 -1
    outer loop
      vertex 8 38 0
      vertex 10.75 49.2631 0
      vertex 12.5449 49.9164 0
    endloop
  endfacet
  facet normal 0 0 -1
    outer loop
      vertex 8 38 0
      vertex 12.5449 49.9164 0
      vertex 14.4551 49.9164 0
    endloop
  endfacet
  facet normal 0 0 -1
    outer loop
      vertex 15.2 44.5 0
      vertex 17.7132 48.0353 0
      vertex 14.8753 43.5008 0
    endloop
  endfacet
  facet normal 0 0 -1
    outer loop
      vertex 12.9747 46.1168 0
      vertex 14.4551 49.9164 0
      vertex 16.25 49.2631 0
    endloop
  endfacet
  facet normal 0 0 -1
    outer loop
      vertex 14.8753 45.4992 0
      vertex 16.25 49.2631 0
      vertex 17.7132 48.0353 0
    endloop
  endfacet
  facet normal 0 0 -1
    outer loop
      vertex 14.8753 43.5008 0
      vertex 17.7132 48.0353 0
      vertex 18.6683 46.3811 0
    endloop
  endfacet
  facet normal 0 0 -1
    outer loop
      vertex -7.76753 8.08547 0
      vertex 18.6683 46.3811 0
      vertex 19 44.5 0
    endloop
  endfacet
  facet normal 0 0 -1
    outer loop
      vertex -7.76753 8.08547 0
      vertex 19 44.5 0
      vertex 18.6683 42.6189 0
    endloop
  endfacet
  facet normal 0 0 -1
    outer loop
      vertex 17 40.3662 0
      vertex 18.6683 42.6189 0
      vertex 17.7132 40.9647 0
    endloop
  endfacet
  facet normal 0 0 -1
    outer loop
      vertex -7.76753 8.08547 0
      vertex 18.6683 42.6189 0
      vertex 17 40.3662 0
    endloop
  endfacet
  facet normal 0 0 -1
    outer loop
      vertex -3.91921 8.11261 0
      vertex -7.76753 8.08547 0
      vertex -4.35 10 0
    endloop
  endfacet
  facet normal 0 0 -1
    outer loop
      vertex 14.8753 14.4992 0
      vertex 17.7132 17.0353 0
      vertex 18.6683 15.3811 0
    endloop
  endfacet
  facet normal 0 0 -1
    outer loop
      vertex 15.2 13.5 0
      vertex 18.6683 15.3811 0
      vertex 19 13.5 0
    endloop
  endfacet
  facet normal 0 0 -1
    outer loop
      vertex 14.0253 11.8832 0
      vertex 19 13.5 0
      vertex 18.6683 11.6189 0
    endloop
  endfacet
  facet normal 0 0 -1
    outer loop
      vertex 4.35 10 0
      vertex 16.25 8.73686 0
      vertex 3.91921 8.11261 0
    endloop
  endfacet
  facet normal 0 0 -1
    outer loop
      vertex 3.91921 8.11261 0
      vertex 16.25 8.73686 0
      vertex 14.4551 8.08356 0
    endloop
  endfacet
  facet normal 0 0 -1
    outer loop
      vertex 3.91921 8.11261 0
      vertex 7.08365 6.28221 0
      vertex 2.71218 6.59903 0
    endloop
  endfacet
  facet normal 0 0 -1
    outer loop
      vertex 3.91921 8.11261 0
      vertex 7.73512 8 0
      vertex 7.08365 6.28221 0
    endloop
  endfacet
  facet normal 0 0 -1
    outer loop
      vertex -0.967966 5.75906 0
      vertex 4.54452 3.41613 0
      vertex -7.76753 8.08547 0
    endloop
  endfacet
  facet normal 0 0 -1
    outer loop
      vertex -7.76753 8.08547 0
      vertex 4.54452 3.41613 0
      vertex 2.83684 2.51987 0
    endloop
  endfacet
  facet normal 0 0 -1
    outer loop
      vertex -7.76753 8.08547 0
      vertex 2.83684 2.51987 0
      vertex 0.964293 2.05833 0
    endloop
  endfacet
  facet normal 0 0 -1
    outer loop
      vertex -7.76753 8.08547 0
      vertex 0.964293 2.05833 0
      vertex -0.964293 2.05833 0
    endloop
  endfacet
  facet normal 0 0 -1
    outer loop
      vertex -7.76753 8.08547 0
      vertex -0.964293 2.05833 0
      vertex -2.83684 2.51987 0
    endloop
  endfacet
  facet normal 0 0 -1
    outer loop
      vertex -7.76753 8.08547 0
      vertex -2.83684 2.51987 0
      vertex -4.54452 3.41613 0
    endloop
  endfacet
  facet normal 0 0 -1
    outer loop
      vertex -7.76753 8.08547 0
      vertex -4.54452 3.41613 0
      vertex -5.98809 4.69502 0
    endloop
  endfacet
  facet normal 0 0 -1
    outer loop
      vertex -7.76753 8.08547 0
      vertex -5.98809 4.69502 0
      vertex -7.08365 6.28221 0
    endloop
  endfacet
  facet normal 0 0 -1
    outer loop
      vertex -2.71218 6.59903 0
      vertex -7.76753 8.08547 0
      vertex -3.91921 8.11261 0
    endloop
  endfacet
  facet normal 0 0 -1
    outer loop
      vertex 2.71218 6.59903 0
      vertex 5.98809 4.69502 0
      vertex 0.967966 5.75906 0
    endloop
  endfacet
  facet normal 0 0 -1
    outer loop
      vertex 0.967966 5.75906 0
      vertex 4.54452 3.41613 0
      vertex -0.967966 5.75906 0
    endloop
  endfacet
  facet normal 0 0 -1
    outer loop
      vertex -2.71218 6.59903 0
      vertex -0.967966 5.75906 0
      vertex -7.76753 8.08547 0
    endloop
  endfacet
  facet normal 0 0 -1
    outer loop
      vertex 5.98809 4.69502 0
      vertex 4.54452 3.41613 0
      vertex 0.967966 5.75906 0
    endloop
  endfacet
  facet normal 0 0 -1
    outer loop
      vertex 3.91921 8.11261 0
      vertex 14 8 0
      vertex 7.73512 8 0
    endloop
  endfacet
  facet normal 0 0 -1
    outer loop
      vertex 7.08365 6.28221 0
      vertex 5.98809 4.69502 0
      vertex 2.71218 6.59903 0
    endloop
  endfacet
  facet normal 0 0 -1
    outer loop
      vertex 4.35 10 0
      vertex 17.7132 9.96467 0
      vertex 16.25 8.73686 0
    endloop
  endfacet
  facet normal 0 0 -1
    outer loop
      vertex 12.9747 11.8832 0
      vertex 4.35 10 0
      vertex 12.1247 12.5008 0
    endloop
  endfacet
  facet normal 0 0 -1
    outer loop
      vertex 11.8 13.5 0
      vertex 3.91921 11.8874 0
      vertex 12.1247 14.4992 0
    endloop
  endfacet
  facet normal 0 0 -1
    outer loop
      vertex -3.91921 28.1126 0
      vertex -7.76753 8.08547 0
      vertex -4.35 30 0
    endloop
  endfacet
  facet normal 0 0 -1
    outer loop
      vertex 2.71218 13.401 0
      vertex 17 17.6338 0
      vertex 17.7132 17.0353 0
    endloop
  endfacet
  facet normal 0 0 -1
    outer loop
      vertex 2.71218 13.401 0
      vertex 17.7132 17.0353 0
      vertex 3.91921 11.8874 0
    endloop
  endfacet
  facet normal 0 0 -1
    outer loop
      vertex -7.76753 8.08547 0
      vertex -2.71218 13.401 0
      vertex -3.91921 11.8874 0
    endloop
  endfacet
  facet normal 0 0 -1
    outer loop
      vertex -7.76753 8.08547 0
      vertex -3.91921 11.8874 0
      vertex -4.35 10 0
    endloop
  endfacet
  facet normal 0 0 -1
    outer loop
      vertex -7.76753 8.08547 0
      vertex -4.54452 36.5839 0
      vertex -4.35 30 0
    endloop
  endfacet
  facet normal 0 0 -1
    outer loop
      vertex -3.91921 31.8874 0
      vertex -4.35 30 0
      vertex -2.83684 37.4801 0
    endloop
  endfacet
  facet normal 0 0 -1
    outer loop
      vertex -2.71218 26.599 0
      vertex -7.76753 8.08547 0
      vertex -3.91921 28.1126 0
    endloop
  endfacet
  facet normal 0 0 -1
    outer loop
      vertex -0.967966 34.2409 0
      vertex 0 37.9417 0
      vertex 0.967966 34.2409 0
    endloop
  endfacet
  facet normal 0 0 -1
    outer loop
      vertex 2.71218 26.599 0
      vertex -7.76753 8.08547 0
      vertex 0.967966 25.7591 0
    endloop
  endfacet
  facet normal 0 0 -1
    outer loop
      vertex -2.71218 26.599 0
      vertex -0.967966 25.7591 0
      vertex -7.76753 8.08547 0
    endloop
  endfacet
  facet normal 0 0 -1
    outer loop
      vertex 2.71218 33.401 0
      vertex 8 38 0
      vertex 3.91921 31.8874 0
    endloop
  endfacet
  facet normal 0 0 -1
    outer loop
      vertex -0.967966 25.7591 0
      vertex 0.967966 25.7591 0
      vertex -7.76753 8.08547 0
    endloop
  endfacet
  facet normal 0 0 -1
    outer loop
      vertex 3.91921 31.8874 0
      vertex 8 38 0
      vertex 4.35 30 0
    endloop
  endfacet
  facet normal 0 0 -1
    outer loop
      vertex 4.35 30 0
      vertex 11.8 44.5 0
      vertex 12.1247 43.5008 0
    endloop
  endfacet
  facet normal 0 0 -1
    outer loop
      vertex 12.9747 42.8832 0
      vertex 3.91921 28.1126 0
      vertex 4.35 30 0
    endloop
  endfacet
  facet normal 0 0 -1
    outer loop
      vertex 12.9747 42.8832 0
      vertex 4.35 30 0
      vertex 12.1247 43.5008 0
    endloop
  endfacet
  facet normal 0 0 -1
    outer loop
      vertex 3.91921 28.1126 0
      vertex -7.76753 8.08547 0
      vertex 2.71218 26.599 0
    endloop
  endfacet
  facet normal 0 0 -1
    outer loop
      vertex 0 37.9417 0
      vertex 8 38 0
      vertex 2.71218 33.401 0
    endloop
  endfacet
  facet normal 0 0 -1
    outer loop
      vertex 0 37.9417 0
      vertex 2.71218 33.401 0
      vertex 0.967966 34.2409 0
    endloop
  endfacet
  facet normal 0 0 -1
    outer loop
      vertex 8 38 0
      vertex 12.1247 45.4992 0
      vertex 4.35 30 0
    endloop
  endfacet
  facet normal 0 0 -1
    outer loop
      vertex 8 38 0
      vertex 14.4551 49.9164 0
      vertex 12.1247 45.4992 0
    endloop
  endfacet
  facet normal 0 0 -1
    outer loop
      vertex 12.1247 14.4992 0
      vertex 3.91921 11.8874 0
      vertex 12.9747 15.1168 0
    endloop
  endfacet
  facet normal 0 0 -1
    outer loop
      vertex -3.91921 31.8874 0
      vertex -2.83684 37.4801 0
      vertex -2.71218 33.401 0
    endloop
  endfacet
  facet normal 0 0 -1
    outer loop
      vertex -2.71218 33.401 0
      vertex -0.964293 37.9417 0
      vertex -0.967966 34.2409 0
    endloop
  endfacet
  facet normal 0 0 -1
    outer loop
      vertex 3.91921 8.11261 0
      vertex 14 8.08356 0
      vertex 14 8 0
    endloop
  endfacet
  facet normal 0 0 -1
    outer loop
      vertex 3.91921 8.11261 0
      vertex 14.4551 8.08356 0
      vertex 14 8.08356 0
    endloop
  endfacet
  facet normal 0 0 -1
    outer loop
      vertex 15.2 13.5 0
      vertex 19 13.5 0
      vertex 14.8753 12.5008 0
    endloop
  endfacet
  facet normal 0 0 -1
    outer loop
      vertex 4.35 10 0
      vertex 12.9747 11.8832 0
      vertex 18.6683 11.6189 0
    endloop
  endfacet
  facet normal 0 0 -1
    outer loop
      vertex 12.9747 11.8832 0
      vertex 14.0253 11.8832 0
      vertex 18.6683 11.6189 0
    endloop
  endfacet
  facet normal 0 0 -1
    outer loop
      vertex 14.8753 12.5008 0
      vertex 19 13.5 0
      vertex 14.0253 11.8832 0
    endloop
  endfacet
  facet normal 0 0 -1
    outer loop
      vertex 12.9747 46.1168 0
      vertex 16.25 49.2631 0
      vertex 14.0253 46.1168 0
    endloop
  endfacet
  facet normal 0 0 -1
    outer loop
      vertex 14.8753 14.4992 0
      vertex 18.6683 15.3811 0
      vertex 15.2 13.5 0
    endloop
  endfacet
  facet normal 0 0 -1
    outer loop
      vertex 14.0253 15.1168 0
      vertex 17.7132 17.0353 0
      vertex 14.8753 14.4992 0
    endloop
  endfacet
  facet normal 0 0 -1
    outer loop
      vertex 12.9747 15.1168 0
      vertex 17.7132 17.0353 0
      vertex 14.0253 15.1168 0
    endloop
  endfacet
  facet normal 0 0 -1
    outer loop
      vertex 3.91921 11.8874 0
      vertex 17.7132 17.0353 0
      vertex 12.9747 15.1168 0
    endloop
  endfacet
  facet normal 0 0 -1
    outer loop
      vertex 11.8 44.5 0
      vertex 4.35 30 0
      vertex 12.1247 45.4992 0
    endloop
  endfacet
  facet normal 0 0 -1
    outer loop
      vertex 14.8753 43.5008 0
      vertex -7.76753 8.08547 0
      vertex 3.91921 28.1126 0
    endloop
  endfacet
  facet normal 0 0 -1
    outer loop
      vertex 3.91921 28.1126 0
      vertex 12.9747 42.8832 0
      vertex 14.0253 42.8832 0
    endloop
  endfacet
  facet normal 0 0 -1
    outer loop
      vertex 14.8753 45.4992 0
      vertex 17.7132 48.0353 0
      vertex 15.2 44.5 0
    endloop
  endfacet
  facet normal 0 0 -1
    outer loop
      vertex -7.76753 8.08547 0
      vertex 14.8753 43.5008 0
      vertex 18.6683 46.3811 0
    endloop
  endfacet
  facet normal 0 0 -1
    outer loop
      vertex 14.0253 46.1168 0
      vertex 16.25 49.2631 0
      vertex 14.8753 45.4992 0
    endloop
  endfacet
  facet normal 0 0 -1
    outer loop
      vertex 12.1247 45.4992 0
      vertex 14.4551 49.9164 0
      vertex 12.9747 46.1168 0
    endloop
  endfacet
  facet normal 0 0 -1
    outer loop
      vertex 17 17.6338 0
      vertex 2.71218 13.401 0
      vertex 0.967966 14.2409 0
    endloop
  endfacet
  facet normal 0 0 -1
    outer loop
      vertex 17 17.6338 0
      vertex 0.967966 14.2409 0
      vertex -0.967966 14.2409 0
    endloop
  endfacet
  facet normal 0 0 -1
    outer loop
      vertex -2.71218 13.401 0
      vertex -7.76753 8.08547 0
      vertex 17 40.3662 0
    endloop
  endfacet
  facet normal 0 0 -1
    outer loop
      vertex -0.967966 14.2409 0
      vertex -2.71218 13.401 0
      vertex 17 40.3662 0
    endloop
  endfacet
  facet normal 0 0 -1
    outer loop
      vertex 17 17.6338 0
      vertex -0.967966 14.2409 0
      vertex 17 40.3662 0
    endloop
  endfacet
  facet normal 0 0 -1
    outer loop
      vertex 4.35 10 0
      vertex 18.6683 11.6189 0
      vertex 17.7132 9.96467 0
    endloop
  endfacet
  facet normal 0 0 -1
    outer loop
      vertex 3.91921 11.8874 0
      vertex 11.8 13.5 0
      vertex 12.1247 12.5008 0
    endloop
  endfacet
  facet normal 0 0 -1
    outer loop
      vertex 3.91921 11.8874 0
      vertex 12.1247 12.5008 0
      vertex 4.35 10 0
    endloop
  endfacet
  facet normal -0.992709 0.120536 0
    outer loop
      vertex -8 30 0
      vertex -8 30 10
      vertex -7.76753 31.9145 0
    endloop
  endfacet
  facet normal -0.992709 0.120536 0
    outer loop
      vertex -7.76753 31.9145 0
      vertex -8 30 10
      vertex -7.76753 31.9145 10
    endloop
  endfacet
  facet normal 0 0 1
    outer loop
      vertex -8 30 10
      vertex -8 10 10
      vertex -7.76753 8.08547 10
    endloop
  endfacet
  facet normal 0 0 1
    outer loop
      vertex -5.98809 4.69502 10
      vertex -8 30 10
      vertex -7.08365 6.28221 10
    endloop
  endfacet
  facet normal 0 0 1
    outer loop
      vertex -7.08365 6.28221 10
      vertex -8 30 10
      vertex -7.76753 8.08547 10
    endloop
  endfacet
  facet normal 0 0 1
    outer loop
      vertex -4.54452 3.41613 10
      vertex -8 30 10
      vertex -5.98809 4.69502 10
    endloop
  endfacet
  facet normal 0 0 1
    outer loop
      vertex -4.35 10 10
      vertex -8 30 10
      vertex -4.54452 3.41613 10
    endloop
  endfacet
  facet normal 0 0 1
    outer loop
      vertex -4.35 10 10
      vertex -3.91921 11.8874 10
      vertex -8 30 10
    endloop
  endfacet
  facet normal 0 0 1
    outer loop
      vertex 2.71218 6.59903 10
      vertex 0.967966 5.75906 10
      vertex 2.83684 2.51987 10
    endloop
  endfacet
  facet normal 0 0 1
    outer loop
      vertex 0.967966 14.2409 10
      vertex 2.71218 13.401 10
      vertex -8 30 10
    endloop
  endfacet
  facet normal 0 0 1
    outer loop
      vertex 14 8 10
      vertex -8 30 10
      vertex 7.73512 8 10
    endloop
  endfacet
  facet normal 0 0 1
    outer loop
      vertex 11.208 10.8549 10
      vertex -8 30 10
      vertex 14 8 10
    endloop
  endfacet
  facet normal 0 0 1
    outer loop
      vertex 10.1418 12.5139 10
      vertex 10.1418 14.4861 10
      vertex -8 30 10
    endloop
  endfacet
  facet normal 0 0 1
    outer loop
      vertex 13.0019 10.0356 10
      vertex 14 8.08356 10
      vertex 14.4551 8.08356 10
    endloop
  endfacet
  facet normal 0 0 1
    outer loop
      vertex -3.91921 31.8874 10
      vertex -2.71218 33.401 10
      vertex -8 30 10
    endloop
  endfacet
  facet normal 0 0 1
    outer loop
      vertex -4.35 30 10
      vertex -3.91921 31.8874 10
      vertex -8 30 10
    endloop
  endfacet
  facet normal 0 0 1
    outer loop
      vertex 2.71218 33.401 10
      vertex 3.91921 31.8874 10
      vertex 17 40.3662 10
    endloop
  endfacet
  facet normal 0 0 1
    outer loop
      vertex 0.967966 25.7591 10
      vertex 18.6683 15.3811 10
      vertex 17.7132 17.0353 10
    endloop
  endfacet
  facet normal 0 0 1
    outer loop
      vertex 8 38 10
      vertex 0.967966 34.2409 10
      vertex 18.6683 42.6189 10
    endloop
  endfacet
  facet normal 0 0 1
    outer loop
      vertex 0.967966 34.2409 10
      vertex 17.7132 40.9647 10
      vertex 18.6683 42.6189 10
    endloop
  endfacet
  facet normal 0 0 1
    outer loop
      vertex -0.967966 34.2409 10
      vertex 0 37.9417 10
      vertex -2.71218 33.401 10
    endloop
  endfacet
  facet normal 0 0 1
    outer loop
      vertex 10.75 49.2631 10
      vertex 8.33169 46.3811 10
      vertex 12.5449 49.9164 10
    endloop
  endfacet
  facet normal 0 0 1
    outer loop
      vertex 12.5449 49.9164 10
      vertex 8 44.5 10
      vertex 14.4551 49.9164 10
    endloop
  endfacet
  facet normal 0 0 1
    outer loop
      vertex -0.967966 34.2409 10
      vertex 0.967966 34.2409 10
      vertex 8 38 10
    endloop
  endfacet
  facet normal 0 0 1
    outer loop
      vertex 14.954 41.3163 10
      vertex 8 38 10
      vertex 18.6683 42.6189 10
    endloop
  endfacet
  facet normal 0 0 1
    outer loop
      vertex 0 37.9417 10
      vertex -0.964293 37.9417 10
      vertex -8 30 10
    endloop
  endfacet
  facet normal 0 0 1
    outer loop
      vertex -2.71218 6.59903 10
      vertex -3.91921 8.11261 10
      vertex -2.83684 2.51987 10
    endloop
  endfacet
  facet normal 0 0 1
    outer loop
      vertex -2.71218 13.401 10
      vertex -0.967966 14.2409 10
      vertex -8 30 10
    endloop
  endfacet
  facet normal 0 0 1
    outer loop
      vertex -2.83684 37.4801 10
      vertex -8 30 10
      vertex -0.964293 37.9417 10
    endloop
  endfacet
  facet normal 0 0 1
    outer loop
      vertex -4.54452 36.5839 10
      vertex -8 30 10
      vertex -2.83684 37.4801 10
    endloop
  endfacet
  facet normal 0 0 1
    outer loop
      vertex -5.98809 35.305 10
      vertex -8 30 10
      vertex -4.54452 36.5839 10
    endloop
  endfacet
  facet normal 0 0 1
    outer loop
      vertex -7.08365 33.7178 10
      vertex -8 30 10
      vertex -5.98809 35.305 10
    endloop
  endfacet
  facet normal 0 0 1
    outer loop
      vertex -7.76753 31.9145 10
      vertex -8 30 10
      vertex -7.08365 33.7178 10
    endloop
  endfacet
  facet normal 0 0 1
    outer loop
      vertex -2.83684 2.51987 10
      vertex -3.91921 8.11261 10
      vertex -4.54452 3.41613 10
    endloop
  endfacet
  facet normal 0 0 1
    outer loop
      vertex -3.91921 8.11261 10
      vertex -4.35 10 10
      vertex -4.54452 3.41613 10
    endloop
  endfacet
  facet normal 0 0 1
    outer loop
      vertex -3.91921 11.8874 10
      vertex -2.71218 13.401 10
      vertex -8 30 10
    endloop
  endfacet
  facet normal 0 0 1
    outer loop
      vertex -0.967966 5.75906 10
      vertex -2.71218 6.59903 10
      vertex -0.964293 2.05833 10
    endloop
  endfacet
  facet normal 0 0 1
    outer loop
      vertex 11.208 47.1451 10
      vertex 13.0019 47.9644 10
      vertex 14.4551 49.9164 10
    endloop
  endfacet
  facet normal 0 0 1
    outer loop
      vertex -0.967966 14.2409 10
      vertex 0.967966 14.2409 10
      vertex -8 30 10
    endloop
  endfacet
  facet normal 0 0 1
    outer loop
      vertex 17 13.5 10
      vertex 16.4444 11.6078 10
      vertex 18.6683 11.6189 10
    endloop
  endfacet
  facet normal 0 0 1
    outer loop
      vertex 4.35 10 10
      vertex 3.91921 8.11261 10
      vertex 5.98809 4.69502 10
    endloop
  endfacet
  facet normal 0 0 1
    outer loop
      vertex 4.35 10 10
      vertex 5.98809 4.69502 10
      vertex 7.08365 6.28221 10
    endloop
  endfacet
  facet normal 0 0 1
    outer loop
      vertex 7.73512 8 10
      vertex -8 30 10
      vertex 2.71218 13.401 10
    endloop
  endfacet
  facet normal 0 0 1
    outer loop
      vertex 7.73512 8 10
      vertex 3.91921 11.8874 10
      vertex 7.08365 6.28221 10
    endloop
  endfacet
  facet normal 0 0 1
    outer loop
      vertex 7.73512 8 10
      vertex 2.71218 13.401 10
      vertex 3.91921 11.8874 10
    endloop
  endfacet
  facet normal 0 0 1
    outer loop
      vertex 3.91921 8.11261 10
      vertex 2.71218 6.59903 10
      vertex 4.54452 3.41613 10
    endloop
  endfacet
  facet normal 0 0 1
    outer loop
      vertex 3.91921 11.8874 10
      vertex 4.35 10 10
      vertex 7.08365 6.28221 10
    endloop
  endfacet
  facet normal 0 0 1
    outer loop
      vertex 5.98809 4.69502 10
      vertex 3.91921 8.11261 10
      vertex 4.54452 3.41613 10
    endloop
  endfacet
  facet normal 0 0 1
    outer loop
      vertex 4.54452 3.41613 10
      vertex 2.71218 6.59903 10
      vertex 2.83684 2.51987 10
    endloop
  endfacet
  facet normal 0 0 1
    outer loop
      vertex 2.83684 2.51987 10
      vertex 0.967966 5.75906 10
      vertex 0.964293 2.05833 10
    endloop
  endfacet
  facet normal 0 0 1
    outer loop
      vertex 0.967966 5.75906 10
      vertex -0.967966 5.75906 10
      vertex 0.964293 2.05833 10
    endloop
  endfacet
  facet normal 0 0 1
    outer loop
      vertex 0.964293 2.05833 10
      vertex -0.967966 5.75906 10
      vertex -0.964293 2.05833 10
    endloop
  endfacet
  facet normal 0 0 1
    outer loop
      vertex -0.964293 2.05833 10
      vertex -2.71218 6.59903 10
      vertex -2.83684 2.51987 10
    endloop
  endfacet
  facet normal 0 0 1
    outer loop
      vertex 11.208 10.8549 10
      vertex 10.1418 12.5139 10
      vertex -8 30 10
    endloop
  endfacet
  facet normal 0 0 1
    outer loop
      vertex 13.0019 16.9644 10
      vertex 14.954 16.6837 10
      vertex -0.967966 25.7591 10
    endloop
  endfacet
  facet normal 0 0 1
    outer loop
      vertex -4.35 30 10
      vertex -8 30 10
      vertex -3.91921 28.1126 10
    endloop
  endfacet
  facet normal 0 0 1
    outer loop
      vertex 0.967966 25.7591 10
      vertex -0.967966 25.7591 10
      vertex 18.6683 15.3811 10
    endloop
  endfacet
  facet normal 0 0 1
    outer loop
      vertex 0.967966 34.2409 10
      vertex 2.71218 33.401 10
      vertex 17 40.3662 10
    endloop
  endfacet
  facet normal 0 0 1
    outer loop
      vertex 8 38 10
      vertex 0 37.9417 10
      vertex -0.967966 34.2409 10
    endloop
  endfacet
  facet normal 0 0 1
    outer loop
      vertex -2.71218 26.599 10
      vertex -3.91921 28.1126 10
      vertex -8 30 10
    endloop
  endfacet
  facet normal 0 0 1
    outer loop
      vertex 0.967966 34.2409 10
      vertex 17 40.3662 10
      vertex 17.7132 40.9647 10
    endloop
  endfacet
  facet normal 0 0 1
    outer loop
      vertex 0.967966 25.7591 10
      vertex 17.7132 17.0353 10
      vertex 17 17.6338 10
    endloop
  endfacet
  facet normal 0 0 1
    outer loop
      vertex 17 40.3662 10
      vertex 3.91921 31.8874 10
      vertex 17 17.6338 10
    endloop
  endfacet
  facet normal 0 0 1
    outer loop
      vertex 3.91921 31.8874 10
      vertex 4.35 30 10
      vertex 17 17.6338 10
    endloop
  endfacet
  facet normal 0 0 1
    outer loop
      vertex 4.35 30 10
      vertex 3.91921 28.1126 10
      vertex 17 17.6338 10
    endloop
  endfacet
  facet normal 0 0 1
    outer loop
      vertex 3.91921 28.1126 10
      vertex 2.71218 26.599 10
      vertex 17 17.6338 10
    endloop
  endfacet
  facet normal 0 0 1
    outer loop
      vertex 2.71218 26.599 10
      vertex 0.967966 25.7591 10
      vertex 17 17.6338 10
    endloop
  endfacet
  facet normal 0 0 1
    outer loop
      vertex 16.4444 15.3922 10
      vertex 17 13.5 10
      vertex 19 13.5 10
    endloop
  endfacet
  facet normal 0 0 1
    outer loop
      vertex 13.0019 47.9644 10
      vertex 14.954 47.6837 10
      vertex 16.25 49.2631 10
    endloop
  endfacet
  facet normal 0 0 1
    outer loop
      vertex 10.1418 14.4861 10
      vertex 11.208 16.1451 10
      vertex -8 30 10
    endloop
  endfacet
  facet normal 0 0 1
    outer loop
      vertex 13.0019 10.0356 10
      vertex 11.208 10.8549 10
      vertex 14 8.08356 10
    endloop
  endfacet
  facet normal 0 0 1
    outer loop
      vertex 11.208 16.1451 10
      vertex -2.71218 26.599 10
      vertex -8 30 10
    endloop
  endfacet
  facet normal 0 0 1
    outer loop
      vertex 14.954 10.3163 10
      vertex 13.0019 10.0356 10
      vertex 16.25 8.73686 10
    endloop
  endfacet
  facet normal 0 0 1
    outer loop
      vertex 13.0019 16.9644 10
      vertex -0.967966 25.7591 10
      vertex -2.71218 26.599 10
    endloop
  endfacet
  facet normal 0 0 1
    outer loop
      vertex 16.4444 11.6078 10
      vertex 14.954 10.3163 10
      vertex 17.7132 9.96467 10
    endloop
  endfacet
  facet normal 0 0 1
    outer loop
      vertex 17 44.5 10
      vertex 16.4444 42.6078 10
      vertex 19 44.5 10
    endloop
  endfacet
  facet normal 0 0 1
    outer loop
      vertex 18.6683 15.3811 10
      vertex 14.954 16.6837 10
      vertex 19 13.5 10
    endloop
  endfacet
  facet normal 0 0 1
    outer loop
      vertex 18.6683 15.3811 10
      vertex -0.967966 25.7591 10
      vertex 14.954 16.6837 10
    endloop
  endfacet
  facet normal 0 0 1
    outer loop
      vertex 14.954 16.6837 10
      vertex 16.4444 15.3922 10
      vertex 19 13.5 10
    endloop
  endfacet
  facet normal 0 0 1
    outer loop
      vertex 19 13.5 10
      vertex 17 13.5 10
      vertex 18.6683 11.6189 10
    endloop
  endfacet
  facet normal 0 0 1
    outer loop
      vertex 18.6683 11.6189 10
      vertex 16.4444 11.6078 10
      vertex 17.7132 9.96467 10
    endloop
  endfacet
  facet normal 0 0 1
    outer loop
      vertex 17.7132 9.96467 10
      vertex 14.954 10.3163 10
      vertex 16.25 8.73686 10
    endloop
  endfacet
  facet normal 0 0 1
    outer loop
      vertex 16.25 8.73686 10
      vertex 13.0019 10.0356 10
      vertex 14.4551 8.08356 10
    endloop
  endfacet
  facet normal 0 0 1
    outer loop
      vertex 14 8.08356 10
      vertex 11.208 10.8549 10
      vertex 14 8 10
    endloop
  endfacet
  facet normal 0 0 1
    outer loop
      vertex 11.208 16.1451 10
      vertex 13.0019 16.9644 10
      vertex -2.71218 26.599 10
    endloop
  endfacet
  facet normal 0 0 1
    outer loop
      vertex 16.4444 46.3922 10
      vertex 17 44.5 10
      vertex 18.6683 46.3811 10
    endloop
  endfacet
  facet normal 0 0 1
    outer loop
      vertex 8 44.5 10
      vertex 11.208 47.1451 10
      vertex 14.4551 49.9164 10
    endloop
  endfacet
  facet normal 0 0 1
    outer loop
      vertex 14.4551 49.9164 10
      vertex 13.0019 47.9644 10
      vertex 16.25 49.2631 10
    endloop
  endfacet
  facet normal 0 0 1
    outer loop
      vertex 16.25 49.2631 10
      vertex 14.954 47.6837 10
      vertex 17.7132 48.0353 10
    endloop
  endfacet
  facet normal 0 0 1
    outer loop
      vertex 17.7132 48.0353 10
      vertex 16.4444 46.3922 10
      vertex 18.6683 46.3811 10
    endloop
  endfacet
  facet normal 0 0 1
    outer loop
      vertex 18.6683 46.3811 10
      vertex 17 44.5 10
      vertex 19 44.5 10
    endloop
  endfacet
  facet normal 0 0 1
    outer loop
      vertex 8 38 10
      vertex 0 38 10
      vertex 0 37.9417 10
    endloop
  endfacet
  facet normal 0 0 1
    outer loop
      vertex 19 44.5 10
      vertex 16.4444 42.6078 10
      vertex 18.6683 42.6189 10
    endloop
  endfacet
  facet normal 0 0 1
    outer loop
      vertex 16.4444 42.6078 10
      vertex 14.954 41.3163 10
      vertex 18.6683 42.6189 10
    endloop
  endfacet
  facet normal 0 0 1
    outer loop
      vertex 14.954 41.3163 10
      vertex 13.0019 41.0356 10
      vertex 8 38 10
    endloop
  endfacet
  facet normal 0 0 1
    outer loop
      vertex -2.71218 33.401 10
      vertex 0 37.9417 10
      vertex -8 30 10
    endloop
  endfacet
  facet normal 0 0 1
    outer loop
      vertex 9.28676 48.0353 10
      vertex 8.33169 46.3811 10
      vertex 10.75 49.2631 10
    endloop
  endfacet
  facet normal 0 0 1
    outer loop
      vertex 8.33169 46.3811 10
      vertex 8 44.5 10
      vertex 12.5449 49.9164 10
    endloop
  endfacet
  facet normal 0 0 1
    outer loop
      vertex 8 44.5 10
      vertex 10.1418 45.4861 10
      vertex 11.208 47.1451 10
    endloop
  endfacet
  facet normal 0 0 1
    outer loop
      vertex 14.954 47.6837 10
      vertex 16.4444 46.3922 10
      vertex 17.7132 48.0353 10
    endloop
  endfacet
  facet normal 0 0 1
    outer loop
      vertex 8 44.5 10
      vertex 10.1418 43.5139 10
      vertex 10.1418 45.4861 10
    endloop
  endfacet
  facet normal 0 0 1
    outer loop
      vertex 8 44.5 10
      vertex 11.208 41.8549 10
      vertex 10.1418 43.5139 10
    endloop
  endfacet
  facet normal 0 0 1
    outer loop
      vertex 11.208 41.8549 10
      vertex 8 38 10
      vertex 13.0019 41.0356 10
    endloop
  endfacet
  facet normal 0 0 1
    outer loop
      vertex 8 44.5 10
      vertex 8 38 10
      vertex 11.208 41.8549 10
    endloop
  endfacet
  facet normal -0.935016 -0.354605 0
    outer loop
      vertex -7.76753 8.08547 0
      vertex -7.08365 6.28221 0
      vertex -7.76753 8.08547 10
    endloop
  endfacet
  facet normal -0.935016 -0.354605 0
    outer loop
      vertex -7.76753 8.08547 10
      vertex -7.08365 6.28221 0
      vertex -7.08365 6.28221 10
    endloop
  endfacet
  facet normal -0.822984 -0.568065 0
    outer loop
      vertex -7.08365 6.28221 0
      vertex -5.98809 4.69502 0
      vertex -7.08365 6.28221 10
    endloop
  endfacet
  facet normal -0.822984 -0.568065 0
    outer loop
      vertex -7.08365 6.28221 10
      vertex -5.98809 4.69502 0
      vertex -5.98809 4.69502 10
    endloop
  endfacet
  facet normal -0.663123 -0.748511 0
    outer loop
      vertex -5.98809 4.69502 10
      vertex -5.98809 4.69502 0
      vertex -4.54452 3.41613 0
    endloop
  endfacet
  facet normal -0.663123 -0.748511 0
    outer loop
      vertex -4.54452 3.41613 10
      vertex -5.98809 4.69502 10
      vertex -4.54452 3.41613 0
    endloop
  endfacet
  facet normal -0.464723 -0.885456 0
    outer loop
      vertex -4.54452 3.41613 10
      vertex -4.54452 3.41613 0
      vertex -2.83684 2.51987 0
    endloop
  endfacet
  facet normal -0.464723 -0.885456 0
    outer loop
      vertex -2.83684 2.51987 10
      vertex -4.54452 3.41613 10
      vertex -2.83684 2.51987 0
    endloop
  endfacet
  facet normal -0.239316 -0.970942 0
    outer loop
      vertex -2.83684 2.51987 10
      vertex -2.83684 2.51987 0
      vertex -0.964293 2.05833 0
    endloop
  endfacet
  facet normal -0.239316 -0.970942 0
    outer loop
      vertex -0.964293 2.05833 10
      vertex -2.83684 2.51987 10
      vertex -0.964293 2.05833 0
    endloop
  endfacet
  facet normal 0 -1 0
    outer loop
      vertex -0.964293 2.05833 10
      vertex -0.964293 2.05833 0
      vertex 0.964293 2.05833 0
    endloop
  endfacet
  facet normal 0 -1 0
    outer loop
      vertex 0.964293 2.05833 10
      vertex -0.964293 2.05833 10
      vertex 0.964293 2.05833 0
    endloop
  endfacet
  facet normal 0.239316 -0.970942 0
    outer loop
      vertex 0.964293 2.05833 10
      vertex 0.964293 2.05833 0
      vertex 2.83684 2.51987 0
    endloop
  endfacet
  facet normal 0.239316 -0.970942 0
    outer loop
      vertex 2.83684 2.51987 10
      vertex 0.964293 2.05833 10
      vertex 2.83684 2.51987 0
    endloop
  endfacet
  facet normal 0.464723 -0.885456 0
    outer loop
      vertex 2.83684 2.51987 10
      vertex 2.83684 2.51987 0
      vertex 4.54452 3.41613 0
    endloop
  endfacet
  facet normal 0.464723 -0.885456 0
    outer loop
      vertex 4.54452 3.41613 10
      vertex 2.83684 2.51987 10
      vertex 4.54452 3.41613 0
    endloop
  endfacet
  facet normal 0.663123 -0.748511 0
    outer loop
      vertex 4.54452 3.41613 10
      vertex 4.54452 3.41613 0
      vertex 5.98809 4.69502 0
    endloop
  endfacet
  facet normal 0.663123 -0.748511 0
    outer loop
      vertex 5.98809 4.69502 10
      vertex 4.54452 3.41613 10
      vertex 5.98809 4.69502 0
    endloop
  endfacet
  facet normal 0.822984 -0.568065 0
    outer loop
      vertex 5.98809 4.69502 10
      vertex 5.98809 4.69502 0
      vertex 7.08365 6.28221 0
    endloop
  endfacet
  facet normal 0.822984 -0.568065 0
    outer loop
      vertex 7.08365 6.28221 10
      vertex 5.98809 4.69502 10
      vertex 7.08365 6.28221 0
    endloop
  endfacet
  facet normal 0.935016 -0.354605 0
    outer loop
      vertex 7.08365 6.28221 10
      vertex 7.08365 6.28221 0
      vertex 7.73512 8 0
    endloop
  endfacet
  facet normal 0.935016 -0.354605 0
    outer loop
      vertex 7.73512 8 10
      vertex 7.08365 6.28221 10
      vertex 7.73512 8 0
    endloop
  endfacet
  facet normal 0 -1 0
    outer loop
      vertex 7.73512 8 10
      vertex 7.73512 8 0
      vertex 14 8 0
    endloop
  endfacet
  facet normal 0 -1 0
    outer loop
      vertex 14 8 10
      vertex 7.73512 8 10
      vertex 14 8 0
    endloop
  endfacet
  facet normal 1 0 0
    outer loop
      vertex 14 8 10
      vertex 14 8 0
      vertex 14 8.08356 0
    endloop
  endfacet
  facet normal 1 0 0
    outer loop
      vertex 14 8.08356 10
      vertex 14 8 10
      vertex 14 8.08356 0
    endloop
  endfacet
  facet normal 0 -1 0
    outer loop
      vertex 14 8.08356 10
      vertex 14 8.08356 0
      vertex 14.4551 8.08356 0
    endloop
  endfacet
  facet normal 0 -1 0
    outer loop
      vertex 14.4551 8.08356 10
      vertex 14 8.08356 10
      vertex 14.4551 8.08356 0
    endloop
  endfacet
  facet normal 0.34202 -0.939693 0
    outer loop
      vertex 14.4551 8.08356 10
      vertex 14.4551 8.08356 0
      vertex 16.25 8.73686 0
    endloop
  endfacet
  facet normal 0.34202 -0.939693 0
    outer loop
      vertex 16.25 8.73686 10
      vertex 14.4551 8.08356 10
      vertex 16.25 8.73686 0
    endloop
  endfacet
  facet normal 0.642788 -0.766044 0
    outer loop
      vertex 16.25 8.73686 10
      vertex 16.25 8.73686 0
      vertex 17.7132 9.96467 0
    endloop
  endfacet
  facet normal 0.642788 -0.766044 0
    outer loop
      vertex 17.7132 9.96467 10
      vertex 16.25 8.73686 10
      vertex 17.7132 9.96467 0
    endloop
  endfacet
  facet normal 0.866025 -0.5 0
    outer loop
      vertex 17.7132 9.96467 10
      vertex 17.7132 9.96467 0
      vertex 18.6683 11.6189 0
    endloop
  endfacet
  facet normal 0.866025 -0.5 0
    outer loop
      vertex 18.6683 11.6189 10
      vertex 17.7132 9.96467 10
      vertex 18.6683 11.6189 0
    endloop
  endfacet
  facet normal 0.984808 -0.173648 0
    outer loop
      vertex 18.6683 11.6189 10
      vertex 18.6683 11.6189 0
      vertex 19 13.5 0
    endloop
  endfacet
  facet normal 0.984808 -0.173648 0
    outer loop
      vertex 19 13.5 10
      vertex 18.6683 11.6189 10
      vertex 19 13.5 0
    endloop
  endfacet
  facet normal 0.984808 0.173648 0
    outer loop
      vertex 19 13.5 0
      vertex 18.6683 15.3811 0
      vertex 18.6683 15.3811 10
    endloop
  endfacet
  facet normal 0.984808 0.173648 0
    outer loop
      vertex 19 13.5 10
      vertex 19 13.5 0
      vertex 18.6683 15.3811 10
    endloop
  endfacet
  facet normal 0.866025 0.5 0
    outer loop
      vertex 18.6683 15.3811 0
      vertex 17.7132 17.0353 0
      vertex 17.7132 17.0353 10
    endloop
  endfacet
  facet normal 0.866025 0.5 0
    outer loop
      vertex 18.6683 15.3811 10
      vertex 18.6683 15.3811 0
      vertex 17.7132 17.0353 10
    endloop
  endfacet
  facet normal 0.642788 0.766044 0
    outer loop
      vertex 17 17.6338 0
      vertex 17 17.6338 10
      vertex 17.7132 17.0353 0
    endloop
  endfacet
  facet normal 0.642788 0.766044 0
    outer loop
      vertex 17.7132 17.0353 0
      vertex 17 17.6338 10
      vertex 17.7132 17.0353 10
    endloop
  endfacet
  facet normal 1 0 0
    outer loop
      vertex 17 17.6338 10
      vertex 17 17.6338 0
      vertex 17 40.3662 0
    endloop
  endfacet
  facet normal 1 0 0
    outer loop
      vertex 17 40.3662 10
      vertex 17 17.6338 10
      vertex 17 40.3662 0
    endloop
  endfacet
  facet normal 0.642788 -0.766044 0
    outer loop
      vertex 17 40.3662 10
      vertex 17 40.3662 0
      vertex 17.7132 40.9647 0
    endloop
  endfacet
  facet normal 0.642788 -0.766044 0
    outer loop
      vertex 17.7132 40.9647 10
      vertex 17 40.3662 10
      vertex 17.7132 40.9647 0
    endloop
  endfacet
  facet normal 0.866025 -0.5 0
    outer loop
      vertex 17.7132 40.9647 10
      vertex 17.7132 40.9647 0
      vertex 18.6683 42.6189 0
    endloop
  endfacet
  facet normal 0.866025 -0.5 0
    outer loop
      vertex 18.6683 42.6189 10
      vertex 17.7132 40.9647 10
      vertex 18.6683 42.6189 0
    endloop
  endfacet
  facet normal 0.984808 -0.173648 0
    outer loop
      vertex 18.6683 42.6189 10
      vertex 18.6683 42.6189 0
      vertex 19 44.5 0
    endloop
  endfacet
  facet normal 0.984808 -0.173648 0
    outer loop
      vertex 19 44.5 10
      vertex 18.6683 42.6189 10
      vertex 19 44.5 0
    endloop
  endfacet
  facet normal 0.984808 0.173648 0
    outer loop
      vertex 19 44.5 0
      vertex 18.6683 46.3811 0
      vertex 18.6683 46.3811 10
    endloop
  endfacet
  facet normal 0.984808 0.173648 0
    outer loop
      vertex 19 44.5 10
      vertex 19 44.5 0
      vertex 18.6683 46.3811 10
    endloop
  endfacet
  facet normal 0.866025 0.5 0
    outer loop
      vertex 18.6683 46.3811 0
      vertex 17.7132 48.0353 0
      vertex 17.7132 48.0353 10
    endloop
  endfacet
  facet normal 0.866025 0.5 0
    outer loop
      vertex 18.6683 46.3811 10
      vertex 18.6683 46.3811 0
      vertex 17.7132 48.0353 10
    endloop
  endfacet
  facet normal 0.642788 0.766044 0
    outer loop
      vertex 16.25 49.2631 0
      vertex 16.25 49.2631 10
      vertex 17.7132 48.0353 0
    endloop
  endfacet
  facet normal 0.642788 0.766044 0
    outer loop
      vertex 17.7132 48.0353 0
      vertex 16.25 49.2631 10
      vertex 17.7132 48.0353 10
    endloop
  endfacet
  facet normal 0.34202 0.939693 0
    outer loop
      vertex 14.4551 49.9164 0
      vertex 14.4551 49.9164 10
      vertex 16.25 49.2631 0
    endloop
  endfacet
  facet normal 0.34202 0.939693 0
    outer loop
      vertex 16.25 49.2631 0
      vertex 14.4551 49.9164 10
      vertex 16.25 49.2631 10
    endloop
  endfacet
  facet normal 0 1 0
    outer loop
      vertex 12.5449 49.9164 0
      vertex 12.5449 49.9164 10
      vertex 14.4551 49.9164 0
    endloop
  endfacet
  facet normal 0 1 0
    outer loop
      vertex 14.4551 49.9164 0
      vertex 12.5449 49.9164 10
      vertex 14.4551 49.9164 10
    endloop
  endfacet
  facet normal -0.34202 0.939693 0
    outer loop
      vertex 10.75 49.2631 0
      vertex 10.75 49.2631 10
      vertex 12.5449 49.9164 0
    endloop
  endfacet
  facet normal -0.34202 0.939693 0
    outer loop
      vertex 12.5449 49.9164 0
      vertex 10.75 49.2631 10
      vertex 12.5449 49.9164 10
    endloop
  endfacet
  facet normal -0.642788 0.766044 0
    outer loop
      vertex 9.28676 48.0353 0
      vertex 9.28676 48.0353 10
      vertex 10.75 49.2631 0
    endloop
  endfacet
  facet normal -0.642788 0.766044 0
    outer loop
      vertex 10.75 49.2631 0
      vertex 9.28676 48.0353 10
      vertex 10.75 49.2631 10
    endloop
  endfacet
  facet normal -0.866025 0.5 0
    outer loop
      vertex 8.33169 46.3811 0
      vertex 8.33169 46.3811 10
      vertex 9.28676 48.0353 0
    endloop
  endfacet
  facet normal -0.866025 0.5 0
    outer loop
      vertex 9.28676 48.0353 0
      vertex 8.33169 46.3811 10
      vertex 9.28676 48.0353 10
    endloop
  endfacet
  facet normal -0.984808 0.173648 0
    outer loop
      vertex 8 44.5 0
      vertex 8 44.5 10
      vertex 8.33169 46.3811 0
    endloop
  endfacet
  facet normal -0.984808 0.173648 0
    outer loop
      vertex 8.33169 46.3811 0
      vertex 8 44.5 10
      vertex 8.33169 46.3811 10
    endloop
  endfacet
  facet normal -1 0 0
    outer loop
      vertex 8 38 0
      vertex 8 38 10
      vertex 8 44.5 0
    endloop
  endfacet
  facet normal -1 0 0
    outer loop
      vertex 8 44.5 0
      vertex 8 38 10
      vertex 8 44.5 10
    endloop
  endfacet
  facet normal 0 1 0
    outer loop
      vertex 0 38 0
      vertex 0 38 10
      vertex 8 38 0
    endloop
  endfacet
  facet normal 0 1 0
    outer loop
      vertex 8 38 0
      vertex 0 38 10
      vertex 8 38 10
    endloop
  endfacet
  facet normal -1 0 0
    outer loop
      vertex 0 37.9417 0
      vertex 0 37.9417 10
      vertex 0 38 0
    endloop
  endfacet
  facet normal -1 0 0
    outer loop
      vertex 0 38 0
      vertex 0 37.9417 10
      vertex 0 38 10
    endloop
  endfacet
  facet normal 0 1 0
    outer loop
      vertex -0.964293 37.9417 0
      vertex -0.964293 37.9417 10
      vertex 0 37.9417 0
    endloop
  endfacet
  facet normal 0 1 0
    outer loop
      vertex 0 37.9417 0
      vertex -0.964293 37.9417 10
      vertex 0 37.9417 10
    endloop
  endfacet
  facet normal -0.239316 0.970942 0
    outer loop
      vertex -2.83684 37.4801 0
      vertex -2.83684 37.4801 10
      vertex -0.964293 37.9417 0
    endloop
  endfacet
  facet normal -0.239316 0.970942 0
    outer loop
      vertex -0.964293 37.9417 0
      vertex -2.83684 37.4801 10
      vertex -0.964293 37.9417 10
    endloop
  endfacet
  facet normal -0.464723 0.885456 0
    outer loop
      vertex -4.54452 36.5839 0
      vertex -4.54452 36.5839 10
      vertex -2.83684 37.4801 0
    endloop
  endfacet
  facet normal -0.464723 0.885456 0
    outer loop
      vertex -2.83684 37.4801 0
      vertex -4.54452 36.5839 10
      vertex -2.83684 37.4801 10
    endloop
  endfacet
  facet normal -0.663123 0.748511 0
    outer loop
      vertex -5.98809 35.305 0
      vertex -5.98809 35.305 10
      vertex -4.54452 36.5839 0
    endloop
  endfacet
  facet normal -0.663123 0.748511 0
    outer loop
      vertex -4.54452 36.5839 0
      vertex -5.98809 35.305 10
      vertex -4.54452 36.5839 10
    endloop
  endfacet
  facet normal -0.822984 0.568065 0
    outer loop
      vertex -7.08365 33.7178 0
      vertex -7.08365 33.7178 10
      vertex -5.98809 35.305 0
    endloop
  endfacet
  facet normal -0.822984 0.568065 0
    outer loop
      vertex -5.98809 35.305 0
      vertex -7.08365 33.7178 10
      vertex -5.98809 35.305 10
    endloop
  endfacet
  facet normal -0.935016 0.354605 0
    outer loop
      vertex -7.76753 31.9145 0
      vertex -7.76753 31.9145 10
      vertex -7.08365 33.7178 0
    endloop
  endfacet
  facet normal -0.935016 0.354605 0
    outer loop
      vertex -7.08365 33.7178 0
      vertex -7.76753 31.9145 10
      vertex -7.08365 33.7178 10
    endloop
  endfacet
  facet normal 0.974928 -0.222521 0
    outer loop
      vertex -3.91921 11.8874 0
      vertex -3.91921 11.8874 10
      vertex -4.35 10 10
    endloop
  endfacet
  facet normal 0.974928 -0.222521 0
    outer loop
      vertex -4.35 10 0
      vertex -3.91921 11.8874 0
      vertex -4.35 10 10
    endloop
  endfacet
  facet normal 0.974928 0.222521 0
    outer loop
      vertex -4.35 10 10
      vertex -3.91921 8.11261 10
      vertex -3.91921 8.11261 0
    endloop
  endfacet
  facet normal 0.974928 0.222521 0
    outer loop
      vertex -4.35 10 0
      vertex -4.35 10 10
      vertex -3.91921 8.11261 0
    endloop
  endfacet
  facet normal 0.781832 -0.62349 0
    outer loop
      vertex -2.71218 13.401 0
      vertex -2.71218 13.401 10
      vertex -3.91921 11.8874 10
    endloop
  endfacet
  facet normal 0.781832 -0.62349 0
    outer loop
      vertex -3.91921 11.8874 0
      vertex -2.71218 13.401 0
      vertex -3.91921 11.8874 10
    endloop
  endfacet
  facet normal 0.433883 -0.900969 0
    outer loop
      vertex -0.967966 14.2409 0
      vertex -0.967966 14.2409 10
      vertex -2.71218 13.401 10
    endloop
  endfacet
  facet normal 0.433883 -0.900969 0
    outer loop
      vertex -2.71218 13.401 0
      vertex -0.967966 14.2409 0
      vertex -2.71218 13.401 10
    endloop
  endfacet
  facet normal 0 -1 0
    outer loop
      vertex 0.967966 14.2409 0
      vertex 0.967966 14.2409 10
      vertex -0.967966 14.2409 10
    endloop
  endfacet
  facet normal 0 -1 0
    outer loop
      vertex -0.967966 14.2409 0
      vertex 0.967966 14.2409 0
      vertex -0.967966 14.2409 10
    endloop
  endfacet
  facet normal -0.433883 -0.900969 0
    outer loop
      vertex 2.71218 13.401 0
      vertex 2.71218 13.401 10
      vertex 0.967966 14.2409 10
    endloop
  endfacet
  facet normal -0.433883 -0.900969 0
    outer loop
      vertex 0.967966 14.2409 0
      vertex 2.71218 13.401 0
      vertex 0.967966 14.2409 10
    endloop
  endfacet
  facet normal -0.781832 -0.62349 0
    outer loop
      vertex 3.91921 11.8874 10
      vertex 2.71218 13.401 10
      vertex 3.91921 11.8874 0
    endloop
  endfacet
  facet normal -0.781832 -0.62349 0
    outer loop
      vertex 3.91921 11.8874 0
      vertex 2.71218 13.401 10
      vertex 2.71218 13.401 0
    endloop
  endfacet
  facet normal -0.974928 -0.222521 0
    outer loop
      vertex 4.35 10 10
      vertex 3.91921 11.8874 10
      vertex 4.35 10 0
    endloop
  endfacet
  facet normal -0.974928 -0.222521 0
    outer loop
      vertex 4.35 10 0
      vertex 3.91921 11.8874 10
      vertex 3.91921 11.8874 0
    endloop
  endfacet
  facet normal -0.974928 0.222521 0
    outer loop
      vertex 4.35 10 10
      vertex 4.35 10 0
      vertex 3.91921 8.11261 10
    endloop
  endfacet
  facet normal -0.974928 0.222521 0
    outer loop
      vertex 3.91921 8.11261 10
      vertex 4.35 10 0
      vertex 3.91921 8.11261 0
    endloop
  endfacet
  facet normal -0.781832 0.62349 0
    outer loop
      vertex 3.91921 8.11261 10
      vertex 3.91921 8.11261 0
      vertex 2.71218 6.59903 10
    endloop
  endfacet
  facet normal -0.781832 0.62349 0
    outer loop
      vertex 2.71218 6.59903 10
      vertex 3.91921 8.11261 0
      vertex 2.71218 6.59903 0
    endloop
  endfacet
  facet normal -0.433883 0.900969 0
    outer loop
      vertex 2.71218 6.59903 10
      vertex 2.71218 6.59903 0
      vertex 0.967966 5.75906 10
    endloop
  endfacet
  facet normal -0.433883 0.900969 0
    outer loop
      vertex 0.967966 5.75906 10
      vertex 2.71218 6.59903 0
      vertex 0.967966 5.75906 0
    endloop
  endfacet
  facet normal 0 1 0
    outer loop
      vertex 0.967966 5.75906 10
      vertex 0.967966 5.75906 0
      vertex -0.967966 5.75906 10
    endloop
  endfacet
  facet normal 0 1 0
    outer loop
      vertex -0.967966 5.75906 10
      vertex 0.967966 5.75906 0
      vertex -0.967966 5.75906 0
    endloop
  endfacet
  facet normal 0.433883 0.900969 0
    outer loop
      vertex -0.967966 5.75906 10
      vertex -0.967966 5.75906 0
      vertex -2.71218 6.59903 10
    endloop
  endfacet
  facet normal 0.433883 0.900969 0
    outer loop
      vertex -2.71218 6.59903 10
      vertex -0.967966 5.75906 0
      vertex -2.71218 6.59903 0
    endloop
  endfacet
  facet normal 0.781832 0.62349 0
    outer loop
      vertex -3.91921 8.11261 10
      vertex -2.71218 6.59903 10
      vertex -2.71218 6.59903 0
    endloop
  endfacet
  facet normal 0.781832 0.62349 0
    outer loop
      vertex -3.91921 8.11261 0
      vertex -3.91921 8.11261 10
      vertex -2.71218 6.59903 0
    endloop
  endfacet
  facet normal 0.974928 0.222521 0
    outer loop
      vertex -4.35 30 10
      vertex -3.91921 28.1126 10
      vertex -3.91921 28.1126 0
    endloop
  endfacet
  facet normal 0.974928 0.222521 0
    outer loop
      vertex -4.35 30 0
      vertex -4.35 30 10
      vertex -3.91921 28.1126 0
    endloop
  endfacet
  facet normal 0.974928 -0.222521 0
    outer loop
      vertex -3.91921 31.8874 0
      vertex -3.91921 31.8874 10
      vertex -4.35 30 10
    endloop
  endfacet
  facet normal 0.974928 -0.222521 0
    outer loop
      vertex -4.35 30 0
      vertex -3.91921 31.8874 0
      vertex -4.35 30 10
    endloop
  endfacet
  facet normal 0.781832 -0.62349 0
    outer loop
      vertex -2.71218 33.401 0
      vertex -2.71218 33.401 10
      vertex -3.91921 31.8874 10
    endloop
  endfacet
  facet normal 0.781832 -0.62349 0
    outer loop
      vertex -3.91921 31.8874 0
      vertex -2.71218 33.401 0
      vertex -3.91921 31.8874 10
    endloop
  endfacet
  facet normal 0.433883 -0.900969 0
    outer loop
      vertex -0.967966 34.2409 0
      vertex -0.967966 34.2409 10
      vertex -2.71218 33.401 10
    endloop
  endfacet
  facet normal 0.433883 -0.900969 0
    outer loop
      vertex -2.71218 33.401 0
      vertex -0.967966 34.2409 0
      vertex -2.71218 33.401 10
    endloop
  endfacet
  facet normal 0 -1 0
    outer loop
      vertex 0.967966 34.2409 0
      vertex 0.967966 34.2409 10
      vertex -0.967966 34.2409 10
    endloop
  endfacet
  facet normal 0 -1 0
    outer loop
      vertex -0.967966 34.2409 0
      vertex 0.967966 34.2409 0
      vertex -0.967966 34.2409 10
    endloop
  endfacet
  facet normal -0.433883 -0.900969 0
    outer loop
      vertex 2.71218 33.401 0
      vertex 2.71218 33.401 10
      vertex 0.967966 34.2409 10
    endloop
  endfacet
  facet normal -0.433883 -0.900969 0
    outer loop
      vertex 0.967966 34.2409 0
      vertex 2.71218 33.401 0
      vertex 0.967966 34.2409 10
    endloop
  endfacet
  facet normal -0.781832 -0.62349 0
    outer loop
      vertex 3.91921 31.8874 10
      vertex 2.71218 33.401 10
      vertex 3.91921 31.8874 0
    endloop
  endfacet
  facet normal -0.781832 -0.62349 0
    outer loop
      vertex 3.91921 31.8874 0
      vertex 2.71218 33.401 10
      vertex 2.71218 33.401 0
    endloop
  endfacet
  facet normal -0.974928 -0.222521 0
    outer loop
      vertex 4.35 30 10
      vertex 3.91921 31.8874 10
      vertex 4.35 30 0
    endloop
  endfacet
  facet normal -0.974928 -0.222521 0
    outer loop
      vertex 4.35 30 0
      vertex 3.91921 31.8874 10
      vertex 3.91921 31.8874 0
    endloop
  endfacet
  facet normal -0.974928 0.222521 0
    outer loop
      vertex 4.35 30 10
      vertex 4.35 30 0
      vertex 3.91921 28.1126 10
    endloop
  endfacet
  facet normal -0.974928 0.222521 0
    outer loop
      vertex 3.91921 28.1126 10
      vertex 4.35 30 0
      vertex 3.91921 28.1126 0
    endloop
  endfacet
  facet normal -0.781832 0.62349 0
    outer loop
      vertex 3.91921 28.1126 10
      vertex 3.91921 28.1126 0
      vertex 2.71218 26.599 10
    endloop
  endfacet
  facet normal -0.781832 0.62349 0
    outer loop
      vertex 2.71218 26.599 10
      vertex 3.91921 28.1126 0
      vertex 2.71218 26.599 0
    endloop
  endfacet
  facet normal -0.433883 0.900969 0
    outer loop
      vertex 2.71218 26.599 10
      vertex 2.71218 26.599 0
      vertex 0.967966 25.7591 10
    endloop
  endfacet
  facet normal -0.433883 0.900969 0
    outer loop
      vertex 0.967966 25.7591 10
      vertex 2.71218 26.599 0
      vertex 0.967966 25.7591 0
    endloop
  endfacet
  facet normal 0 1 0
    outer loop
      vertex 0.967966 25.7591 10
      vertex 0.967966 25.7591 0
      vertex -0.967966 25.7591 10
    endloop
  endfacet
  facet normal 0 1 0
    outer loop
      vertex -0.967966 25.7591 10
      vertex 0.967966 25.7591 0
      vertex -0.967966 25.7591 0
    endloop
  endfacet
  facet normal 0.433883 0.900969 0
    outer loop
      vertex -0.967966 25.7591 10
      vertex -0.967966 25.7591 0
      vertex -2.71218 26.599 10
    endloop
  endfacet
  facet normal 0.433883 0.900969 0
    outer loop
      vertex -2.71218 26.599 10
      vertex -0.967966 25.7591 0
      vertex -2.71218 26.599 0
    endloop
  endfacet
  facet normal 0.781832 0.62349 0
    outer loop
      vertex -3.91921 28.1126 10
      vertex -2.71218 26.599 10
      vertex -2.71218 26.599 0
    endloop
  endfacet
  facet normal 0.781832 0.62349 0
    outer loop
      vertex -3.91921 28.1126 0
      vertex -3.91921 28.1126 10
      vertex -2.71218 26.599 0
    endloop
  endfacet
  facet normal 0.951057 -0.309017 0
    outer loop
      vertex 12.1247 14.4992 0
      vertex 12.1247 14.4992 7
      vertex 11.8 13.5 7
    endloop
  endfacet
  facet normal 0.951057 -0.309017 0
    outer loop
      vertex 11.8 13.5 0
      vertex 12.1247 14.4992 0
      vertex 11.8 13.5 7
    endloop
  endfacet
  facet normal 0.951057 0.309017 0
    outer loop
      vertex 11.8 13.5 7
      vertex 12.1247 12.5008 7
      vertex 12.1247 12.5008 0
    endloop
  endfacet
  facet normal 0.951057 0.309017 0
    outer loop
      vertex 11.8 13.5 0
      vertex 11.8 13.5 7
      vertex 12.1247 12.5008 0
    endloop
  endfacet
  facet normal 0.587785 -0.809017 0
    outer loop
      vertex 12.9747 15.1168 0
      vertex 12.9747 15.1168 7
      vertex 12.1247 14.4992 7
    endloop
  endfacet
  facet normal 0.587785 -0.809017 0
    outer loop
      vertex 12.1247 14.4992 0
      vertex 12.9747 15.1168 0
      vertex 12.1247 14.4992 7
    endloop
  endfacet
  facet normal 0 -1 0
    outer loop
      vertex 14.0253 15.1168 0
      vertex 14.0253 15.1168 7
      vertex 12.9747 15.1168 7
    endloop
  endfacet
  facet normal 0 -1 0
    outer loop
      vertex 12.9747 15.1168 0
      vertex 14.0253 15.1168 0
      vertex 12.9747 15.1168 7
    endloop
  endfacet
  facet normal -0.587785 -0.809017 0
    outer loop
      vertex 14.8753 14.4992 0
      vertex 14.8753 14.4992 7
      vertex 14.0253 15.1168 7
    endloop
  endfacet
  facet normal -0.587785 -0.809017 0
    outer loop
      vertex 14.0253 15.1168 0
      vertex 14.8753 14.4992 0
      vertex 14.0253 15.1168 7
    endloop
  endfacet
  facet normal -0.951057 -0.309017 0
    outer loop
      vertex 15.2 13.5 7
      vertex 14.8753 14.4992 7
      vertex 15.2 13.5 0
    endloop
  endfacet
  facet normal -0.951057 -0.309017 0
    outer loop
      vertex 15.2 13.5 0
      vertex 14.8753 14.4992 7
      vertex 14.8753 14.4992 0
    endloop
  endfacet
  facet normal -0.951057 0.309017 0
    outer loop
      vertex 15.2 13.5 7
      vertex 15.2 13.5 0
      vertex 14.8753 12.5008 7
    endloop
  endfacet
  facet normal -0.951057 0.309017 0
    outer loop
      vertex 14.8753 12.5008 7
      vertex 15.2 13.5 0
      vertex 14.8753 12.5008 0
    endloop
  endfacet
  facet normal -0.587785 0.809017 0
    outer loop
      vertex 14.8753 12.5008 7
      vertex 14.8753 12.5008 0
      vertex 14.0253 11.8832 7
    endloop
  endfacet
  facet normal -0.587785 0.809017 0
    outer loop
      vertex 14.0253 11.8832 7
      vertex 14.8753 12.5008 0
      vertex 14.0253 11.8832 0
    endloop
  endfacet
  facet normal 0 1 0
    outer loop
      vertex 14.0253 11.8832 7
      vertex 14.0253 11.8832 0
      vertex 12.9747 11.8832 7
    endloop
  endfacet
  facet normal 0 1 0
    outer loop
      vertex 12.9747 11.8832 7
      vertex 14.0253 11.8832 0
      vertex 12.9747 11.8832 0
    endloop
  endfacet
  facet normal 0.587785 0.809017 0
    outer loop
      vertex 12.9747 11.8832 7
      vertex 12.9747 11.8832 0
      vertex 12.1247 12.5008 7
    endloop
  endfacet
  facet normal 0.587785 0.809017 0
    outer loop
      vertex 12.1247 12.5008 7
      vertex 12.9747 11.8832 0
      vertex 12.1247 12.5008 0
    endloop
  endfacet
  facet normal 0.951057 -0.309017 0
    outer loop
      vertex 12.1247 45.4992 0
      vertex 12.1247 45.4992 7
      vertex 11.8 44.5 7
    endloop
  endfacet
  facet normal 0.951057 -0.309017 0
    outer loop
      vertex 11.8 44.5 0
      vertex 12.1247 45.4992 0
      vertex 11.8 44.5 7
    endloop
  endfacet
  facet normal 0.951057 0.309017 0
    outer loop
      vertex 11.8 44.5 7
      vertex 12.1247 43.5008 7
      vertex 12.1247 43.5008 0
    endloop
  endfacet
  facet normal 0.951057 0.309017 0
    outer loop
      vertex 11.8 44.5 0
      vertex 11.8 44.5 7
      vertex 12.1247 43.5008 0
    endloop
  endfacet
  facet normal 0.587785 -0.809017 0
    outer loop
      vertex 12.9747 46.1168 0
      vertex 12.9747 46.1168 7
      vertex 12.1247 45.4992 7
    endloop
  endfacet
  facet normal 0.587785 -0.809017 0
    outer loop
      vertex 12.1247 45.4992 0
      vertex 12.9747 46.1168 0
      vertex 12.1247 45.4992 7
    endloop
  endfacet
  facet normal 0 -1 0
    outer loop
      vertex 14.0253 46.1168 0
      vertex 14.0253 46.1168 7
      vertex 12.9747 46.1168 7
    endloop
  endfacet
  facet normal 0 -1 0
    outer loop
      vertex 12.9747 46.1168 0
      vertex 14.0253 46.1168 0
      vertex 12.9747 46.1168 7
    endloop
  endfacet
  facet normal -0.587785 -0.809017 0
    outer loop
      vertex 14.8753 45.4992 0
      vertex 14.8753 45.4992 7
      vertex 14.0253 46.1168 7
    endloop
  endfacet
  facet normal -0.587785 -0.809017 0
    outer loop
      vertex 14.0253 46.1168 0
      vertex 14.8753 45.4992 0
      vertex 14.0253 46.1168 7
    endloop
  endfacet
  facet normal -0.951057 -0.309017 0
    outer loop
      vertex 15.2 44.5 7
      vertex 14.8753 45.4992 7
      vertex 15.2 44.5 0
    endloop
  endfacet
  facet normal -0.951057 -0.309017 0
    outer loop
      vertex 15.2 44.5 0
      vertex 14.8753 45.4992 7
      vertex 14.8753 45.4992 0
    endloop
  endfacet
  facet normal -0.951057 0.309017 0
    outer loop
      vertex 15.2 44.5 7
      vertex 15.2 44.5 0
      vertex 14.8753 43.5008 7
    endloop
  endfacet
  facet normal -0.951057 0.309017 0
    outer loop
      vertex 14.8753 43.5008 7
      vertex 15.2 44.5 0
      vertex 14.8753 43.5008 0
    endloop
  endfacet
  facet normal -0.587785 0.809017 0
    outer loop
      vertex 14.8753 43.5008 7
      vertex 14.8753 43.5008 0
      vertex 14.0253 42.8832 7
    endloop
  endfacet
  facet normal -0.587785 0.809017 0
    outer loop
      vertex 14.0253 42.8832 7
      vertex 14.8753 43.5008 0
      vertex 14.0253 42.8832 0
    endloop
  endfacet
  facet normal 0 1 0
    outer loop
      vertex 14.0253 42.8832 7
      vertex 14.0253 42.8832 0
      vertex 12.9747 42.8832 7
    endloop
  endfacet
  facet normal 0 1 0
    outer loop
      vertex 12.9747 42.8832 7
      vertex 14.0253 42.8832 0
      vertex 12.9747 42.8832 0
    endloop
  endfacet
  facet normal 0.587785 0.809017 0
    outer loop
      vertex 12.9747 42.8832 7
      vertex 12.9747 42.8832 0
      vertex 12.1247 43.5008 7
    endloop
  endfacet
  facet normal 0.587785 0.809017 0
    outer loop
      vertex 12.1247 43.5008 7
      vertex 12.9747 42.8832 0
      vertex 12.1247 43.5008 0
    endloop
  endfacet
  facet normal 0.841254 0.54064 0
    outer loop
      vertex 10.1418 12.5139 10
      vertex 11.208 10.8549 10
      vertex 11.208 10.8549 7
    endloop
  endfacet
  facet normal 0.841254 0.54064 0
    outer loop
      vertex 10.1418 12.5139 7
      vertex 10.1418 12.5139 10
      vertex 11.208 10.8549 7
    endloop
  endfacet
  facet normal 1 0 0
    outer loop
      vertex 10.1418 14.4861 7
      vertex 10.1418 14.4861 10
      vertex 10.1418 12.5139 10
    endloop
  endfacet
  facet normal 1 0 0
    outer loop
      vertex 10.1418 12.5139 7
      vertex 10.1418 14.4861 7
      vertex 10.1418 12.5139 10
    endloop
  endfacet
  facet normal 0.415415 0.909632 0
    outer loop
      vertex 13.0019 10.0356 10
      vertex 13.0019 10.0356 7
      vertex 11.208 10.8549 10
    endloop
  endfacet
  facet normal 0.415415 0.909632 0
    outer loop
      vertex 11.208 10.8549 10
      vertex 13.0019 10.0356 7
      vertex 11.208 10.8549 7
    endloop
  endfacet
  facet normal -0.142315 0.989821 0
    outer loop
      vertex 14.954 10.3163 10
      vertex 14.954 10.3163 7
      vertex 13.0019 10.0356 10
    endloop
  endfacet
  facet normal -0.142315 0.989821 0
    outer loop
      vertex 13.0019 10.0356 10
      vertex 14.954 10.3163 7
      vertex 13.0019 10.0356 7
    endloop
  endfacet
  facet normal -0.654861 0.755749 0
    outer loop
      vertex 16.4444 11.6078 10
      vertex 16.4444 11.6078 7
      vertex 14.954 10.3163 10
    endloop
  endfacet
  facet normal -0.654861 0.755749 0
    outer loop
      vertex 14.954 10.3163 10
      vertex 16.4444 11.6078 7
      vertex 14.954 10.3163 7
    endloop
  endfacet
  facet normal -0.959493 0.281733 0
    outer loop
      vertex 17 13.5 10
      vertex 17 13.5 7
      vertex 16.4444 11.6078 10
    endloop
  endfacet
  facet normal -0.959493 0.281733 0
    outer loop
      vertex 16.4444 11.6078 10
      vertex 17 13.5 7
      vertex 16.4444 11.6078 7
    endloop
  endfacet
  facet normal -0.959493 -0.281733 0
    outer loop
      vertex 17 13.5 10
      vertex 16.4444 15.3922 10
      vertex 17 13.5 7
    endloop
  endfacet
  facet normal -0.959493 -0.281733 0
    outer loop
      vertex 17 13.5 7
      vertex 16.4444 15.3922 10
      vertex 16.4444 15.3922 7
    endloop
  endfacet
  facet normal -0.654861 -0.755749 0
    outer loop
      vertex 16.4444 15.3922 7
      vertex 16.4444 15.3922 10
      vertex 14.954 16.6837 10
    endloop
  endfacet
  facet normal -0.654861 -0.755749 0
    outer loop
      vertex 14.954 16.6837 7
      vertex 16.4444 15.3922 7
      vertex 14.954 16.6837 10
    endloop
  endfacet
  facet normal -0.142315 -0.989821 0
    outer loop
      vertex 14.954 16.6837 7
      vertex 14.954 16.6837 10
      vertex 13.0019 16.9644 10
    endloop
  endfacet
  facet normal -0.142315 -0.989821 0
    outer loop
      vertex 13.0019 16.9644 7
      vertex 14.954 16.6837 7
      vertex 13.0019 16.9644 10
    endloop
  endfacet
  facet normal 0.415415 -0.909632 0
    outer loop
      vertex 13.0019 16.9644 7
      vertex 13.0019 16.9644 10
      vertex 11.208 16.1451 10
    endloop
  endfacet
  facet normal 0.415415 -0.909632 0
    outer loop
      vertex 11.208 16.1451 7
      vertex 13.0019 16.9644 7
      vertex 11.208 16.1451 10
    endloop
  endfacet
  facet normal 0.841254 -0.54064 0
    outer loop
      vertex 11.208 16.1451 7
      vertex 11.208 16.1451 10
      vertex 10.1418 14.4861 10
    endloop
  endfacet
  facet normal 0.841254 -0.54064 0
    outer loop
      vertex 10.1418 14.4861 7
      vertex 11.208 16.1451 7
      vertex 10.1418 14.4861 10
    endloop
  endfacet
  facet normal 1 0 0
    outer loop
      vertex 10.1418 45.4861 7
      vertex 10.1418 45.4861 10
      vertex 10.1418 43.5139 10
    endloop
  endfacet
  facet normal 1 0 0
    outer loop
      vertex 10.1418 43.5139 7
      vertex 10.1418 45.4861 7
      vertex 10.1418 43.5139 10
    endloop
  endfacet
  facet normal 0.841254 0.54064 0
    outer loop
      vertex 10.1418 43.5139 10
      vertex 11.208 41.8549 10
      vertex 11.208 41.8549 7
    endloop
  endfacet
  facet normal 0.841254 0.54064 0
    outer loop
      vertex 10.1418 43.5139 7
      vertex 10.1418 43.5139 10
      vertex 11.208 41.8549 7
    endloop
  endfacet
  facet normal 0.415415 0.909632 0
    outer loop
      vertex 13.0019 41.0356 10
      vertex 13.0019 41.0356 7
      vertex 11.208 41.8549 10
    endloop
  endfacet
  facet normal 0.415415 0.909632 0
    outer loop
      vertex 11.208 41.8549 10
      vertex 13.0019 41.0356 7
      vertex 11.208 41.8549 7
    endloop
  endfacet
  facet normal -0.142315 0.989821 0
    outer loop
      vertex 14.954 41.3163 10
      vertex 14.954 41.3163 7
      vertex 13.0019 41.0356 10
    endloop
  endfacet
  facet normal -0.142315 0.989821 0
    outer loop
      vertex 13.0019 41.0356 10
      vertex 14.954 41.3163 7
      vertex 13.0019 41.0356 7
    endloop
  endfacet
  facet normal -0.654861 0.755749 0
    outer loop
      vertex 16.4444 42.6078 10
      vertex 16.4444 42.6078 7
      vertex 14.954 41.3163 10
    endloop
  endfacet
  facet normal -0.654861 0.755749 0
    outer loop
      vertex 14.954 41.3163 10
      vertex 16.4444 42.6078 7
      vertex 14.954 41.3163 7
    endloop
  endfacet
  facet normal -0.959493 0.281733 0
    outer loop
      vertex 17 44.5 10
      vertex 17 44.5 7
      vertex 16.4444 42.6078 10
    endloop
  endfacet
  facet normal -0.959493 0.281733 0
    outer loop
      vertex 16.4444 42.6078 10
      vertex 17 44.5 7
      vertex 16.4444 42.6078 7
    endloop
  endfacet
  facet normal -0.959493 -0.281733 0
    outer loop
      vertex 17 44.5 10
      vertex 16.4444 46.3922 10
      vertex 17 44.5 7
    endloop
  endfacet
  facet normal -0.959493 -0.281733 0
    outer loop
      vertex 17 44.5 7
      vertex 16.4444 46.3922 10
      vertex 16.4444 46.3922 7
    endloop
  endfacet
  facet normal -0.654861 -0.755749 0
    outer loop
      vertex 16.4444 46.3922 7
      vertex 16.4444 46.3922 10
      vertex 14.954 47.6837 10
    endloop
  endfacet
  facet normal -0.654861 -0.755749 0
    outer loop
      vertex 14.954 47.6837 7
      vertex 16.4444 46.3922 7
      vertex 14.954 47.6837 10
    endloop
  endfacet
  facet normal -0.142315 -0.989821 0
    outer loop
      vertex 14.954 47.6837 7
      vertex 14.954 47.6837 10
      vertex 13.0019 47.9644 10
    endloop
  endfacet
  facet normal -0.142315 -0.989821 0
    outer loop
      vertex 13.0019 47.9644 7
      vertex 14.954 47.6837 7
      vertex 13.0019 47.9644 10
    endloop
  endfacet
  facet normal 0.415415 -0.909632 0
    outer loop
      vertex 13.0019 47.9644 7
      vertex 13.0019 47.9644 10
      vertex 11.208 47.1451 10
    endloop
  endfacet
  facet normal 0.415415 -0.909632 0
    outer loop
      vertex 11.208 47.1451 7
      vertex 13.0019 47.9644 7
      vertex 11.208 47.1451 10
    endloop
  endfacet
  facet normal 0.841254 -0.54064 0
    outer loop
      vertex 11.208 47.1451 7
      vertex 11.208 47.1451 10
      vertex 10.1418 45.4861 10
    endloop
  endfacet
  facet normal 0.841254 -0.54064 0
    outer loop
      vertex 10.1418 45.4861 7
      vertex 11.208 47.1451 7
      vertex 10.1418 45.4861 10
    endloop
  endfacet
  facet normal 0 0 1
    outer loop
      vertex 11.208 10.8549 7
      vertex 13.0019 10.0356 7
      vertex 14.954 10.3163 7
    endloop
  endfacet
  facet normal 0 0 1
    outer loop
      vertex 14.0253 11.8832 7
      vertex 11.208 10.8549 7
      vertex 16.4444 11.6078 7
    endloop
  endfacet
  facet normal 0 0 1
    outer loop
      vertex 16.4444 11.6078 7
      vertex 11.208 10.8549 7
      vertex 14.954 10.3163 7
    endloop
  endfacet
  facet normal 0 0 1
    outer loop
      vertex 14.0253 11.8832 7
      vertex 12.9747 11.8832 7
      vertex 11.208 10.8549 7
    endloop
  endfacet
  facet normal 0 0 1
    outer loop
      vertex 14.8753 14.4992 7
      vertex 15.2 13.5 7
      vertex 16.4444 15.3922 7
    endloop
  endfacet
  facet normal 0 0 1
    outer loop
      vertex 10.1418 14.4861 7
      vertex 11.208 10.8549 7
      vertex 11.208 16.1451 7
    endloop
  endfacet
  facet normal 0 0 1
    outer loop
      vertex 10.1418 12.5139 7
      vertex 11.208 10.8549 7
      vertex 10.1418 14.4861 7
    endloop
  endfacet
  facet normal 0 0 1
    outer loop
      vertex 11.208 16.1451 7
      vertex 11.208 10.8549 7
      vertex 11.8 13.5 7
    endloop
  endfacet
  facet normal 0 0 1
    outer loop
      vertex 11.208 16.1451 7
      vertex 12.1247 14.4992 7
      vertex 13.0019 16.9644 7
    endloop
  endfacet
  facet normal 0 0 1
    outer loop
      vertex 11.208 16.1451 7
      vertex 11.8 13.5 7
      vertex 12.1247 14.4992 7
    endloop
  endfacet
  facet normal 0 0 1
    outer loop
      vertex 13.0019 16.9644 7
      vertex 12.9747 15.1168 7
      vertex 14.954 16.6837 7
    endloop
  endfacet
  facet normal 0 0 1
    outer loop
      vertex 12.1247 14.4992 7
      vertex 12.9747 15.1168 7
      vertex 13.0019 16.9644 7
    endloop
  endfacet
  facet normal 0 0 1
    outer loop
      vertex 14.954 16.6837 7
      vertex 14.0253 15.1168 7
      vertex 16.4444 15.3922 7
    endloop
  endfacet
  facet normal 0 0 1
    outer loop
      vertex 14.0253 15.1168 7
      vertex 14.8753 14.4992 7
      vertex 16.4444 15.3922 7
    endloop
  endfacet
  facet normal 0 0 1
    outer loop
      vertex 16.4444 15.3922 7
      vertex 15.2 13.5 7
      vertex 17 13.5 7
    endloop
  endfacet
  facet normal 0 0 1
    outer loop
      vertex 17 13.5 7
      vertex 14.8753 12.5008 7
      vertex 16.4444 11.6078 7
    endloop
  endfacet
  facet normal 0 0 1
    outer loop
      vertex 14.8753 12.5008 7
      vertex 14.0253 11.8832 7
      vertex 16.4444 11.6078 7
    endloop
  endfacet
  facet normal 0 0 1
    outer loop
      vertex 15.2 13.5 7
      vertex 14.8753 12.5008 7
      vertex 17 13.5 7
    endloop
  endfacet
  facet normal 0 0 1
    outer loop
      vertex 12.9747 15.1168 7
      vertex 14.0253 15.1168 7
      vertex 14.954 16.6837 7
    endloop
  endfacet
  facet normal 0 0 1
    outer loop
      vertex 12.1247 12.5008 7
      vertex 11.8 13.5 7
      vertex 11.208 10.8549 7
    endloop
  endfacet
  facet normal 0 0 1
    outer loop
      vertex 12.9747 11.8832 7
      vertex 12.1247 12.5008 7
      vertex 11.208 10.8549 7
    endloop
  endfacet
  facet normal 0 0 1
    outer loop
      vertex 11.208 41.8549 7
      vertex 13.0019 41.0356 7
      vertex 14.954 41.3163 7
    endloop
  endfacet
  facet normal 0 0 1
    outer loop
      vertex 14.0253 42.8832 7
      vertex 11.208 41.8549 7
      vertex 16.4444 42.6078 7
    endloop
  endfacet
  facet normal 0 0 1
    outer loop
      vertex 16.4444 42.6078 7
      vertex 11.208 41.8549 7
      vertex 14.954 41.3163 7
    endloop
  endfacet
  facet normal 0 0 1
    outer loop
      vertex 14.0253 42.8832 7
      vertex 12.9747 42.8832 7
      vertex 11.208 41.8549 7
    endloop
  endfacet
  facet normal 0 0 1
    outer loop
      vertex 14.8753 45.4992 7
      vertex 15.2 44.5 7
      vertex 16.4444 46.3922 7
    endloop
  endfacet
  facet normal 0 0 1
    outer loop
      vertex 10.1418 45.4861 7
      vertex 11.208 41.8549 7
      vertex 11.208 47.1451 7
    endloop
  endfacet
  facet normal 0 0 1
    outer loop
      vertex 10.1418 43.5139 7
      vertex 11.208 41.8549 7
      vertex 10.1418 45.4861 7
    endloop
  endfacet
  facet normal 0 0 1
    outer loop
      vertex 11.208 47.1451 7
      vertex 11.208 41.8549 7
      vertex 11.8 44.5 7
    endloop
  endfacet
  facet normal 0 0 1
    outer loop
      vertex 11.208 47.1451 7
      vertex 12.1247 45.4992 7
      vertex 13.0019 47.9644 7
    endloop
  endfacet
  facet normal 0 0 1
    outer loop
      vertex 11.208 47.1451 7
      vertex 11.8 44.5 7
      vertex 12.1247 45.4992 7
    endloop
  endfacet
  facet normal 0 0 1
    outer loop
      vertex 13.0019 47.9644 7
      vertex 12.9747 46.1168 7
      vertex 14.954 47.6837 7
    endloop
  endfacet
  facet normal 0 0 1
    outer loop
      vertex 12.1247 45.4992 7
      vertex 12.9747 46.1168 7
      vertex 13.0019 47.9644 7
    endloop
  endfacet
  facet normal 0 0 1
    outer loop
      vertex 14.954 47.6837 7
      vertex 14.0253 46.1168 7
      vertex 16.4444 46.3922 7
    endloop
  endfacet
  facet normal 0 0 1
    outer loop
      vertex 14.0253 46.1168 7
      vertex 14.8753 45.4992 7
      vertex 16.4444 46.3922 7
    endloop
  endfacet
  facet normal 0 0 1
    outer loop
      vertex 16.4444 46.3922 7
      vertex 15.2 44.5 7
      vertex 17 44.5 7
    endloop
  endfacet
  facet normal 0 0 1
    outer loop
      vertex 17 44.5 7
      vertex 14.8753 43.5008 7
      vertex 16.4444 42.6078 7
    endloop
  endfacet
  facet normal 0 0 1
    outer loop
      vertex 14.8753 43.5008 7
      vertex 14.0253 42.8832 7
      vertex 16.4444 42.6078 7
    endloop
  endfacet
  facet normal 0 0 1
    outer loop
      vertex 15.2 44.5 7
      vertex 14.8753 43.5008 7
      vertex 17 44.5 7
    endloop
  endfacet
  facet normal 0 0 1
    outer loop
      vertex 12.9747 46.1168 7
      vertex 14.0253 46.1168 7
      vertex 14.954 47.6837 7
    endloop
  endfacet
  facet normal 0 0 1
    outer loop
      vertex 12.1247 43.5008 7
      vertex 11.8 44.5 7
      vertex 11.208 41.8549 7
    endloop
  endfacet
  facet normal 0 0 1
    outer loop
      vertex 12.9747 42.8832 7
      vertex 12.1247 43.5008 7
      vertex 11.208 41.8549 7
    endloop
  endfacet
endsolid OpenSCAD_Model
